%TF.GenerationSoftware,KiCad,Pcbnew,9.0.5*%
%TF.CreationDate,2025-11-03T04:05:24-05:00*%
%TF.ProjectId,FinishControllerBoard_v1,46696e69-7368-4436-9f6e-74726f6c6c65,rev?*%
%TF.SameCoordinates,Original*%
%TF.FileFunction,Soldermask,Bot*%
%TF.FilePolarity,Negative*%
%FSLAX46Y46*%
G04 Gerber Fmt 4.6, Leading zero omitted, Abs format (unit mm)*
G04 Created by KiCad (PCBNEW 9.0.5) date 2025-11-03 04:05:24*
%MOMM*%
%LPD*%
G01*
G04 APERTURE LIST*
G04 Aperture macros list*
%AMRoundRect*
0 Rectangle with rounded corners*
0 $1 Rounding radius*
0 $2 $3 $4 $5 $6 $7 $8 $9 X,Y pos of 4 corners*
0 Add a 4 corners polygon primitive as box body*
4,1,4,$2,$3,$4,$5,$6,$7,$8,$9,$2,$3,0*
0 Add four circle primitives for the rounded corners*
1,1,$1+$1,$2,$3*
1,1,$1+$1,$4,$5*
1,1,$1+$1,$6,$7*
1,1,$1+$1,$8,$9*
0 Add four rect primitives between the rounded corners*
20,1,$1+$1,$2,$3,$4,$5,0*
20,1,$1+$1,$4,$5,$6,$7,0*
20,1,$1+$1,$6,$7,$8,$9,0*
20,1,$1+$1,$8,$9,$2,$3,0*%
%AMFreePoly0*
4,1,22,0.945671,0.830970,1.026777,0.776777,1.080970,0.695671,1.100000,0.600000,1.100000,-0.600000,1.080970,-0.695671,1.026777,-0.776777,0.945671,-0.830970,0.850000,-0.850000,-0.450000,-0.850000,-0.545671,-0.830970,-0.626777,-0.776777,-1.026777,-0.376777,-1.080970,-0.295671,-1.100000,-0.200000,-1.100000,0.600000,-1.080970,0.695671,-1.026777,0.776777,-0.945671,0.830970,-0.850000,0.850000,
0.850000,0.850000,0.945671,0.830970,0.945671,0.830970,$1*%
G04 Aperture macros list end*
%ADD10C,5.000000*%
%ADD11RoundRect,0.250000X0.725000X-0.600000X0.725000X0.600000X-0.725000X0.600000X-0.725000X-0.600000X0*%
%ADD12O,1.950000X1.700000*%
%ADD13RoundRect,0.250000X-0.725000X0.600000X-0.725000X-0.600000X0.725000X-0.600000X0.725000X0.600000X0*%
%ADD14C,1.300000*%
%ADD15RoundRect,0.250000X-0.600000X0.850000X-0.600000X-0.850000X0.600000X-0.850000X0.600000X0.850000X0*%
%ADD16O,1.700000X2.200000*%
%ADD17R,1.700000X1.700000*%
%ADD18O,1.700000X1.700000*%
%ADD19RoundRect,0.250000X0.600000X0.725000X-0.600000X0.725000X-0.600000X-0.725000X0.600000X-0.725000X0*%
%ADD20O,1.700000X1.950000*%
%ADD21FreePoly0,0.000000*%
%ADD22O,2.200000X1.700000*%
G04 APERTURE END LIST*
D10*
%TO.C,H1*%
X183673940Y32586080D03*
%TD*%
D11*
%TO.C,J4*%
X227700000Y-42750000D03*
D12*
X227700000Y-40250000D03*
X227700000Y-37750000D03*
X227700000Y-35250000D03*
X227700000Y-32750000D03*
X227700000Y-30250000D03*
X227700000Y-27750000D03*
X227700000Y-25250000D03*
X227700000Y-22750000D03*
X227700000Y-20250000D03*
%TD*%
D13*
%TO.C,J5*%
X184000000Y-20150000D03*
D12*
X184000000Y-22650000D03*
X184000000Y-25150000D03*
X184000000Y-27650000D03*
X184000000Y-30150000D03*
X184000000Y-32650000D03*
X184000000Y-35150000D03*
X184000000Y-37650000D03*
X184000000Y-40150000D03*
X184000000Y-42650000D03*
%TD*%
D14*
%TO.C,J6*%
X206350000Y25340000D03*
D15*
X210100000Y24000000D03*
D16*
X207600000Y24000000D03*
X205100000Y24000000D03*
X202600000Y24000000D03*
%TD*%
D10*
%TO.C,H4*%
X228123160Y-50089840D03*
%TD*%
D17*
%TO.C,J9*%
X227980000Y-10000000D03*
D18*
X225440000Y-10000000D03*
X222900000Y-10000000D03*
X220360000Y-10000000D03*
X217820000Y-10000000D03*
X215280000Y-10000000D03*
X212740000Y-10000000D03*
X210200000Y-10000000D03*
X207660000Y-10000000D03*
X205120000Y-10000000D03*
X202580000Y-10000000D03*
X200040000Y-10000000D03*
X197500000Y-10000000D03*
X194960000Y-10000000D03*
X192420000Y-10000000D03*
%TD*%
D10*
%TO.C,H2*%
X228123160Y32586080D03*
%TD*%
D13*
%TO.C,J2*%
X183640000Y850000D03*
D12*
X183640000Y-1650000D03*
X183640000Y-4150000D03*
%TD*%
D19*
%TO.C,J1*%
X223350000Y26650000D03*
D20*
X220850000Y26650000D03*
X218350000Y26650000D03*
X215850000Y26650000D03*
%TD*%
D17*
%TO.C,J8*%
X227980000Y5203860D03*
D18*
X225440000Y5203860D03*
X222900000Y5203860D03*
X220360000Y5203860D03*
X217820000Y5203860D03*
X215280000Y5203860D03*
X212740000Y5203860D03*
X210200000Y5203860D03*
X207660000Y5203860D03*
X205120000Y5203860D03*
X202580000Y5203860D03*
X200040000Y5203860D03*
X197500000Y5203860D03*
X194960000Y5203860D03*
X192420000Y5203860D03*
%TD*%
D10*
%TO.C,H3*%
X183673940Y-50089840D03*
%TD*%
D14*
%TO.C,J3*%
X185460000Y21750000D03*
D21*
X186800000Y23000000D03*
D22*
X186800000Y20500000D03*
%TD*%
M02*
