%TF.GenerationSoftware,KiCad,Pcbnew,9.0.5*%
%TF.CreationDate,2025-11-03T04:05:24-05:00*%
%TF.ProjectId,FinishControllerBoard_v1,46696e69-7368-4436-9f6e-74726f6c6c65,rev?*%
%TF.SameCoordinates,Original*%
%TF.FileFunction,Soldermask,Top*%
%TF.FilePolarity,Negative*%
%FSLAX46Y46*%
G04 Gerber Fmt 4.6, Leading zero omitted, Abs format (unit mm)*
G04 Created by KiCad (PCBNEW 9.0.5) date 2025-11-03 04:05:24*
%MOMM*%
%LPD*%
G01*
G04 APERTURE LIST*
G04 Aperture macros list*
%AMRoundRect*
0 Rectangle with rounded corners*
0 $1 Rounding radius*
0 $2 $3 $4 $5 $6 $7 $8 $9 X,Y pos of 4 corners*
0 Add a 4 corners polygon primitive as box body*
4,1,4,$2,$3,$4,$5,$6,$7,$8,$9,$2,$3,0*
0 Add four circle primitives for the rounded corners*
1,1,$1+$1,$2,$3*
1,1,$1+$1,$4,$5*
1,1,$1+$1,$6,$7*
1,1,$1+$1,$8,$9*
0 Add four rect primitives between the rounded corners*
20,1,$1+$1,$2,$3,$4,$5,0*
20,1,$1+$1,$4,$5,$6,$7,0*
20,1,$1+$1,$6,$7,$8,$9,0*
20,1,$1+$1,$8,$9,$2,$3,0*%
%AMFreePoly0*
4,1,22,0.945671,0.830970,1.026777,0.776777,1.080970,0.695671,1.100000,0.600000,1.100000,-0.600000,1.080970,-0.695671,1.026777,-0.776777,0.945671,-0.830970,0.850000,-0.850000,-0.450000,-0.850000,-0.545671,-0.830970,-0.626777,-0.776777,-1.026777,-0.376777,-1.080970,-0.295671,-1.100000,-0.200000,-1.100000,0.600000,-1.080970,0.695671,-1.026777,0.776777,-0.945671,0.830970,-0.850000,0.850000,
0.850000,0.850000,0.945671,0.830970,0.945671,0.830970,$1*%
G04 Aperture macros list end*
%ADD10C,5.000000*%
%ADD11RoundRect,0.250000X0.450000X-0.262500X0.450000X0.262500X-0.450000X0.262500X-0.450000X-0.262500X0*%
%ADD12RoundRect,0.225000X-0.225000X-0.375000X0.225000X-0.375000X0.225000X0.375000X-0.225000X0.375000X0*%
%ADD13RoundRect,0.250000X-0.325000X-0.450000X0.325000X-0.450000X0.325000X0.450000X-0.325000X0.450000X0*%
%ADD14RoundRect,0.250000X-0.450000X0.262500X-0.450000X-0.262500X0.450000X-0.262500X0.450000X0.262500X0*%
%ADD15RoundRect,0.250000X0.475000X-0.250000X0.475000X0.250000X-0.475000X0.250000X-0.475000X-0.250000X0*%
%ADD16RoundRect,0.250000X0.262500X0.450000X-0.262500X0.450000X-0.262500X-0.450000X0.262500X-0.450000X0*%
%ADD17RoundRect,0.162500X-0.162500X0.617500X-0.162500X-0.617500X0.162500X-0.617500X0.162500X0.617500X0*%
%ADD18RoundRect,0.200000X-0.750000X-0.200000X0.750000X-0.200000X0.750000X0.200000X-0.750000X0.200000X0*%
%ADD19RoundRect,0.225000X0.225000X0.375000X-0.225000X0.375000X-0.225000X-0.375000X0.225000X-0.375000X0*%
%ADD20RoundRect,0.250000X0.725000X-0.600000X0.725000X0.600000X-0.725000X0.600000X-0.725000X-0.600000X0*%
%ADD21O,1.950000X1.700000*%
%ADD22RoundRect,0.250000X-0.725000X0.600000X-0.725000X-0.600000X0.725000X-0.600000X0.725000X0.600000X0*%
%ADD23RoundRect,0.250000X-0.250000X-0.475000X0.250000X-0.475000X0.250000X0.475000X-0.250000X0.475000X0*%
%ADD24RoundRect,0.250000X0.250000X0.475000X-0.250000X0.475000X-0.250000X-0.475000X0.250000X-0.475000X0*%
%ADD25RoundRect,0.200000X0.750000X0.200000X-0.750000X0.200000X-0.750000X-0.200000X0.750000X-0.200000X0*%
%ADD26C,1.300000*%
%ADD27RoundRect,0.250000X-0.600000X0.850000X-0.600000X-0.850000X0.600000X-0.850000X0.600000X0.850000X0*%
%ADD28O,1.700000X2.200000*%
%ADD29RoundRect,0.250000X-0.262500X-0.450000X0.262500X-0.450000X0.262500X0.450000X-0.262500X0.450000X0*%
%ADD30RoundRect,0.150000X-0.825000X-0.150000X0.825000X-0.150000X0.825000X0.150000X-0.825000X0.150000X0*%
%ADD31RoundRect,0.250000X-1.412500X-0.550000X1.412500X-0.550000X1.412500X0.550000X-1.412500X0.550000X0*%
%ADD32R,1.700000X1.700000*%
%ADD33O,1.700000X1.700000*%
%ADD34RoundRect,0.250000X-0.350000X0.850000X-0.350000X-0.850000X0.350000X-0.850000X0.350000X0.850000X0*%
%ADD35RoundRect,0.250000X-2.650000X2.950000X-2.650000X-2.950000X2.650000X-2.950000X2.650000X2.950000X0*%
%ADD36RoundRect,0.250000X0.325000X0.450000X-0.325000X0.450000X-0.325000X-0.450000X0.325000X-0.450000X0*%
%ADD37RoundRect,0.250000X0.600000X0.725000X-0.600000X0.725000X-0.600000X-0.725000X0.600000X-0.725000X0*%
%ADD38O,1.700000X1.950000*%
%ADD39FreePoly0,0.000000*%
%ADD40O,2.200000X1.700000*%
%ADD41RoundRect,0.150000X-0.875000X-0.150000X0.875000X-0.150000X0.875000X0.150000X-0.875000X0.150000X0*%
%ADD42RoundRect,0.150000X0.825000X0.150000X-0.825000X0.150000X-0.825000X-0.150000X0.825000X-0.150000X0*%
G04 APERTURE END LIST*
D10*
%TO.C,H1*%
X183673940Y32586080D03*
%TD*%
D11*
%TO.C,R8*%
X216800000Y-15325000D03*
X216800000Y-13500000D03*
%TD*%
%TO.C,R24*%
X206500000Y-15325000D03*
X206500000Y-13500000D03*
%TD*%
D12*
%TO.C,D9*%
X216250000Y-22600000D03*
X219550000Y-22600000D03*
%TD*%
D11*
%TO.C,R19*%
X211700000Y-15325000D03*
X211700000Y-13500000D03*
%TD*%
%TO.C,R18*%
X214200000Y-15325000D03*
X214200000Y-13500000D03*
%TD*%
D13*
%TO.C,D15*%
X206975000Y16212500D03*
X209025000Y16212500D03*
%TD*%
D12*
%TO.C,D1*%
X222400000Y18000000D03*
X225700000Y18000000D03*
%TD*%
D11*
%TO.C,R22*%
X197040000Y-5762500D03*
X197040000Y-3937500D03*
%TD*%
D13*
%TO.C,D16*%
X188900000Y16000000D03*
X190950000Y16000000D03*
%TD*%
D14*
%TO.C,R2*%
X224600000Y22912500D03*
X224600000Y21087500D03*
%TD*%
%TO.C,R4*%
X216300000Y22912500D03*
X216300000Y21087500D03*
%TD*%
D15*
%TO.C,C5*%
X188125000Y12150000D03*
X188125000Y14050000D03*
%TD*%
D16*
%TO.C,R21*%
X195152500Y-5600000D03*
X193327500Y-5600000D03*
%TD*%
D17*
%TO.C,U3*%
X220600000Y18150000D03*
X219650000Y18150000D03*
X218700000Y18150000D03*
X218700000Y15450000D03*
X219650000Y15450000D03*
X220600000Y15450000D03*
%TD*%
D12*
%TO.C,D10*%
X221150000Y-22600000D03*
X224450000Y-22600000D03*
%TD*%
D18*
%TO.C,Q1*%
X193740000Y1737500D03*
X193740000Y-162500D03*
X196740000Y787500D03*
%TD*%
D19*
%TO.C,D12*%
X190650000Y-40500000D03*
X187350000Y-40500000D03*
%TD*%
D14*
%TO.C,R1*%
X222600000Y22912500D03*
X222600000Y21087500D03*
%TD*%
D19*
%TO.C,D11*%
X195650000Y-40500000D03*
X192350000Y-40500000D03*
%TD*%
D16*
%TO.C,R16*%
X197202500Y-2100000D03*
X195377500Y-2100000D03*
%TD*%
D12*
%TO.C,D6*%
X221150000Y-20100000D03*
X224450000Y-20100000D03*
%TD*%
%TO.C,D4*%
X213600000Y15500000D03*
X216900000Y15500000D03*
%TD*%
D11*
%TO.C,R12*%
X217900000Y9000000D03*
X217900000Y10825000D03*
%TD*%
D14*
%TO.C,R11*%
X191440000Y1762500D03*
X191440000Y-62500D03*
%TD*%
D20*
%TO.C,J4*%
X227700000Y-42750000D03*
D21*
X227700000Y-40250000D03*
X227700000Y-37750000D03*
X227700000Y-35250000D03*
X227700000Y-32750000D03*
X227700000Y-30250000D03*
X227700000Y-27750000D03*
X227700000Y-25250000D03*
X227700000Y-22750000D03*
X227700000Y-20250000D03*
%TD*%
D14*
%TO.C,R5*%
X215340000Y2562500D03*
X215340000Y737500D03*
%TD*%
D22*
%TO.C,J5*%
X184000000Y-20150000D03*
D21*
X184000000Y-22650000D03*
X184000000Y-25150000D03*
X184000000Y-27650000D03*
X184000000Y-30150000D03*
X184000000Y-32650000D03*
X184000000Y-35150000D03*
X184000000Y-37650000D03*
X184000000Y-40150000D03*
X184000000Y-42650000D03*
%TD*%
D17*
%TO.C,U7*%
X185950000Y13850000D03*
X185000000Y13850000D03*
X184050000Y13850000D03*
X184050000Y11150000D03*
X185950000Y11150000D03*
%TD*%
D15*
%TO.C,C11*%
X206900000Y12462500D03*
X206900000Y14362500D03*
%TD*%
D16*
%TO.C,R17*%
X189552500Y1550000D03*
X187727500Y1550000D03*
%TD*%
D23*
%TO.C,C3*%
X206250000Y-20600000D03*
X208150000Y-20600000D03*
%TD*%
D14*
%TO.C,R10*%
X190325000Y13912500D03*
X190325000Y12087500D03*
%TD*%
D24*
%TO.C,C4*%
X223450000Y13000000D03*
X221550000Y13000000D03*
%TD*%
D12*
%TO.C,D41*%
X216250000Y-30100000D03*
X219550000Y-30100000D03*
%TD*%
D15*
%TO.C,C2*%
X218400000Y21050000D03*
X218400000Y22950000D03*
%TD*%
D11*
%TO.C,R14*%
X193490000Y-3712500D03*
X193490000Y-1887500D03*
%TD*%
D19*
%TO.C,D7*%
X195650000Y-43000000D03*
X192350000Y-43000000D03*
%TD*%
D11*
%TO.C,R26*%
X201500000Y-15312500D03*
X201500000Y-13487500D03*
%TD*%
D19*
%TO.C,D36*%
X190650000Y-38000000D03*
X187350000Y-38000000D03*
%TD*%
D15*
%TO.C,C1*%
X220500000Y21050000D03*
X220500000Y22950000D03*
%TD*%
D25*
%TO.C,Q2*%
X191190000Y-5737500D03*
X191190000Y-3837500D03*
X188190000Y-4787500D03*
%TD*%
D19*
%TO.C,D3*%
X216900000Y18000000D03*
X213600000Y18000000D03*
%TD*%
%TO.C,D2*%
X225700000Y15500000D03*
X222400000Y15500000D03*
%TD*%
D26*
%TO.C,J6*%
X206350000Y25340000D03*
D27*
X210100000Y24000000D03*
D28*
X207600000Y24000000D03*
X205100000Y24000000D03*
X202600000Y24000000D03*
%TD*%
D24*
%TO.C,C12*%
X207150000Y10612500D03*
X205250000Y10612500D03*
%TD*%
D15*
%TO.C,C13*%
X213200000Y-29450000D03*
X213200000Y-27550000D03*
%TD*%
D29*
%TO.C,R28*%
X183587500Y16000000D03*
X185412500Y16000000D03*
%TD*%
D24*
%TO.C,C10*%
X190787500Y29000000D03*
X188887500Y29000000D03*
%TD*%
D10*
%TO.C,H4*%
X228123160Y-50089840D03*
%TD*%
D19*
%TO.C,D8*%
X190650000Y-43000000D03*
X187350000Y-43000000D03*
%TD*%
D12*
%TO.C,D42*%
X221150000Y-30100000D03*
X224450000Y-30100000D03*
%TD*%
D19*
%TO.C,D39*%
X195650000Y-35500000D03*
X192350000Y-35500000D03*
%TD*%
%TO.C,D40*%
X190650000Y-35500000D03*
X187350000Y-35500000D03*
%TD*%
D12*
%TO.C,D38*%
X221150000Y-27600000D03*
X224450000Y-27600000D03*
%TD*%
D30*
%TO.C,U2*%
X209125000Y-31155000D03*
X209125000Y-32425000D03*
X209125000Y-33695000D03*
X209125000Y-34965000D03*
X209125000Y-36235000D03*
X209125000Y-37505000D03*
X209125000Y-38775000D03*
X209125000Y-40045000D03*
X214075000Y-40045000D03*
X214075000Y-38775000D03*
X214075000Y-37505000D03*
X214075000Y-36235000D03*
X214075000Y-34965000D03*
X214075000Y-33695000D03*
X214075000Y-32425000D03*
X214075000Y-31155000D03*
%TD*%
D12*
%TO.C,D5*%
X216250000Y-20100000D03*
X219550000Y-20100000D03*
%TD*%
D31*
%TO.C,C9*%
X190962500Y23000000D03*
X196037500Y23000000D03*
%TD*%
D11*
%TO.C,R25*%
X204000000Y-15325000D03*
X204000000Y-13500000D03*
%TD*%
D32*
%TO.C,J9*%
X227980000Y-10000000D03*
D33*
X225440000Y-10000000D03*
X222900000Y-10000000D03*
X220360000Y-10000000D03*
X217820000Y-10000000D03*
X215280000Y-10000000D03*
X212740000Y-10000000D03*
X210200000Y-10000000D03*
X207660000Y-10000000D03*
X205120000Y-10000000D03*
X202580000Y-10000000D03*
X200040000Y-10000000D03*
X197500000Y-10000000D03*
X194960000Y-10000000D03*
X192420000Y-10000000D03*
%TD*%
D34*
%TO.C,U4*%
X202280000Y17700000D03*
D35*
X200000000Y11400000D03*
D34*
X197720000Y17700000D03*
%TD*%
D11*
%TO.C,R20*%
X187940000Y-2112500D03*
X187940000Y-287500D03*
%TD*%
D12*
%TO.C,D13*%
X216250000Y-25100000D03*
X219550000Y-25100000D03*
%TD*%
D11*
%TO.C,R23*%
X209100000Y-15325000D03*
X209100000Y-13500000D03*
%TD*%
D23*
%TO.C,C14*%
X197350000Y-42800000D03*
X199250000Y-42800000D03*
%TD*%
D10*
%TO.C,H2*%
X228123160Y32586080D03*
%TD*%
D36*
%TO.C,D17*%
X198000000Y29000000D03*
X195950000Y29000000D03*
%TD*%
D22*
%TO.C,J2*%
X183640000Y850000D03*
D21*
X183640000Y-1650000D03*
X183640000Y-4150000D03*
%TD*%
D14*
%TO.C,R6*%
X212740000Y2562500D03*
X212740000Y737500D03*
%TD*%
D19*
%TO.C,D44*%
X190650000Y-33000000D03*
X187350000Y-33000000D03*
%TD*%
D23*
%TO.C,C6*%
X188550000Y10000000D03*
X190450000Y10000000D03*
%TD*%
D37*
%TO.C,J1*%
X223350000Y26650000D03*
D38*
X220850000Y26650000D03*
X218350000Y26650000D03*
X215850000Y26650000D03*
%TD*%
D14*
%TO.C,R3*%
X214200000Y22912500D03*
X214200000Y21087500D03*
%TD*%
D11*
%TO.C,R13*%
X220000000Y9000000D03*
X220000000Y10825000D03*
%TD*%
D12*
%TO.C,D37*%
X216250000Y-27600000D03*
X219550000Y-27600000D03*
%TD*%
D29*
%TO.C,R15*%
X189827500Y-1900000D03*
X191652500Y-1900000D03*
%TD*%
D19*
%TO.C,D35*%
X195650000Y-38000000D03*
X192350000Y-38000000D03*
%TD*%
D32*
%TO.C,J8*%
X227980000Y5203860D03*
D33*
X225440000Y5203860D03*
X222900000Y5203860D03*
X220360000Y5203860D03*
X217820000Y5203860D03*
X215280000Y5203860D03*
X212740000Y5203860D03*
X210200000Y5203860D03*
X207660000Y5203860D03*
X205120000Y5203860D03*
X202580000Y5203860D03*
X200040000Y5203860D03*
X197500000Y5203860D03*
X194960000Y5203860D03*
X192420000Y5203860D03*
%TD*%
D10*
%TO.C,H3*%
X183673940Y-50089840D03*
%TD*%
D14*
%TO.C,R27*%
X209000000Y14325000D03*
X209000000Y12500000D03*
%TD*%
D26*
%TO.C,J3*%
X185460000Y21750000D03*
D39*
X186800000Y23000000D03*
D40*
X186800000Y20500000D03*
%TD*%
D41*
%TO.C,U5*%
X194550000Y-18285000D03*
X194550000Y-19555000D03*
X194550000Y-20825000D03*
X194550000Y-22095000D03*
X194550000Y-23365000D03*
X194550000Y-24635000D03*
X194550000Y-25905000D03*
X194550000Y-27175000D03*
X194550000Y-28445000D03*
X194550000Y-29715000D03*
X203850000Y-29715000D03*
X203850000Y-28445000D03*
X203850000Y-27175000D03*
X203850000Y-25905000D03*
X203850000Y-24635000D03*
X203850000Y-23365000D03*
X203850000Y-22095000D03*
X203850000Y-20825000D03*
X203850000Y-19555000D03*
X203850000Y-18285000D03*
%TD*%
D16*
%TO.C,R9*%
X194250000Y29000000D03*
X192425000Y29000000D03*
%TD*%
D42*
%TO.C,U1*%
X203775000Y-40645000D03*
X203775000Y-39375000D03*
X203775000Y-38105000D03*
X203775000Y-36835000D03*
X203775000Y-35565000D03*
X203775000Y-34295000D03*
X203775000Y-33025000D03*
X203775000Y-31755000D03*
X198825000Y-31755000D03*
X198825000Y-33025000D03*
X198825000Y-34295000D03*
X198825000Y-35565000D03*
X198825000Y-36835000D03*
X198825000Y-38105000D03*
X198825000Y-39375000D03*
X198825000Y-40645000D03*
%TD*%
D11*
%TO.C,R7*%
X219200000Y-15325000D03*
X219200000Y-13500000D03*
%TD*%
D19*
%TO.C,D43*%
X195650000Y-33000000D03*
X192350000Y-33000000D03*
%TD*%
D12*
%TO.C,D14*%
X221150000Y-25100000D03*
X224450000Y-25100000D03*
%TD*%
M02*
