M48
; DRILL file {KiCad 9.0.5} date 2025-11-03T04:05:21-0500
; FORMAT={-:-/ absolute / inch / decimal}
; #@! TF.CreationDate,2025-11-03T04:05:21-05:00
; #@! TF.GenerationSoftware,Kicad,Pcbnew,9.0.5
; #@! TF.FileFunction,Plated,1,4,PTH
FMAT,2
INCH
; #@! TA.AperFunction,Plated,PTH,ViaDrill
T1C0.0118
; #@! TA.AperFunction,Plated,PTH,ComponentDrill
T2C0.0374
; #@! TA.AperFunction,Plated,PTH,ComponentDrill
T3C0.0394
; #@! TA.AperFunction,Plated,PTH,ComponentDrill
T4C0.0472
; #@! TA.AperFunction,Plated,PTH,ComponentDrill
T5C0.0984
%
G90
G05
T1
X7.1457Y1.122
X7.1457Y1.0039
X7.1457Y0.7677
X7.1457Y0.6496
X7.1457Y0.5315
X7.1457Y0.4134
X7.1457Y0.2953
X7.1457Y0.1772
X7.1457Y0.0591
X7.1457Y-0.0591
X7.1457Y-0.1772
X7.1457Y-0.2953
X7.1457Y-0.4134
X7.1457Y-0.5315
X7.1457Y-0.6496
X7.1457Y-0.7677
X7.1457Y-0.8858
X7.1457Y-1.0039
X7.1457Y-1.122
X7.1457Y-1.2402
X7.1457Y-1.3583
X7.1457Y-1.4764
X7.1457Y-1.5945
X7.1457Y-1.7126
X7.1457Y-1.8307
X7.2835Y0.4921
X7.3425Y0.6693
X7.3425Y-1.2992
X7.3425Y-1.3976
X7.3425Y-1.4961
X7.3425Y-1.5945
X7.3425Y-1.6929
X7.3504Y-1.1378
X7.3622Y-1.0354
X7.3622Y-1.8031
X7.3819Y0.1772
X7.3819Y-0.6496
X7.3819Y-2.0472
X7.4016Y1.3583
X7.4252Y0.3465
X7.4252Y0.1142
X7.4253Y-1.1141
X7.4331Y-0.7913
X7.4353Y-1.8071
X7.4489Y-0.9341
X7.4492Y-1.0197
X7.4492Y-1.7788
X7.4646Y-1.7513
X7.4803Y-1.0669
X7.4804Y-0.9257
X7.4898Y0.002
X7.4913Y-1.7755
X7.5Y0.3346
X7.5Y-2.0472
X7.5039Y-0.8307
X7.5039Y-0.9577
X7.5197Y1.3583
X7.5197Y1.2008
X7.563Y-0.9724
X7.563Y-1.0591
X7.5712Y-0.1824
X7.5758Y1.0463
X7.5787Y0.8071
X7.5827Y-0.7638
X7.5866Y-0.6024
X7.6142Y-1.6352
X7.6181Y-0.6496
X7.6181Y-1.3386
X7.6181Y-1.437
X7.6181Y-1.5354
X7.6181Y-2.0472
X7.6378Y1.3583
X7.6654Y-1.5945
X7.6654Y-1.6929
X7.6693Y-1.2992
X7.6693Y-1.3976
X7.6693Y-1.4961
X7.6772Y0.2953
X7.6866Y-0.0177
X7.7362Y-2.0472
X7.7441Y-0.6378
X7.7441Y-0.8701
X7.748Y-0.9699
X7.7559Y1.3583
X7.7559Y1.2008
X7.7703Y-0.6614
X7.7717Y-1.0699
X7.7955Y-0.6803
X7.8071Y-1.6299
X7.8543Y-2.0472
X7.8622Y-0.9528
X7.8701Y0.9449
X7.874Y1.3583
X7.8937Y-0.0591
X7.8937Y-0.2953
X7.8962Y0.6654
X7.9252Y-0.6929
X7.9252Y-0.8701
X7.9252Y-1.122
X7.9252Y-1.378
X7.9685Y-0.7205
X7.9724Y0.2953
X7.9724Y-1.3504
X7.9724Y-2.0472
X7.9921Y1.3583
X7.9921Y1.2008
X7.9921Y0.7677
X8.0787Y-1.3976
X8.0906Y-2.0472
X8.1102Y1.3583
X8.1102Y-0.7087
X8.1102Y-0.9685
X8.1102Y-1.1581
X8.1102Y-1.6929
X8.1142Y-1.5984
X8.122Y1.122
X8.122Y-0.0492
X8.1299Y0.874
X8.1299Y-1.0669
X8.1299Y-1.2372
X8.1339Y-0.7323
X8.1378Y-1.2683
X8.1378Y-1.5512
X8.154Y-0.7565
X8.1575Y-1.2953
X8.1575Y-1.5002
X8.1694Y-0.859
X8.1772Y-0.2913
X8.1811Y-0.0787
X8.185Y-1.4252
X8.1852Y-0.9199
X8.2047Y0.4178
X8.2047Y-1.0199
X8.2087Y-2.0472
X8.2283Y1.3583
X8.2283Y1.2008
X8.2283Y0.7677
X8.2283Y0.2953
X8.2835Y-1.4764
X8.2874Y-0.0256
X8.3268Y-1.3071
X8.3268Y-2.0472
X8.3386Y-0.9055
X8.3465Y1.3583
X8.3858Y-0.2953
X8.4449Y-2.0472
X8.4646Y1.3583
X8.4646Y1.2008
X8.4646Y0.5315
X8.4685Y0.2716
X8.5265Y0.2963
X8.5394Y-0.7913
X8.5472Y-0.8898
X8.5472Y-0.9882
X8.5472Y-1.0866
X8.5472Y-1.185
X8.563Y-0.2953
X8.563Y-1.5748
X8.563Y-2.0472
X8.5709Y-0.7913
X8.5709Y-1.2756
X8.5827Y1.3583
X8.5945Y-0.8898
X8.5945Y-1.3268
X8.6181Y-0.9882
X8.6181Y-1.374
X8.626Y0.2992
X8.6417Y-1.2598
X8.6457Y0.9685
X8.6457Y0.7717
X8.6473Y0.5732
X8.6476Y0.6642
X8.6496Y0.5157
X8.6772Y-1.0866
X8.6772Y-1.4252
X8.6811Y-2.0472
X8.7008Y1.3583
X8.7008Y1.2008
X8.7008Y-1.3583
X8.7362Y-1.185
X8.7362Y-1.4764
X8.7618Y0.9468
X8.7795Y-0.8071
X8.7795Y-0.9055
X8.7795Y-1.0039
X8.7795Y-1.1024
X8.7795Y-1.2008
X8.7992Y0.2953
X8.7992Y-0.0591
X8.7992Y-0.2953
X8.7992Y-0.6496
X8.7992Y-1.3386
X8.7992Y-1.5748
X8.7992Y-2.0472
X8.8189Y1.3583
X9.0551Y1.122
X9.0551Y1.0039
X9.0551Y0.8858
X9.0551Y0.7677
X9.0551Y0.6496
X9.0551Y0.5315
X9.0551Y0.4134
X9.0551Y0.2953
X9.0551Y-0.0591
X9.0551Y-0.1772
X9.0551Y-0.2953
X9.0551Y-0.6496
X9.0551Y-0.7677
X9.0551Y-0.8858
X9.0551Y-1.0039
X9.0551Y-1.122
X9.0551Y-1.2402
X9.0551Y-1.3583
X9.0551Y-1.4764
X9.0551Y-1.5945
X9.0551Y-1.7126
X9.0551Y-1.8307
T2
X7.2299Y0.0335
X7.2299Y-0.065
X7.2299Y-0.1634
X7.2441Y-0.7933
X7.2441Y-0.8917
X7.2441Y-0.9902
X7.2441Y-1.0886
X7.2441Y-1.187
X7.2441Y-1.2854
X7.2441Y-1.3839
X7.2441Y-1.4823
X7.2441Y-1.5807
X7.2441Y-1.6791
X8.498Y1.0492
X8.5965Y1.0492
X8.6949Y1.0492
X8.7933Y1.0492
X8.9646Y-0.7972
X8.9646Y-0.8957
X8.9646Y-0.9941
X8.9646Y-1.0925
X8.9646Y-1.1909
X8.9646Y-1.2894
X8.9646Y-1.3878
X8.9646Y-1.4862
X8.9646Y-1.5846
X8.9646Y-1.6831
T3
X7.5756Y0.2049
X7.5756Y-0.3937
X7.6756Y0.2049
X7.6756Y-0.3937
X7.7756Y0.2049
X7.7756Y-0.3937
X7.8756Y0.2049
X7.8756Y-0.3937
X7.9756Y0.2049
X7.9756Y-0.3937
X8.0756Y0.2049
X8.0756Y-0.3937
X8.1756Y0.2049
X8.1756Y-0.3937
X8.2756Y0.2049
X8.2756Y-0.3937
X8.3756Y0.2049
X8.3756Y-0.3937
X8.4756Y0.2049
X8.4756Y-0.3937
X8.5756Y0.2049
X8.5756Y-0.3937
X8.6756Y0.2049
X8.6756Y-0.3937
X8.7756Y0.2049
X8.7756Y-0.3937
X8.8756Y0.2049
X8.8756Y-0.3937
X8.9756Y0.2049
X8.9756Y-0.3937
T4
X7.3543Y0.9055
X7.3543Y0.8071
X7.9764Y0.9449
X8.0748Y0.9449
X8.1732Y0.9449
X8.2717Y0.9449
T5
X7.2313Y1.2829
X7.2313Y-1.972
X8.9812Y1.2829
X8.9812Y-1.972
M30
