%TF.GenerationSoftware,KiCad,Pcbnew,9.0.0*%
%TF.CreationDate,2025-05-01T21:30:10-04:00*%
%TF.ProjectId,StarterController_Nano,53746172-7465-4724-936f-6e74726f6c6c,rev?*%
%TF.SameCoordinates,Original*%
%TF.FileFunction,Copper,L4,Bot*%
%TF.FilePolarity,Positive*%
%FSLAX46Y46*%
G04 Gerber Fmt 4.6, Leading zero omitted, Abs format (unit mm)*
G04 Created by KiCad (PCBNEW 9.0.0) date 2025-05-01 21:30:10*
%MOMM*%
%LPD*%
G01*
G04 APERTURE LIST*
G04 Aperture macros list*
%AMRoundRect*
0 Rectangle with rounded corners*
0 $1 Rounding radius*
0 $2 $3 $4 $5 $6 $7 $8 $9 X,Y pos of 4 corners*
0 Add a 4 corners polygon primitive as box body*
4,1,4,$2,$3,$4,$5,$6,$7,$8,$9,$2,$3,0*
0 Add four circle primitives for the rounded corners*
1,1,$1+$1,$2,$3*
1,1,$1+$1,$4,$5*
1,1,$1+$1,$6,$7*
1,1,$1+$1,$8,$9*
0 Add four rect primitives between the rounded corners*
20,1,$1+$1,$2,$3,$4,$5,0*
20,1,$1+$1,$4,$5,$6,$7,0*
20,1,$1+$1,$6,$7,$8,$9,0*
20,1,$1+$1,$8,$9,$2,$3,0*%
%AMFreePoly0*
4,1,22,0.945671,0.830970,1.026777,0.776777,1.080970,0.695671,1.100000,0.600000,1.100000,-0.600000,1.080970,-0.695671,1.026777,-0.776777,0.945671,-0.830970,0.850000,-0.850000,-0.450000,-0.850000,-0.545671,-0.830970,-0.626777,-0.776777,-1.026777,-0.376777,-1.080970,-0.295671,-1.100000,-0.200000,-1.100000,0.600000,-1.080970,0.695671,-1.026777,0.776777,-0.945671,0.830970,-0.850000,0.850000,
0.850000,0.850000,0.945671,0.830970,0.945671,0.830970,$1*%
G04 Aperture macros list end*
%TA.AperFunction,ComponentPad*%
%ADD10RoundRect,0.250000X-0.725000X0.600000X-0.725000X-0.600000X0.725000X-0.600000X0.725000X0.600000X0*%
%TD*%
%TA.AperFunction,ComponentPad*%
%ADD11O,1.950000X1.700000*%
%TD*%
%TA.AperFunction,ComponentPad*%
%ADD12RoundRect,0.250000X0.725000X-0.600000X0.725000X0.600000X-0.725000X0.600000X-0.725000X-0.600000X0*%
%TD*%
%TA.AperFunction,ComponentPad*%
%ADD13R,1.700000X1.700000*%
%TD*%
%TA.AperFunction,ComponentPad*%
%ADD14O,1.700000X1.700000*%
%TD*%
%TA.AperFunction,ComponentPad*%
%ADD15RoundRect,0.250000X-0.600000X-0.725000X0.600000X-0.725000X0.600000X0.725000X-0.600000X0.725000X0*%
%TD*%
%TA.AperFunction,ComponentPad*%
%ADD16O,1.700000X1.950000*%
%TD*%
%TA.AperFunction,ComponentPad*%
%ADD17C,5.000000*%
%TD*%
%TA.AperFunction,ComponentPad*%
%ADD18RoundRect,0.250000X0.750000X-0.600000X0.750000X0.600000X-0.750000X0.600000X-0.750000X-0.600000X0*%
%TD*%
%TA.AperFunction,ComponentPad*%
%ADD19O,2.000000X1.700000*%
%TD*%
%TA.AperFunction,ComponentPad*%
%ADD20FreePoly0,90.000000*%
%TD*%
%TA.AperFunction,ComponentPad*%
%ADD21O,1.700000X2.200000*%
%TD*%
%TA.AperFunction,ComponentPad*%
%ADD22RoundRect,0.250000X-0.750000X0.600000X-0.750000X-0.600000X0.750000X-0.600000X0.750000X0.600000X0*%
%TD*%
%TA.AperFunction,ViaPad*%
%ADD23C,0.600000*%
%TD*%
%TA.AperFunction,Conductor*%
%ADD24C,0.250000*%
%TD*%
%TA.AperFunction,Conductor*%
%ADD25C,0.508000*%
%TD*%
G04 APERTURE END LIST*
D10*
%TO.P,J1,1,Pin_1*%
%TO.N,+3.3V*%
X97800000Y-78400000D03*
D11*
%TO.P,J1,2,Pin_2*%
%TO.N,GND*%
X97800000Y-80900000D03*
%TO.P,J1,3,Pin_3*%
%TO.N,/D8*%
X97800000Y-83400000D03*
%TO.P,J1,4,Pin_4*%
%TO.N,/D13{slash}SCK*%
X97800000Y-85900000D03*
%TO.P,J1,5,Pin_5*%
%TO.N,/\u002AD11{slash}MOSI*%
X97800000Y-88400000D03*
%TO.P,J1,6,Pin_6*%
%TO.N,/D12{slash}MISO*%
X97800000Y-90900000D03*
%TO.P,J1,7,Pin_7*%
%TO.N,/\u002AD9*%
X97800000Y-93400000D03*
%TO.P,J1,8,Pin_8*%
%TO.N,/\u002AD10{slash}SS*%
X97800000Y-95900000D03*
%TD*%
D10*
%TO.P,J4,1,Pin_1*%
%TO.N,+12V*%
X97800000Y-52100000D03*
D11*
%TO.P,J4,2,Pin_2*%
%TO.N,/Light_Control/Light_B_Right*%
X97800000Y-54600000D03*
%TO.P,J4,3,Pin_3*%
%TO.N,/Light_Control/Light_Y3_Right*%
X97800000Y-57100000D03*
%TO.P,J4,4,Pin_4*%
%TO.N,/Light_Control/Light_Y2_Right*%
X97800000Y-59600000D03*
%TO.P,J4,5,Pin_5*%
%TO.N,/Light_Control/Light_Y1_Right*%
X97800000Y-62100000D03*
%TO.P,J4,6,Pin_6*%
%TO.N,/Light_Control/Light_G_Right*%
X97800000Y-64600000D03*
%TO.P,J4,7,Pin_7*%
%TO.N,/Light_Control/Light_R_Right*%
X97800000Y-67100000D03*
%TD*%
D12*
%TO.P,J3,1,Pin_1*%
%TO.N,+12V*%
X141649840Y-67100000D03*
D11*
%TO.P,J3,2,Pin_2*%
%TO.N,/Light_Control/Light_B_Left*%
X141649840Y-64600000D03*
%TO.P,J3,3,Pin_3*%
%TO.N,/Light_Control/Light_Y3_Left*%
X141649840Y-62100000D03*
%TO.P,J3,4,Pin_4*%
%TO.N,/Light_Control/Light_Y2_Left*%
X141649840Y-59600000D03*
%TO.P,J3,5,Pin_5*%
%TO.N,/Light_Control/Light_Y1_Left*%
X141649840Y-57100000D03*
%TO.P,J3,6,Pin_6*%
%TO.N,/Light_Control/Light_G_Left*%
X141649840Y-54600000D03*
%TO.P,J3,7,Pin_7*%
%TO.N,/Light_Control/Light_R_Left*%
X141649840Y-52100000D03*
%TD*%
D13*
%TO.P,J13,1,Pin_1*%
%TO.N,/D12{slash}MISO*%
X103710000Y-83500000D03*
D14*
%TO.P,J13,2,Pin_2*%
%TO.N,/\u002AD11{slash}MOSI*%
X106250000Y-83500000D03*
%TO.P,J13,3,Pin_3*%
%TO.N,/\u002AD10{slash}SS*%
X108790000Y-83500000D03*
%TO.P,J13,4,Pin_4*%
%TO.N,/\u002AD9*%
X111330000Y-83500000D03*
%TO.P,J13,5,Pin_5*%
%TO.N,/D8*%
X113870000Y-83500000D03*
%TO.P,J13,6,Pin_6*%
%TO.N,/D7*%
X116410000Y-83500000D03*
%TO.P,J13,7,Pin_7*%
%TO.N,/\u002AD6*%
X118950000Y-83500000D03*
%TO.P,J13,8,Pin_8*%
%TO.N,/\u002AD5*%
X121490000Y-83500000D03*
%TO.P,J13,9,Pin_9*%
%TO.N,/D4*%
X124030000Y-83500000D03*
%TO.P,J13,10,Pin_10*%
%TO.N,/\u002AD3*%
X126570000Y-83500000D03*
%TO.P,J13,11,Pin_11*%
%TO.N,/D2*%
X129110000Y-83500000D03*
%TO.P,J13,12,Pin_12*%
%TO.N,GND*%
X131650000Y-83500000D03*
%TO.P,J13,13,Pin_13*%
%TO.N,/~{RESET}*%
X134190000Y-83500000D03*
%TO.P,J13,14,Pin_14*%
%TO.N,/D0{slash}RX*%
X136730000Y-83500000D03*
%TO.P,J13,15,Pin_15*%
%TO.N,/D1{slash}TX*%
X139270000Y-83500000D03*
%TD*%
D15*
%TO.P,J2,1,Pin_1*%
%TO.N,+5V*%
X113700000Y-127100000D03*
D16*
%TO.P,J2,2,Pin_2*%
%TO.N,+12V*%
X116200000Y-127100000D03*
%TO.P,J2,3,Pin_3*%
%TO.N,/Gate_Control/Gate R Rtn*%
X118700000Y-127100000D03*
%TO.P,J2,4,Pin_4*%
%TO.N,/Gate_Control/Gate L Rtn*%
X121200000Y-127100000D03*
%TO.P,J2,5,Pin_5*%
%TO.N,/Gate_Control/Gate Reset Rtn*%
X123700000Y-127100000D03*
%TD*%
D15*
%TO.P,J5,1,Pin_1*%
%TO.N,/D0{slash}RX*%
X134100000Y-78500000D03*
D16*
%TO.P,J5,2,Pin_2*%
%TO.N,/D1{slash}TX*%
X136600000Y-78500000D03*
%TO.P,J5,3,Pin_3*%
%TO.N,GND*%
X139100000Y-78500000D03*
%TD*%
D17*
%TO.P,H2,1,1*%
%TO.N,GND*%
X141949840Y-45563000D03*
%TD*%
D18*
%TO.P,J9,1,Pin_1*%
%TO.N,/Button_Debounce/TrigS_Raw*%
X140500000Y-106100000D03*
D19*
%TO.P,J9,2,Pin_2*%
%TO.N,GND*%
X140500000Y-103600000D03*
%TD*%
D20*
%TO.P,J6,1,Pin_1*%
%TO.N,GND*%
X119850000Y-60870000D03*
D21*
%TO.P,J6,2,Pin_2*%
%TO.N,/Power/+12VDC*%
X122350000Y-60870000D03*
%TD*%
D22*
%TO.P,J10,1,Pin_1*%
%TO.N,/Button_Debounce/TrigR_Raw*%
X99200000Y-112750000D03*
D19*
%TO.P,J10,2,Pin_2*%
%TO.N,GND*%
X99200000Y-115250000D03*
%TD*%
D22*
%TO.P,J7,1,Pin_1*%
%TO.N,/Button_Debounce/TrigL_Raw*%
X99200000Y-104150000D03*
D19*
%TO.P,J7,2,Pin_2*%
%TO.N,GND*%
X99200000Y-106650000D03*
%TD*%
D17*
%TO.P,H4,1,1*%
%TO.N,GND*%
X141949840Y-128240000D03*
%TD*%
%TO.P,H3,1,1*%
%TO.N,GND*%
X97500000Y-128240000D03*
%TD*%
D13*
%TO.P,J12,1,Pin_1*%
%TO.N,/D13{slash}SCK*%
X103670000Y-98705000D03*
D14*
%TO.P,J12,2,Pin_2*%
%TO.N,+3.3V*%
X106210000Y-98705000D03*
%TO.P,J12,3,Pin_3*%
%TO.N,/AREF*%
X108750000Y-98705000D03*
%TO.P,J12,4,Pin_4*%
%TO.N,/A0*%
X111290000Y-98705000D03*
%TO.P,J12,5,Pin_5*%
%TO.N,/A1*%
X113830000Y-98705000D03*
%TO.P,J12,6,Pin_6*%
%TO.N,/A2*%
X116370000Y-98705000D03*
%TO.P,J12,7,Pin_7*%
%TO.N,/A3*%
X118910000Y-98705000D03*
%TO.P,J12,8,Pin_8*%
%TO.N,/A4{slash}SDA*%
X121450000Y-98705000D03*
%TO.P,J12,9,Pin_9*%
%TO.N,/A5{slash}SCL*%
X123990000Y-98705000D03*
%TO.P,J12,10,Pin_10*%
%TO.N,/A6*%
X126530000Y-98705000D03*
%TO.P,J12,11,Pin_11*%
%TO.N,/A7*%
X129070000Y-98705000D03*
%TO.P,J12,12,Pin_12*%
%TO.N,/+5VDC*%
X131610000Y-98705000D03*
%TO.P,J12,13,Pin_13*%
%TO.N,/~{RESET}*%
X134150000Y-98705000D03*
%TO.P,J12,14,Pin_14*%
%TO.N,GND*%
X136690000Y-98705000D03*
%TO.P,J12,15,Pin_15*%
%TO.N,+12V*%
X139230000Y-98705000D03*
%TD*%
D18*
%TO.P,J8,1,Pin_1*%
%TO.N,/Button_Debounce/Mode_Raw*%
X140500000Y-114700000D03*
D19*
%TO.P,J8,2,Pin_2*%
%TO.N,GND*%
X140500000Y-112200000D03*
%TD*%
D17*
%TO.P,H1,1,1*%
%TO.N,GND*%
X97500000Y-45563000D03*
%TD*%
D23*
%TO.N,GND*%
X99800000Y-94600000D03*
X95100000Y-125200000D03*
X112800000Y-119000000D03*
X123250000Y-79000000D03*
X144600000Y-109200000D03*
X123263842Y-46532239D03*
X115750000Y-79500000D03*
X108750000Y-76500000D03*
X107200000Y-59900000D03*
X116400000Y-101000000D03*
X144600000Y-47800000D03*
X94800000Y-55200000D03*
X127400000Y-106800000D03*
X122800000Y-72600000D03*
X144600000Y-120000000D03*
X99000000Y-73750000D03*
X134100000Y-55800000D03*
X107100000Y-63400000D03*
X109000000Y-71000000D03*
X102400000Y-130800000D03*
X111600000Y-43400000D03*
X127100000Y-92800000D03*
X95000000Y-43000000D03*
X144600000Y-58600000D03*
X136300000Y-110400000D03*
X126400000Y-43000000D03*
X94800000Y-66000000D03*
X112200000Y-130800000D03*
X137000000Y-130800000D03*
X105600000Y-109300000D03*
X105800000Y-52900000D03*
X140800000Y-109200000D03*
X101800000Y-43200000D03*
X115900000Y-42900000D03*
X144600000Y-113000000D03*
X144600000Y-117000000D03*
X144600000Y-100200000D03*
X144600000Y-50800000D03*
X144600000Y-95800000D03*
X144600000Y-105000000D03*
X103700000Y-86200000D03*
X144600000Y-54400000D03*
X117900000Y-47700000D03*
X115750000Y-93250000D03*
X134100000Y-48900000D03*
X104800000Y-101400000D03*
X99800000Y-90000000D03*
X135450000Y-114350000D03*
X95100000Y-103400000D03*
X106400000Y-43000000D03*
X130900000Y-110400000D03*
X94800000Y-61200000D03*
X115750000Y-87000000D03*
X119200000Y-71200000D03*
X113800000Y-57100000D03*
X134400000Y-66200000D03*
X120900000Y-45300000D03*
X119875000Y-55200000D03*
X132000000Y-43000000D03*
X135250000Y-71750000D03*
X134100000Y-52300000D03*
X118200000Y-120800000D03*
X131200000Y-104200000D03*
X144600000Y-70400000D03*
X123200000Y-44300000D03*
X134100000Y-62900000D03*
X95000000Y-130800000D03*
X110000000Y-106600000D03*
X94800000Y-71400000D03*
X104200000Y-119800000D03*
X144600000Y-74400000D03*
X144600000Y-66600000D03*
X127100000Y-96000000D03*
X123700000Y-118600000D03*
X144600000Y-63000000D03*
X130547500Y-123652500D03*
X101600000Y-80800000D03*
X132000000Y-130800000D03*
X102500000Y-116600000D03*
X99200000Y-108200000D03*
X144600000Y-43000000D03*
X144600000Y-77800000D03*
X94800000Y-84000000D03*
X118800000Y-130800000D03*
X137250000Y-87000000D03*
X133600000Y-101000000D03*
X112400000Y-104400000D03*
X95200000Y-89700000D03*
X106800000Y-130800000D03*
X122900000Y-106300000D03*
X127600000Y-72600000D03*
X110600000Y-122500000D03*
X105600000Y-49400000D03*
X104000000Y-122800000D03*
X106200000Y-86400000D03*
X134200000Y-59400000D03*
X94800000Y-78000000D03*
X95000000Y-96900000D03*
X94800000Y-118000000D03*
X94800000Y-49400000D03*
X126500000Y-87000000D03*
X137400000Y-43000000D03*
X144600000Y-81400000D03*
X110900000Y-125600000D03*
X113800000Y-65000000D03*
X126200000Y-130800000D03*
X100800000Y-85900000D03*
X144600000Y-86200000D03*
X95100000Y-111400000D03*
X103800000Y-94300000D03*
X144600000Y-124600000D03*
X105600000Y-115400000D03*
X144400000Y-130800000D03*
X116400000Y-105600000D03*
X119750000Y-64500000D03*
X113800000Y-60600000D03*
X121000000Y-48800000D03*
X136400000Y-104700000D03*
X104000000Y-111600000D03*
X118000000Y-116400000D03*
X106000000Y-56400000D03*
X144600000Y-91200000D03*
X99800000Y-92400000D03*
X140500000Y-101500000D03*
%TO.N,+5V*%
X119000000Y-106200000D03*
X123208058Y-55391942D03*
X135800000Y-106225000D03*
X126025000Y-74475000D03*
X116200000Y-55000000D03*
X120200000Y-46200000D03*
X126600000Y-114400000D03*
X102382809Y-106200000D03*
X116400000Y-59600000D03*
X104350000Y-108950000D03*
X132800000Y-114800000D03*
X106200000Y-93800000D03*
X138000000Y-108800000D03*
X138600000Y-93800000D03*
X108600000Y-115800000D03*
%TO.N,/A2*%
X128000000Y-118800000D03*
%TO.N,/A1*%
X114800000Y-114200000D03*
%TO.N,/A0*%
X108800000Y-121800000D03*
%TO.N,/\u002AD11{slash}MOSI*%
X101700000Y-88400000D03*
X103500000Y-87800000D03*
%TO.N,+12V*%
X130100000Y-69300000D03*
X106500000Y-68212500D03*
X126725000Y-69300000D03*
X134600000Y-125800000D03*
X138600000Y-70400000D03*
%TO.N,/\u002AD3*%
X118600000Y-55000000D03*
%TO.N,/\u002AD10{slash}SS*%
X108800000Y-86500000D03*
%TO.N,/D4*%
X117400000Y-55000000D03*
%TO.N,/D2*%
X121200000Y-55000000D03*
%TO.N,/Light_Control/Yellow 1*%
X122792500Y-53207500D03*
X120500000Y-58200000D03*
%TO.N,/Light_Control/Yellow 2*%
X121845204Y-53270911D03*
X115200000Y-55200000D03*
%TO.N,/Light_Control/Green L*%
X126200000Y-49600000D03*
X115600000Y-45500000D03*
%TO.N,/Light_Control/Blue L*%
X124800000Y-52300000D03*
X125900000Y-63800000D03*
%TO.N,/Light_Control/Green R*%
X113100000Y-62500000D03*
X116225000Y-48800000D03*
%TO.N,/Light_Control/Red R*%
X116771981Y-50525000D03*
X112625000Y-45600000D03*
X123200000Y-45400000D03*
X111000000Y-65500000D03*
%TO.N,/Light_Control/Blue R*%
X113400000Y-54800000D03*
X113400000Y-47500000D03*
%TO.N,/Light_Control/Go*%
X114048192Y-53176808D03*
X114700000Y-46361500D03*
%TD*%
D24*
%TO.N,GND*%
X105600000Y-102200000D02*
X104800000Y-101400000D01*
X105600000Y-109300000D02*
X105600000Y-102200000D01*
%TO.N,/~{RESET}*%
X134150000Y-98705000D02*
X134150000Y-83540000D01*
X134150000Y-83540000D02*
X134190000Y-83500000D01*
%TO.N,/A2*%
X128000000Y-110335000D02*
X116370000Y-98705000D01*
X128000000Y-118800000D02*
X128000000Y-110335000D01*
%TO.N,/A1*%
X114200000Y-114200000D02*
X113830000Y-113830000D01*
X114800000Y-114200000D02*
X114200000Y-114200000D01*
X113830000Y-113830000D02*
X113830000Y-98705000D01*
%TO.N,/A0*%
X111290000Y-119310000D02*
X111290000Y-98705000D01*
X108800000Y-121800000D02*
X111290000Y-119310000D01*
%TO.N,/D13{slash}SCK*%
X103670000Y-98705000D02*
X101000000Y-96035000D01*
X101000000Y-89100000D02*
X97800000Y-85900000D01*
X101000000Y-96035000D02*
X101000000Y-89100000D01*
%TO.N,/\u002AD11{slash}MOSI*%
X101700000Y-88400000D02*
X102900000Y-88400000D01*
X102900000Y-88400000D02*
X103500000Y-87800000D01*
D25*
%TO.N,+12V*%
X143300000Y-75100000D02*
X138600000Y-70400000D01*
X103600000Y-65312500D02*
X103600000Y-57900000D01*
X139695000Y-98705000D02*
X143300000Y-95100000D01*
X139230000Y-99670000D02*
X139230000Y-98705000D01*
X139230000Y-98705000D02*
X139695000Y-98705000D01*
X143300000Y-95100000D02*
X143300000Y-75100000D01*
X134600000Y-104300000D02*
X139230000Y-99670000D01*
X130100000Y-69300000D02*
X126725000Y-69300000D01*
X106500000Y-68212500D02*
X103600000Y-65312500D01*
X134600000Y-125800000D02*
X134600000Y-104300000D01*
X103600000Y-57900000D02*
X97800000Y-52100000D01*
D24*
%TO.N,/\u002AD3*%
X125700000Y-83500000D02*
X118200000Y-76000000D01*
X118200000Y-76000000D02*
X118200000Y-55400000D01*
X126570000Y-83500000D02*
X125700000Y-83500000D01*
X118200000Y-55400000D02*
X118600000Y-55000000D01*
%TO.N,/\u002AD10{slash}SS*%
X108800000Y-86200000D02*
X108790000Y-86190000D01*
X108790000Y-86190000D02*
X108790000Y-83500000D01*
X108800000Y-86500000D02*
X108800000Y-86200000D01*
%TO.N,/D4*%
X117400000Y-76200000D02*
X117400000Y-55000000D01*
X124030000Y-83500000D02*
X124030000Y-82830000D01*
X124030000Y-82830000D02*
X117400000Y-76200000D01*
%TO.N,/D2*%
X129110000Y-83500000D02*
X124600000Y-78990000D01*
X124600000Y-78990000D02*
X124600000Y-58400000D01*
X124600000Y-58400000D02*
X121200000Y-55000000D01*
%TO.N,/Light_Control/Yellow 1*%
X121388702Y-53926000D02*
X120500000Y-54814702D01*
X122074000Y-53926000D02*
X121388702Y-53926000D01*
X120500000Y-54814702D02*
X120500000Y-58200000D01*
X122792500Y-53207500D02*
X122074000Y-53926000D01*
%TO.N,/Light_Control/Yellow 2*%
X115200000Y-55114702D02*
X115200000Y-55200000D01*
X121816115Y-53300000D02*
X117014702Y-53300000D01*
X121845204Y-53270911D02*
X121816115Y-53300000D01*
X117014702Y-53300000D02*
X115200000Y-55114702D01*
%TO.N,/Light_Control/Green L*%
X126100000Y-44900000D02*
X126100000Y-49500000D01*
X117900000Y-45500000D02*
X119726000Y-43674000D01*
X126100000Y-49500000D02*
X126200000Y-49600000D01*
X125500000Y-44300000D02*
X126100000Y-44900000D01*
X124874000Y-43674000D02*
X125500000Y-44300000D01*
X115600000Y-45500000D02*
X117900000Y-45500000D01*
X119726000Y-43674000D02*
X124874000Y-43674000D01*
%TO.N,/Light_Control/Blue L*%
X125900000Y-53400000D02*
X125900000Y-63800000D01*
X124800000Y-52300000D02*
X125900000Y-53400000D01*
%TO.N,/Light_Control/Green R*%
X113100000Y-56200000D02*
X113100000Y-62500000D01*
X116200000Y-49900000D02*
X115500000Y-50600000D01*
X116200000Y-48825000D02*
X116200000Y-49900000D01*
X115500000Y-50600000D02*
X115500000Y-53800000D01*
X115500000Y-53800000D02*
X113100000Y-56200000D01*
X116225000Y-48800000D02*
X116200000Y-48825000D01*
%TO.N,/Light_Control/Red R*%
X111000000Y-49274102D02*
X111000000Y-65500000D01*
X112625000Y-45600000D02*
X112625000Y-47649102D01*
X116771981Y-50525000D02*
X118075000Y-50525000D01*
X112625000Y-47649102D02*
X111000000Y-49274102D01*
X118075000Y-50525000D02*
X123200000Y-45400000D01*
%TO.N,/Light_Control/Blue R*%
X113400000Y-54800000D02*
X113400000Y-47500000D01*
%TO.N,/Light_Control/Go*%
X114700000Y-46361500D02*
X114138500Y-46361500D01*
X114026000Y-46474000D02*
X114026000Y-47759298D01*
X114000000Y-47785298D02*
X114000000Y-52900000D01*
X114000000Y-52900000D02*
X114048192Y-52948192D01*
X114138500Y-46361500D02*
X114026000Y-46474000D01*
X114026000Y-47759298D02*
X114000000Y-47785298D01*
X114048192Y-52948192D02*
X114048192Y-53176808D01*
%TO.N,+3.3V*%
X98400000Y-78400000D02*
X97800000Y-78400000D01*
X104886000Y-81386000D02*
X103600000Y-80100000D01*
X105005000Y-97500000D02*
X105000000Y-97500000D01*
X103600000Y-80100000D02*
X100100000Y-80100000D01*
X105000000Y-97500000D02*
X104886000Y-97386000D01*
X100100000Y-80100000D02*
X98400000Y-78400000D01*
X104886000Y-97386000D02*
X104886000Y-81386000D01*
X106210000Y-98705000D02*
X105005000Y-97500000D01*
%TD*%
%TA.AperFunction,Conductor*%
%TO.N,GND*%
G36*
X96546554Y-129054320D02*
G01*
X96685680Y-129193446D01*
X96809873Y-129283678D01*
X95561950Y-130531601D01*
X95761252Y-130690538D01*
X96046559Y-130869808D01*
X96350137Y-131016004D01*
X96642934Y-131118459D01*
X96699710Y-131159180D01*
X96725457Y-131224133D01*
X96712001Y-131292695D01*
X96663613Y-131343097D01*
X96601979Y-131359500D01*
X94499500Y-131359500D01*
X94432461Y-131339815D01*
X94386706Y-131287011D01*
X94375500Y-131235500D01*
X94375500Y-129123732D01*
X94395185Y-129056693D01*
X94447989Y-129010938D01*
X94517147Y-129000994D01*
X94580703Y-129030019D01*
X94616541Y-129082777D01*
X94723995Y-129389862D01*
X94870191Y-129693440D01*
X95049461Y-129978747D01*
X95208397Y-130178048D01*
X96456320Y-128930125D01*
X96546554Y-129054320D01*
G37*
%TD.AperFunction*%
%TA.AperFunction,Conductor*%
G36*
X131900000Y-84827230D02*
G01*
X131966126Y-84816757D01*
X131966129Y-84816757D01*
X132168217Y-84751095D01*
X132357557Y-84654620D01*
X132529459Y-84529727D01*
X132529464Y-84529723D01*
X132679723Y-84379464D01*
X132679727Y-84379459D01*
X132804619Y-84207560D01*
X132804738Y-84207327D01*
X132804808Y-84207252D01*
X132807168Y-84203402D01*
X132807976Y-84203897D01*
X132852707Y-84156526D01*
X132920526Y-84139723D01*
X132986663Y-84162254D01*
X133025712Y-84207311D01*
X133028105Y-84212008D01*
X133070002Y-84269674D01*
X133153794Y-84385004D01*
X133304996Y-84536206D01*
X133461620Y-84650000D01*
X133465385Y-84652735D01*
X133508051Y-84708065D01*
X133516500Y-84753053D01*
X133516500Y-97427116D01*
X133496815Y-97494155D01*
X133448796Y-97537600D01*
X133437993Y-97543104D01*
X133264993Y-97668796D01*
X133113796Y-97819993D01*
X132988105Y-97992991D01*
X132985727Y-97996873D01*
X132933914Y-98043748D01*
X132864984Y-98055169D01*
X132800822Y-98027512D01*
X132774273Y-97996873D01*
X132771894Y-97992991D01*
X132692936Y-97884315D01*
X132646206Y-97819996D01*
X132495004Y-97668794D01*
X132322009Y-97543106D01*
X132311203Y-97537600D01*
X132131483Y-97446027D01*
X132131480Y-97446026D01*
X131928117Y-97379951D01*
X131760777Y-97353447D01*
X131716916Y-97346500D01*
X131503084Y-97346500D01*
X131459223Y-97353447D01*
X131291882Y-97379951D01*
X131088519Y-97446026D01*
X131088516Y-97446027D01*
X130897990Y-97543106D01*
X130724993Y-97668796D01*
X130573796Y-97819993D01*
X130448105Y-97992991D01*
X130445727Y-97996873D01*
X130393914Y-98043748D01*
X130324984Y-98055169D01*
X130260822Y-98027512D01*
X130234273Y-97996873D01*
X130231894Y-97992991D01*
X130152936Y-97884315D01*
X130106206Y-97819996D01*
X129955004Y-97668794D01*
X129782009Y-97543106D01*
X129771203Y-97537600D01*
X129591483Y-97446027D01*
X129591480Y-97446026D01*
X129388117Y-97379951D01*
X129220777Y-97353447D01*
X129176916Y-97346500D01*
X128963084Y-97346500D01*
X128919223Y-97353447D01*
X128751882Y-97379951D01*
X128548519Y-97446026D01*
X128548516Y-97446027D01*
X128357990Y-97543106D01*
X128184993Y-97668796D01*
X128033796Y-97819993D01*
X127908105Y-97992991D01*
X127905727Y-97996873D01*
X127853914Y-98043748D01*
X127784984Y-98055169D01*
X127720822Y-98027512D01*
X127694273Y-97996873D01*
X127691894Y-97992991D01*
X127612936Y-97884315D01*
X127566206Y-97819996D01*
X127415004Y-97668794D01*
X127242009Y-97543106D01*
X127231203Y-97537600D01*
X127051483Y-97446027D01*
X127051480Y-97446026D01*
X126848117Y-97379951D01*
X126680777Y-97353447D01*
X126636916Y-97346500D01*
X126423084Y-97346500D01*
X126379223Y-97353447D01*
X126211882Y-97379951D01*
X126008519Y-97446026D01*
X126008516Y-97446027D01*
X125817990Y-97543106D01*
X125644993Y-97668796D01*
X125493796Y-97819993D01*
X125368105Y-97992991D01*
X125365727Y-97996873D01*
X125313914Y-98043748D01*
X125244984Y-98055169D01*
X125180822Y-98027512D01*
X125154273Y-97996873D01*
X125151894Y-97992991D01*
X125072936Y-97884315D01*
X125026206Y-97819996D01*
X124875004Y-97668794D01*
X124702009Y-97543106D01*
X124691203Y-97537600D01*
X124511483Y-97446027D01*
X124511480Y-97446026D01*
X124308117Y-97379951D01*
X124140777Y-97353447D01*
X124096916Y-97346500D01*
X123883084Y-97346500D01*
X123839223Y-97353447D01*
X123671882Y-97379951D01*
X123468519Y-97446026D01*
X123468516Y-97446027D01*
X123277990Y-97543106D01*
X123104993Y-97668796D01*
X122953796Y-97819993D01*
X122828105Y-97992991D01*
X122825727Y-97996873D01*
X122773914Y-98043748D01*
X122704984Y-98055169D01*
X122640822Y-98027512D01*
X122614273Y-97996873D01*
X122611894Y-97992991D01*
X122532936Y-97884315D01*
X122486206Y-97819996D01*
X122335004Y-97668794D01*
X122162009Y-97543106D01*
X122151203Y-97537600D01*
X121971483Y-97446027D01*
X121971480Y-97446026D01*
X121768117Y-97379951D01*
X121600777Y-97353447D01*
X121556916Y-97346500D01*
X121343084Y-97346500D01*
X121299223Y-97353447D01*
X121131882Y-97379951D01*
X120928519Y-97446026D01*
X120928516Y-97446027D01*
X120737990Y-97543106D01*
X120564993Y-97668796D01*
X120413796Y-97819993D01*
X120288105Y-97992991D01*
X120285727Y-97996873D01*
X120233914Y-98043748D01*
X120164984Y-98055169D01*
X120100822Y-98027512D01*
X120074273Y-97996873D01*
X120071894Y-97992991D01*
X119992936Y-97884315D01*
X119946206Y-97819996D01*
X119795004Y-97668794D01*
X119622009Y-97543106D01*
X119611203Y-97537600D01*
X119431483Y-97446027D01*
X119431480Y-97446026D01*
X119228117Y-97379951D01*
X119060777Y-97353447D01*
X119016916Y-97346500D01*
X118803084Y-97346500D01*
X118759223Y-97353447D01*
X118591882Y-97379951D01*
X118388519Y-97446026D01*
X118388516Y-97446027D01*
X118197990Y-97543106D01*
X118024993Y-97668796D01*
X117873796Y-97819993D01*
X117748105Y-97992991D01*
X117745727Y-97996873D01*
X117693914Y-98043748D01*
X117624984Y-98055169D01*
X117560822Y-98027512D01*
X117534273Y-97996873D01*
X117531894Y-97992991D01*
X117452936Y-97884315D01*
X117406206Y-97819996D01*
X117255004Y-97668794D01*
X117082009Y-97543106D01*
X117071203Y-97537600D01*
X116891483Y-97446027D01*
X116891480Y-97446026D01*
X116688117Y-97379951D01*
X116520777Y-97353447D01*
X116476916Y-97346500D01*
X116263084Y-97346500D01*
X116219223Y-97353447D01*
X116051882Y-97379951D01*
X115848519Y-97446026D01*
X115848516Y-97446027D01*
X115657990Y-97543106D01*
X115484993Y-97668796D01*
X115333796Y-97819993D01*
X115208105Y-97992991D01*
X115205727Y-97996873D01*
X115153914Y-98043748D01*
X115084984Y-98055169D01*
X115020822Y-98027512D01*
X114994273Y-97996873D01*
X114991894Y-97992991D01*
X114912936Y-97884315D01*
X114866206Y-97819996D01*
X114715004Y-97668794D01*
X114542009Y-97543106D01*
X114531203Y-97537600D01*
X114351483Y-97446027D01*
X114351480Y-97446026D01*
X114148117Y-97379951D01*
X113980777Y-97353447D01*
X113936916Y-97346500D01*
X113723084Y-97346500D01*
X113679223Y-97353447D01*
X113511882Y-97379951D01*
X113308519Y-97446026D01*
X113308516Y-97446027D01*
X113117990Y-97543106D01*
X112944993Y-97668796D01*
X112793796Y-97819993D01*
X112668105Y-97992991D01*
X112665727Y-97996873D01*
X112613914Y-98043748D01*
X112544984Y-98055169D01*
X112480822Y-98027512D01*
X112454273Y-97996873D01*
X112451894Y-97992991D01*
X112372936Y-97884315D01*
X112326206Y-97819996D01*
X112175004Y-97668794D01*
X112002009Y-97543106D01*
X111991203Y-97537600D01*
X111811483Y-97446027D01*
X111811480Y-97446026D01*
X111608117Y-97379951D01*
X111440777Y-97353447D01*
X111396916Y-97346500D01*
X111183084Y-97346500D01*
X111139223Y-97353447D01*
X110971882Y-97379951D01*
X110768519Y-97446026D01*
X110768516Y-97446027D01*
X110577990Y-97543106D01*
X110404993Y-97668796D01*
X110253796Y-97819993D01*
X110128105Y-97992991D01*
X110125727Y-97996873D01*
X110073914Y-98043748D01*
X110004984Y-98055169D01*
X109940822Y-98027512D01*
X109914273Y-97996873D01*
X109911894Y-97992991D01*
X109832936Y-97884315D01*
X109786206Y-97819996D01*
X109635004Y-97668794D01*
X109462009Y-97543106D01*
X109451203Y-97537600D01*
X109271483Y-97446027D01*
X109271480Y-97446026D01*
X109068117Y-97379951D01*
X108900777Y-97353447D01*
X108856916Y-97346500D01*
X108643084Y-97346500D01*
X108599223Y-97353447D01*
X108431882Y-97379951D01*
X108228519Y-97446026D01*
X108228516Y-97446027D01*
X108037990Y-97543106D01*
X107864993Y-97668796D01*
X107713796Y-97819993D01*
X107588105Y-97992991D01*
X107585727Y-97996873D01*
X107533914Y-98043748D01*
X107464984Y-98055169D01*
X107400822Y-98027512D01*
X107374273Y-97996873D01*
X107371894Y-97992991D01*
X107292936Y-97884315D01*
X107246206Y-97819996D01*
X107095004Y-97668794D01*
X106922009Y-97543106D01*
X106911203Y-97537600D01*
X106731483Y-97446027D01*
X106731480Y-97446026D01*
X106528117Y-97379951D01*
X106360777Y-97353447D01*
X106316916Y-97346500D01*
X106103084Y-97346500D01*
X106077680Y-97350523D01*
X105891883Y-97379950D01*
X105880342Y-97383700D01*
X105810500Y-97385690D01*
X105754351Y-97353447D01*
X105555819Y-97154915D01*
X105522334Y-97093592D01*
X105519500Y-97067234D01*
X105519500Y-94549666D01*
X105539185Y-94482627D01*
X105591989Y-94436872D01*
X105661147Y-94426928D01*
X105712388Y-94446562D01*
X105817032Y-94516483D01*
X105964169Y-94577430D01*
X106120365Y-94608499D01*
X106120369Y-94608500D01*
X106120370Y-94608500D01*
X106279631Y-94608500D01*
X106279632Y-94608499D01*
X106435831Y-94577430D01*
X106582968Y-94516483D01*
X106715389Y-94428003D01*
X106828003Y-94315389D01*
X106916483Y-94182968D01*
X106977430Y-94035831D01*
X107008500Y-93879630D01*
X107008500Y-93720370D01*
X106977430Y-93564169D01*
X106916483Y-93417032D01*
X106833664Y-93293084D01*
X106828004Y-93284612D01*
X106827998Y-93284605D01*
X106715394Y-93172001D01*
X106715387Y-93171995D01*
X106582969Y-93083517D01*
X106435831Y-93022570D01*
X106435823Y-93022568D01*
X106279634Y-92991500D01*
X106279630Y-92991500D01*
X106120370Y-92991500D01*
X106120365Y-92991500D01*
X105964176Y-93022568D01*
X105964168Y-93022570D01*
X105817033Y-93083515D01*
X105712390Y-93153436D01*
X105645713Y-93174313D01*
X105578333Y-93155828D01*
X105531643Y-93103849D01*
X105519500Y-93050333D01*
X105519500Y-84854822D01*
X105539185Y-84787783D01*
X105591989Y-84742028D01*
X105661147Y-84732084D01*
X105699796Y-84744338D01*
X105728512Y-84758970D01*
X105728519Y-84758973D01*
X105817189Y-84787783D01*
X105931884Y-84825049D01*
X106143084Y-84858500D01*
X106143085Y-84858500D01*
X106356915Y-84858500D01*
X106356916Y-84858500D01*
X106568116Y-84825049D01*
X106771483Y-84758972D01*
X106962009Y-84661894D01*
X107135004Y-84536206D01*
X107286206Y-84385004D01*
X107411894Y-84212009D01*
X107411896Y-84212004D01*
X107414270Y-84208132D01*
X107466080Y-84161254D01*
X107535009Y-84149829D01*
X107599173Y-84177483D01*
X107625730Y-84208132D01*
X107628103Y-84212005D01*
X107628105Y-84212008D01*
X107628106Y-84212009D01*
X107753794Y-84385004D01*
X107904996Y-84536206D01*
X108077991Y-84661894D01*
X108088794Y-84667398D01*
X108139590Y-84715371D01*
X108156500Y-84777883D01*
X108156500Y-85970189D01*
X108136815Y-86037228D01*
X108135603Y-86039079D01*
X108083516Y-86117033D01*
X108022570Y-86264168D01*
X108022568Y-86264176D01*
X107991500Y-86420365D01*
X107991500Y-86579634D01*
X108022568Y-86735823D01*
X108022570Y-86735831D01*
X108083517Y-86882969D01*
X108171995Y-87015387D01*
X108172001Y-87015394D01*
X108284605Y-87127998D01*
X108284612Y-87128004D01*
X108417030Y-87216482D01*
X108417031Y-87216482D01*
X108417032Y-87216483D01*
X108564169Y-87277430D01*
X108720365Y-87308499D01*
X108720369Y-87308500D01*
X108720370Y-87308500D01*
X108879631Y-87308500D01*
X108879632Y-87308499D01*
X109035831Y-87277430D01*
X109182968Y-87216483D01*
X109315389Y-87128003D01*
X109428003Y-87015389D01*
X109516483Y-86882968D01*
X109577430Y-86735831D01*
X109608500Y-86579630D01*
X109608500Y-86420370D01*
X109577430Y-86264169D01*
X109546956Y-86190600D01*
X109516484Y-86117033D01*
X109444397Y-86009147D01*
X109423520Y-85942470D01*
X109423500Y-85940257D01*
X109423500Y-84777883D01*
X109443185Y-84710844D01*
X109491204Y-84667398D01*
X109502009Y-84661894D01*
X109675004Y-84536206D01*
X109826206Y-84385004D01*
X109951894Y-84212009D01*
X109951896Y-84212004D01*
X109954270Y-84208132D01*
X110006080Y-84161254D01*
X110075009Y-84149829D01*
X110139173Y-84177483D01*
X110165730Y-84208132D01*
X110168103Y-84212005D01*
X110168105Y-84212008D01*
X110168106Y-84212009D01*
X110293794Y-84385004D01*
X110444996Y-84536206D01*
X110617991Y-84661894D01*
X110682942Y-84694988D01*
X110808516Y-84758972D01*
X110808519Y-84758973D01*
X110897189Y-84787783D01*
X111011884Y-84825049D01*
X111223084Y-84858500D01*
X111223085Y-84858500D01*
X111436915Y-84858500D01*
X111436916Y-84858500D01*
X111648116Y-84825049D01*
X111851483Y-84758972D01*
X112042009Y-84661894D01*
X112215004Y-84536206D01*
X112366206Y-84385004D01*
X112491894Y-84212009D01*
X112491896Y-84212004D01*
X112494270Y-84208132D01*
X112546080Y-84161254D01*
X112615009Y-84149829D01*
X112679173Y-84177483D01*
X112705730Y-84208132D01*
X112708103Y-84212005D01*
X112708105Y-84212008D01*
X112708106Y-84212009D01*
X112833794Y-84385004D01*
X112984996Y-84536206D01*
X113157991Y-84661894D01*
X113222942Y-84694988D01*
X113348516Y-84758972D01*
X113348519Y-84758973D01*
X113437189Y-84787783D01*
X113551884Y-84825049D01*
X113763084Y-84858500D01*
X113763085Y-84858500D01*
X113976915Y-84858500D01*
X113976916Y-84858500D01*
X114188116Y-84825049D01*
X114391483Y-84758972D01*
X114582009Y-84661894D01*
X114755004Y-84536206D01*
X114906206Y-84385004D01*
X115031894Y-84212009D01*
X115031896Y-84212004D01*
X115034270Y-84208132D01*
X115086080Y-84161254D01*
X115155009Y-84149829D01*
X115219173Y-84177483D01*
X115245730Y-84208132D01*
X115248103Y-84212005D01*
X115248105Y-84212008D01*
X115248106Y-84212009D01*
X115373794Y-84385004D01*
X115524996Y-84536206D01*
X115697991Y-84661894D01*
X115762942Y-84694988D01*
X115888516Y-84758972D01*
X115888519Y-84758973D01*
X115977189Y-84787783D01*
X116091884Y-84825049D01*
X116303084Y-84858500D01*
X116303085Y-84858500D01*
X116516915Y-84858500D01*
X116516916Y-84858500D01*
X116728116Y-84825049D01*
X116931483Y-84758972D01*
X117122009Y-84661894D01*
X117295004Y-84536206D01*
X117446206Y-84385004D01*
X117571894Y-84212009D01*
X117571896Y-84212004D01*
X117574270Y-84208132D01*
X117626080Y-84161254D01*
X117695009Y-84149829D01*
X117759173Y-84177483D01*
X117785730Y-84208132D01*
X117788103Y-84212005D01*
X117788105Y-84212008D01*
X117788106Y-84212009D01*
X117913794Y-84385004D01*
X118064996Y-84536206D01*
X118237991Y-84661894D01*
X118302942Y-84694988D01*
X118428516Y-84758972D01*
X118428519Y-84758973D01*
X118517189Y-84787783D01*
X118631884Y-84825049D01*
X118843084Y-84858500D01*
X118843085Y-84858500D01*
X119056915Y-84858500D01*
X119056916Y-84858500D01*
X119268116Y-84825049D01*
X119471483Y-84758972D01*
X119662009Y-84661894D01*
X119835004Y-84536206D01*
X119986206Y-84385004D01*
X120111894Y-84212009D01*
X120111896Y-84212004D01*
X120114270Y-84208132D01*
X120166080Y-84161254D01*
X120235009Y-84149829D01*
X120299173Y-84177483D01*
X120325730Y-84208132D01*
X120328103Y-84212005D01*
X120328105Y-84212008D01*
X120328106Y-84212009D01*
X120453794Y-84385004D01*
X120604996Y-84536206D01*
X120777991Y-84661894D01*
X120842942Y-84694988D01*
X120968516Y-84758972D01*
X120968519Y-84758973D01*
X121057189Y-84787783D01*
X121171884Y-84825049D01*
X121383084Y-84858500D01*
X121383085Y-84858500D01*
X121596915Y-84858500D01*
X121596916Y-84858500D01*
X121808116Y-84825049D01*
X122011483Y-84758972D01*
X122202009Y-84661894D01*
X122375004Y-84536206D01*
X122526206Y-84385004D01*
X122651894Y-84212009D01*
X122651896Y-84212004D01*
X122654270Y-84208132D01*
X122706080Y-84161254D01*
X122775009Y-84149829D01*
X122839173Y-84177483D01*
X122865730Y-84208132D01*
X122868103Y-84212005D01*
X122868105Y-84212008D01*
X122868106Y-84212009D01*
X122993794Y-84385004D01*
X123144996Y-84536206D01*
X123317991Y-84661894D01*
X123382942Y-84694988D01*
X123508516Y-84758972D01*
X123508519Y-84758973D01*
X123597189Y-84787783D01*
X123711884Y-84825049D01*
X123923084Y-84858500D01*
X123923085Y-84858500D01*
X124136915Y-84858500D01*
X124136916Y-84858500D01*
X124348116Y-84825049D01*
X124551483Y-84758972D01*
X124742009Y-84661894D01*
X124915004Y-84536206D01*
X125066206Y-84385004D01*
X125191894Y-84212009D01*
X125191896Y-84212004D01*
X125194270Y-84208132D01*
X125246080Y-84161254D01*
X125315009Y-84149829D01*
X125379173Y-84177483D01*
X125405730Y-84208132D01*
X125408103Y-84212005D01*
X125408105Y-84212008D01*
X125408106Y-84212009D01*
X125533794Y-84385004D01*
X125684996Y-84536206D01*
X125857991Y-84661894D01*
X125922942Y-84694988D01*
X126048516Y-84758972D01*
X126048519Y-84758973D01*
X126137189Y-84787783D01*
X126251884Y-84825049D01*
X126463084Y-84858500D01*
X126463085Y-84858500D01*
X126676915Y-84858500D01*
X126676916Y-84858500D01*
X126888116Y-84825049D01*
X127091483Y-84758972D01*
X127282009Y-84661894D01*
X127455004Y-84536206D01*
X127606206Y-84385004D01*
X127731894Y-84212009D01*
X127731896Y-84212004D01*
X127734270Y-84208132D01*
X127786080Y-84161254D01*
X127855009Y-84149829D01*
X127919173Y-84177483D01*
X127945730Y-84208132D01*
X127948103Y-84212005D01*
X127948105Y-84212008D01*
X127948106Y-84212009D01*
X128073794Y-84385004D01*
X128224996Y-84536206D01*
X128397991Y-84661894D01*
X128462942Y-84694988D01*
X128588516Y-84758972D01*
X128588519Y-84758973D01*
X128677189Y-84787783D01*
X128791884Y-84825049D01*
X129003084Y-84858500D01*
X129003085Y-84858500D01*
X129216915Y-84858500D01*
X129216916Y-84858500D01*
X129428116Y-84825049D01*
X129631483Y-84758972D01*
X129822009Y-84661894D01*
X129995004Y-84536206D01*
X130146206Y-84385004D01*
X130271894Y-84212009D01*
X130274283Y-84207319D01*
X130322254Y-84156522D01*
X130390074Y-84139724D01*
X130456210Y-84162258D01*
X130492201Y-84203788D01*
X130492832Y-84203402D01*
X130495164Y-84207207D01*
X130495251Y-84207308D01*
X130495376Y-84207554D01*
X130620272Y-84379459D01*
X130620276Y-84379464D01*
X130770535Y-84529723D01*
X130770540Y-84529727D01*
X130942442Y-84654620D01*
X131131782Y-84751095D01*
X131333871Y-84816757D01*
X131400000Y-84827231D01*
X131400000Y-83933012D01*
X131457007Y-83965925D01*
X131584174Y-84000000D01*
X131715826Y-84000000D01*
X131842993Y-83965925D01*
X131900000Y-83933012D01*
X131900000Y-84827230D01*
G37*
%TD.AperFunction*%
%TA.AperFunction,Conductor*%
G36*
X104171834Y-88374073D02*
G01*
X104227767Y-88415945D01*
X104252184Y-88481409D01*
X104252500Y-88490255D01*
X104252500Y-97222500D01*
X104232815Y-97289539D01*
X104180011Y-97335294D01*
X104128500Y-97346500D01*
X103258766Y-97346500D01*
X103191727Y-97326815D01*
X103171085Y-97310181D01*
X101669819Y-95808915D01*
X101636334Y-95747592D01*
X101633500Y-95721234D01*
X101633500Y-89332500D01*
X101653185Y-89265461D01*
X101705989Y-89219706D01*
X101757500Y-89208500D01*
X101779631Y-89208500D01*
X101779632Y-89208499D01*
X101935831Y-89177430D01*
X102082968Y-89116483D01*
X102175887Y-89054396D01*
X102242564Y-89033520D01*
X102244777Y-89033500D01*
X102962395Y-89033500D01*
X102962396Y-89033499D01*
X103084785Y-89009155D01*
X103200075Y-88961400D01*
X103303833Y-88892071D01*
X103562738Y-88633164D01*
X103624057Y-88599682D01*
X103626121Y-88599251D01*
X103735831Y-88577430D01*
X103882968Y-88516483D01*
X104015389Y-88428003D01*
X104027447Y-88415945D01*
X104040819Y-88402574D01*
X104102142Y-88369089D01*
X104171834Y-88374073D01*
G37*
%TD.AperFunction*%
%TA.AperFunction,Conductor*%
G36*
X99352802Y-80261580D02*
G01*
X99392213Y-80288118D01*
X99696163Y-80592068D01*
X99696167Y-80592071D01*
X99799918Y-80661396D01*
X99799924Y-80661399D01*
X99799925Y-80661400D01*
X99915215Y-80709155D01*
X100037601Y-80733499D01*
X100037605Y-80733500D01*
X100037606Y-80733500D01*
X100162394Y-80733500D01*
X103286234Y-80733500D01*
X103353273Y-80753185D01*
X103373915Y-80769819D01*
X104216181Y-81612085D01*
X104249666Y-81673408D01*
X104252500Y-81699766D01*
X104252500Y-82017500D01*
X104232815Y-82084539D01*
X104180011Y-82130294D01*
X104128500Y-82141500D01*
X102811345Y-82141500D01*
X102750797Y-82148011D01*
X102750795Y-82148011D01*
X102613795Y-82199111D01*
X102496739Y-82286739D01*
X102409111Y-82403795D01*
X102358011Y-82540795D01*
X102358011Y-82540797D01*
X102351500Y-82601345D01*
X102351500Y-84398654D01*
X102358011Y-84459202D01*
X102358011Y-84459204D01*
X102409111Y-84596204D01*
X102496739Y-84713261D01*
X102613796Y-84800889D01*
X102750799Y-84851989D01*
X102777151Y-84854822D01*
X102811345Y-84858499D01*
X102811362Y-84858500D01*
X104128500Y-84858500D01*
X104195539Y-84878185D01*
X104241294Y-84930989D01*
X104252500Y-84982500D01*
X104252500Y-87109745D01*
X104232815Y-87176784D01*
X104180011Y-87222539D01*
X104110853Y-87232483D01*
X104047297Y-87203458D01*
X104040819Y-87197426D01*
X104015394Y-87172001D01*
X104015387Y-87171995D01*
X103882969Y-87083517D01*
X103735831Y-87022570D01*
X103735823Y-87022568D01*
X103579634Y-86991500D01*
X103579630Y-86991500D01*
X103420370Y-86991500D01*
X103420365Y-86991500D01*
X103264176Y-87022568D01*
X103264168Y-87022570D01*
X103117030Y-87083517D01*
X102984612Y-87171995D01*
X102984605Y-87172001D01*
X102872001Y-87284605D01*
X102871995Y-87284612D01*
X102783517Y-87417030D01*
X102722570Y-87564168D01*
X102722568Y-87564176D01*
X102702177Y-87666691D01*
X102669793Y-87728602D01*
X102609077Y-87763176D01*
X102580560Y-87766500D01*
X102244777Y-87766500D01*
X102177738Y-87746815D01*
X102175887Y-87745603D01*
X102082966Y-87683515D01*
X101935831Y-87622570D01*
X101935823Y-87622568D01*
X101779634Y-87591500D01*
X101779630Y-87591500D01*
X101620370Y-87591500D01*
X101620365Y-87591500D01*
X101464176Y-87622568D01*
X101464168Y-87622570D01*
X101317030Y-87683517D01*
X101184612Y-87771995D01*
X101184605Y-87772001D01*
X101071998Y-87884608D01*
X100999134Y-87993657D01*
X100945521Y-88038462D01*
X100876196Y-88047169D01*
X100813169Y-88017014D01*
X100808351Y-88012447D01*
X99245897Y-86449993D01*
X99212412Y-86388670D01*
X99215646Y-86323995D01*
X99250049Y-86218116D01*
X99283500Y-86006916D01*
X99283500Y-85793084D01*
X99250049Y-85581884D01*
X99183972Y-85378517D01*
X99183972Y-85378516D01*
X99086893Y-85187990D01*
X98961206Y-85014996D01*
X98810004Y-84863794D01*
X98810000Y-84863791D01*
X98653818Y-84750318D01*
X98611152Y-84694988D01*
X98605173Y-84625375D01*
X98637779Y-84563580D01*
X98653818Y-84549682D01*
X98704200Y-84513076D01*
X98810004Y-84436206D01*
X98961206Y-84285004D01*
X99086894Y-84112009D01*
X99183972Y-83921483D01*
X99250049Y-83718116D01*
X99283500Y-83506916D01*
X99283500Y-83408641D01*
X100444000Y-83408641D01*
X100444000Y-83571358D01*
X100475740Y-83730927D01*
X100475742Y-83730935D01*
X100538006Y-83881255D01*
X100538011Y-83881264D01*
X100628403Y-84016544D01*
X100628406Y-84016548D01*
X100743451Y-84131593D01*
X100743455Y-84131596D01*
X100878735Y-84221988D01*
X100878741Y-84221991D01*
X100878742Y-84221992D01*
X101029065Y-84284258D01*
X101188641Y-84315999D01*
X101188645Y-84316000D01*
X101188646Y-84316000D01*
X101351355Y-84316000D01*
X101351356Y-84315999D01*
X101510935Y-84284258D01*
X101661258Y-84221992D01*
X101796545Y-84131596D01*
X101911596Y-84016545D01*
X102001992Y-83881258D01*
X102064258Y-83730935D01*
X102096000Y-83571354D01*
X102096000Y-83408646D01*
X102064258Y-83249065D01*
X102001992Y-83098742D01*
X102001991Y-83098741D01*
X102001988Y-83098735D01*
X101911596Y-82963455D01*
X101911593Y-82963451D01*
X101796548Y-82848406D01*
X101796544Y-82848403D01*
X101661264Y-82758011D01*
X101661255Y-82758006D01*
X101510935Y-82695742D01*
X101510927Y-82695740D01*
X101351358Y-82664000D01*
X101351354Y-82664000D01*
X101188646Y-82664000D01*
X101188641Y-82664000D01*
X101029072Y-82695740D01*
X101029064Y-82695742D01*
X100878744Y-82758006D01*
X100878735Y-82758011D01*
X100743455Y-82848403D01*
X100743451Y-82848406D01*
X100628406Y-82963451D01*
X100628403Y-82963455D01*
X100538011Y-83098735D01*
X100538006Y-83098744D01*
X100475742Y-83249064D01*
X100475740Y-83249072D01*
X100444000Y-83408641D01*
X99283500Y-83408641D01*
X99283500Y-83293084D01*
X99250049Y-83081884D01*
X99183972Y-82878517D01*
X99183972Y-82878516D01*
X99122571Y-82758011D01*
X99086894Y-82687991D01*
X98961206Y-82514996D01*
X98810004Y-82363794D01*
X98646586Y-82245064D01*
X98603921Y-82189734D01*
X98597942Y-82120121D01*
X98630548Y-82058326D01*
X98646587Y-82044428D01*
X98804459Y-81929727D01*
X98804464Y-81929723D01*
X98954723Y-81779464D01*
X98954727Y-81779459D01*
X99079620Y-81607557D01*
X99176095Y-81418217D01*
X99241757Y-81216129D01*
X99241757Y-81216126D01*
X99252231Y-81150000D01*
X98204146Y-81150000D01*
X98242630Y-81083343D01*
X98275000Y-80962535D01*
X98275000Y-80837465D01*
X98242630Y-80716657D01*
X98204146Y-80650000D01*
X99252231Y-80650000D01*
X99241757Y-80583873D01*
X99241757Y-80583870D01*
X99186601Y-80414117D01*
X99184606Y-80344276D01*
X99220686Y-80284443D01*
X99283387Y-80253615D01*
X99352802Y-80261580D01*
G37*
%TD.AperFunction*%
%TA.AperFunction,Conductor*%
G36*
X120252975Y-53953185D02*
G01*
X120298730Y-54005989D01*
X120308674Y-54075147D01*
X120279649Y-54138703D01*
X120273617Y-54145181D01*
X120096167Y-54322631D01*
X120052047Y-54366751D01*
X120007927Y-54410870D01*
X119938603Y-54514620D01*
X119938598Y-54514629D01*
X119890845Y-54629916D01*
X119890843Y-54629924D01*
X119866500Y-54752303D01*
X119866500Y-57655222D01*
X119846815Y-57722261D01*
X119845603Y-57724112D01*
X119783516Y-57817033D01*
X119722570Y-57964168D01*
X119722568Y-57964176D01*
X119691500Y-58120365D01*
X119691500Y-58279634D01*
X119722568Y-58435823D01*
X119722570Y-58435831D01*
X119783517Y-58582969D01*
X119871995Y-58715387D01*
X119872001Y-58715394D01*
X119984605Y-58827998D01*
X119984612Y-58828004D01*
X120117030Y-58916482D01*
X120117031Y-58916482D01*
X120117032Y-58916483D01*
X120264169Y-58977430D01*
X120420365Y-59008499D01*
X120420369Y-59008500D01*
X120420370Y-59008500D01*
X120579631Y-59008500D01*
X120579632Y-59008499D01*
X120735831Y-58977430D01*
X120882968Y-58916483D01*
X121015389Y-58828003D01*
X121128003Y-58715389D01*
X121216483Y-58582968D01*
X121277430Y-58435831D01*
X121308500Y-58279630D01*
X121308500Y-58120370D01*
X121277430Y-57964169D01*
X121216483Y-57817032D01*
X121154397Y-57724112D01*
X121133520Y-57657434D01*
X121133500Y-57655222D01*
X121133500Y-56128766D01*
X121153185Y-56061727D01*
X121205989Y-56015972D01*
X121275147Y-56006028D01*
X121338703Y-56035053D01*
X121345181Y-56041085D01*
X123930181Y-58626085D01*
X123963666Y-58687408D01*
X123966500Y-58713766D01*
X123966500Y-79052398D01*
X123990843Y-79174777D01*
X123990845Y-79174785D01*
X124038598Y-79290072D01*
X124038603Y-79290081D01*
X124107928Y-79393832D01*
X124107931Y-79393836D01*
X126643915Y-81929819D01*
X126677400Y-81991142D01*
X126672416Y-82060834D01*
X126630544Y-82116767D01*
X126565080Y-82141184D01*
X126556234Y-82141500D01*
X126463084Y-82141500D01*
X126419223Y-82148447D01*
X126251882Y-82174951D01*
X126048519Y-82241026D01*
X126048516Y-82241027D01*
X125857991Y-82338105D01*
X125698103Y-82454270D01*
X125632296Y-82477749D01*
X125564242Y-82461923D01*
X125537537Y-82441632D01*
X118869819Y-75773914D01*
X118836334Y-75712591D01*
X118833500Y-75686233D01*
X118833500Y-62548368D01*
X118853185Y-62481329D01*
X118905989Y-62435574D01*
X118975147Y-62425630D01*
X118998755Y-62431432D01*
X119053893Y-62450884D01*
X119151465Y-62470293D01*
X119151477Y-62470295D01*
X119250005Y-62480000D01*
X119600000Y-62480000D01*
X119600000Y-61418482D01*
X119618409Y-61429111D01*
X119771009Y-61470000D01*
X119928991Y-61470000D01*
X120081591Y-61429111D01*
X120100000Y-61418482D01*
X120100000Y-62475075D01*
X120148510Y-62470297D01*
X120148524Y-62470295D01*
X120246108Y-62450884D01*
X120246130Y-62450879D01*
X120298477Y-62437518D01*
X120298481Y-62437516D01*
X120340430Y-62417447D01*
X120409399Y-62406271D01*
X120473463Y-62434156D01*
X120508507Y-62481849D01*
X120523532Y-62518121D01*
X120523538Y-62518133D01*
X120594723Y-62624668D01*
X120594726Y-62624672D01*
X120685327Y-62715273D01*
X120685331Y-62715276D01*
X120791866Y-62786461D01*
X120791872Y-62786464D01*
X120791873Y-62786465D01*
X120910256Y-62835501D01*
X120910260Y-62835501D01*
X120910261Y-62835502D01*
X121035928Y-62860500D01*
X121035931Y-62860500D01*
X121164071Y-62860500D01*
X121248615Y-62843682D01*
X121289744Y-62835501D01*
X121408127Y-62786465D01*
X121514669Y-62715276D01*
X121605276Y-62624669D01*
X121676465Y-62518127D01*
X121701440Y-62457830D01*
X121745279Y-62403431D01*
X121811573Y-62381365D01*
X121854317Y-62387354D01*
X122031884Y-62445049D01*
X122243084Y-62478500D01*
X122243085Y-62478500D01*
X122456915Y-62478500D01*
X122456916Y-62478500D01*
X122668116Y-62445049D01*
X122871483Y-62378972D01*
X123062009Y-62281894D01*
X123235004Y-62156206D01*
X123386206Y-62005004D01*
X123511894Y-61832009D01*
X123608972Y-61641483D01*
X123675049Y-61438116D01*
X123708500Y-61226916D01*
X123708500Y-60513084D01*
X123675049Y-60301884D01*
X123614454Y-60115389D01*
X123608973Y-60098519D01*
X123608972Y-60098516D01*
X123511893Y-59907990D01*
X123386206Y-59734996D01*
X123235004Y-59583794D01*
X123062009Y-59458106D01*
X122986820Y-59419795D01*
X122871483Y-59361027D01*
X122871480Y-59361026D01*
X122668117Y-59294951D01*
X122508726Y-59269706D01*
X122456916Y-59261500D01*
X122243084Y-59261500D01*
X122191274Y-59269706D01*
X122031882Y-59294951D01*
X121828519Y-59361026D01*
X121828516Y-59361027D01*
X121637990Y-59458106D01*
X121464997Y-59583793D01*
X121326944Y-59721846D01*
X121265621Y-59755330D01*
X121195929Y-59750346D01*
X121139996Y-59708474D01*
X121127405Y-59687679D01*
X121105479Y-59641851D01*
X121050201Y-59559121D01*
X121017807Y-59515848D01*
X121017803Y-59515844D01*
X120910875Y-59419795D01*
X120828152Y-59364522D01*
X120781653Y-59336934D01*
X120646105Y-59289114D01*
X120548534Y-59269706D01*
X120548522Y-59269704D01*
X120449995Y-59260000D01*
X120100000Y-59260000D01*
X120100000Y-60321517D01*
X120081591Y-60310889D01*
X119928991Y-60270000D01*
X119771009Y-60270000D01*
X119618409Y-60310889D01*
X119600000Y-60321517D01*
X119600000Y-59260000D01*
X119250005Y-59260000D01*
X119151477Y-59269704D01*
X119151465Y-59269706D01*
X119053891Y-59289115D01*
X119053869Y-59289120D01*
X119001520Y-59302481D01*
X118999798Y-59303107D01*
X118998835Y-59303167D01*
X118995612Y-59303990D01*
X118995455Y-59303378D01*
X118930065Y-59307471D01*
X118869042Y-59273442D01*
X118836104Y-59211823D01*
X118833500Y-59186544D01*
X118833500Y-55861249D01*
X118853185Y-55794210D01*
X118905989Y-55748455D01*
X118910033Y-55746694D01*
X118982968Y-55716483D01*
X119115389Y-55628003D01*
X119228003Y-55515389D01*
X119316483Y-55382968D01*
X119377430Y-55235831D01*
X119408500Y-55079630D01*
X119408500Y-54920370D01*
X119377430Y-54764169D01*
X119316483Y-54617032D01*
X119314799Y-54614512D01*
X119228004Y-54484612D01*
X119227998Y-54484605D01*
X119115394Y-54372001D01*
X119115387Y-54371995D01*
X118982969Y-54283517D01*
X118835831Y-54222570D01*
X118835823Y-54222568D01*
X118679634Y-54191500D01*
X118679630Y-54191500D01*
X118520370Y-54191500D01*
X118520365Y-54191500D01*
X118364176Y-54222568D01*
X118364168Y-54222570D01*
X118217030Y-54283517D01*
X118084612Y-54371995D01*
X118079896Y-54375866D01*
X118078372Y-54374009D01*
X118026358Y-54402411D01*
X117956666Y-54397427D01*
X117921144Y-54374597D01*
X117920104Y-54375866D01*
X117915387Y-54371995D01*
X117782969Y-54283517D01*
X117635831Y-54222570D01*
X117635823Y-54222568D01*
X117479634Y-54191500D01*
X117479630Y-54191500D01*
X117320370Y-54191500D01*
X117318468Y-54191500D01*
X117297222Y-54185261D01*
X117275134Y-54183682D01*
X117264350Y-54175609D01*
X117251429Y-54171815D01*
X117236929Y-54155081D01*
X117219201Y-54141810D01*
X117214493Y-54129189D01*
X117205674Y-54119011D01*
X117202522Y-54097093D01*
X117194784Y-54076346D01*
X117197646Y-54063185D01*
X117195730Y-54049853D01*
X117204929Y-54029709D01*
X117209636Y-54008073D01*
X117222904Y-53990347D01*
X117224755Y-53986297D01*
X117230787Y-53979819D01*
X117240787Y-53969819D01*
X117302110Y-53936334D01*
X117328468Y-53933500D01*
X120185936Y-53933500D01*
X120252975Y-53953185D01*
G37*
%TD.AperFunction*%
%TA.AperFunction,Conductor*%
G36*
X140794060Y-42580185D02*
G01*
X140839815Y-42632989D01*
X140849759Y-42702147D01*
X140820734Y-42765703D01*
X140780823Y-42796220D01*
X140496399Y-42933191D01*
X140211092Y-43112461D01*
X140011790Y-43271397D01*
X141259713Y-44519320D01*
X141135520Y-44609554D01*
X140996394Y-44748680D01*
X140906160Y-44872873D01*
X139658237Y-43624950D01*
X139499301Y-43824252D01*
X139320031Y-44109559D01*
X139173835Y-44413137D01*
X139062549Y-44731173D01*
X139062545Y-44731185D01*
X138987567Y-45059686D01*
X138987565Y-45059702D01*
X138949840Y-45394519D01*
X138949840Y-45731480D01*
X138987565Y-46066297D01*
X138987567Y-46066313D01*
X139062545Y-46394814D01*
X139062549Y-46394826D01*
X139173835Y-46712862D01*
X139320031Y-47016440D01*
X139499301Y-47301747D01*
X139658237Y-47501048D01*
X140906160Y-46253125D01*
X140996394Y-46377320D01*
X141135520Y-46516446D01*
X141259713Y-46606678D01*
X140011790Y-47854601D01*
X140211092Y-48013538D01*
X140496399Y-48192808D01*
X140799977Y-48339004D01*
X141118013Y-48450290D01*
X141118025Y-48450294D01*
X141446526Y-48525272D01*
X141446542Y-48525274D01*
X141781359Y-48562999D01*
X141781361Y-48563000D01*
X142118319Y-48563000D01*
X142118320Y-48562999D01*
X142453137Y-48525274D01*
X142453153Y-48525272D01*
X142781654Y-48450294D01*
X142781666Y-48450290D01*
X143099702Y-48339004D01*
X143403280Y-48192808D01*
X143688587Y-48013538D01*
X143887888Y-47854600D01*
X142639966Y-46606678D01*
X142764160Y-46516446D01*
X142903286Y-46377320D01*
X142993518Y-46253126D01*
X144241440Y-47501048D01*
X144400378Y-47301747D01*
X144579648Y-47016440D01*
X144725844Y-46712862D01*
X144833459Y-46405319D01*
X144874180Y-46348543D01*
X144939133Y-46322796D01*
X145007695Y-46336252D01*
X145058097Y-46384640D01*
X145074500Y-46446274D01*
X145074500Y-127356725D01*
X145054815Y-127423764D01*
X145002011Y-127469519D01*
X144932853Y-127479463D01*
X144869297Y-127450438D01*
X144833459Y-127397680D01*
X144725844Y-127090137D01*
X144579648Y-126786559D01*
X144400378Y-126501252D01*
X144241441Y-126301950D01*
X142993518Y-127549873D01*
X142903286Y-127425680D01*
X142764160Y-127286554D01*
X142639964Y-127196320D01*
X143887888Y-125948397D01*
X143688587Y-125789461D01*
X143403280Y-125610191D01*
X143099702Y-125463995D01*
X142781666Y-125352709D01*
X142781654Y-125352705D01*
X142453153Y-125277727D01*
X142453137Y-125277725D01*
X142118320Y-125240000D01*
X141781359Y-125240000D01*
X141446542Y-125277725D01*
X141446526Y-125277727D01*
X141118025Y-125352705D01*
X141118013Y-125352709D01*
X140799977Y-125463995D01*
X140496399Y-125610191D01*
X140211092Y-125789461D01*
X140011790Y-125948397D01*
X141259713Y-127196320D01*
X141135520Y-127286554D01*
X140996394Y-127425680D01*
X140906160Y-127549873D01*
X139658237Y-126301950D01*
X139499301Y-126501252D01*
X139320031Y-126786559D01*
X139173835Y-127090137D01*
X139062549Y-127408173D01*
X139062545Y-127408185D01*
X138987567Y-127736686D01*
X138987565Y-127736702D01*
X138949840Y-128071519D01*
X138949840Y-128408480D01*
X138987565Y-128743297D01*
X138987567Y-128743313D01*
X139062545Y-129071814D01*
X139062549Y-129071826D01*
X139173835Y-129389862D01*
X139320031Y-129693440D01*
X139499301Y-129978747D01*
X139658237Y-130178048D01*
X140906160Y-128930125D01*
X140996394Y-129054320D01*
X141135520Y-129193446D01*
X141259713Y-129283678D01*
X140011790Y-130531601D01*
X140211092Y-130690538D01*
X140496399Y-130869808D01*
X140799977Y-131016004D01*
X141092774Y-131118459D01*
X141149550Y-131159180D01*
X141175297Y-131224133D01*
X141161841Y-131292695D01*
X141113453Y-131343097D01*
X141051819Y-131359500D01*
X98398021Y-131359500D01*
X98330982Y-131339815D01*
X98285227Y-131287011D01*
X98275283Y-131217853D01*
X98304308Y-131154297D01*
X98357066Y-131118459D01*
X98649862Y-131016004D01*
X98953440Y-130869808D01*
X99238747Y-130690538D01*
X99438048Y-130531600D01*
X98190126Y-129283678D01*
X98314320Y-129193446D01*
X98453446Y-129054320D01*
X98543678Y-128930126D01*
X99791600Y-130178048D01*
X99950538Y-129978747D01*
X100129808Y-129693440D01*
X100276004Y-129389862D01*
X100387290Y-129071826D01*
X100387294Y-129071814D01*
X100462272Y-128743313D01*
X100462274Y-128743297D01*
X100499999Y-128408480D01*
X100500000Y-128408478D01*
X100500000Y-128071521D01*
X100499999Y-128071519D01*
X100462274Y-127736702D01*
X100462272Y-127736686D01*
X100387294Y-127408185D01*
X100387290Y-127408173D01*
X100276004Y-127090137D01*
X100129808Y-126786559D01*
X99950538Y-126501252D01*
X99868685Y-126398611D01*
X99809542Y-126324447D01*
X112341500Y-126324447D01*
X112341500Y-127875537D01*
X112341501Y-127875553D01*
X112352113Y-127979427D01*
X112407884Y-128147735D01*
X112407886Y-128147740D01*
X112443142Y-128204898D01*
X112500970Y-128298652D01*
X112626348Y-128424030D01*
X112777262Y-128517115D01*
X112945574Y-128572887D01*
X113049455Y-128583500D01*
X114350544Y-128583499D01*
X114454426Y-128572887D01*
X114622738Y-128517115D01*
X114773652Y-128424030D01*
X114899030Y-128298652D01*
X114989679Y-128151687D01*
X115041624Y-128104966D01*
X115110587Y-128093743D01*
X115174669Y-128121587D01*
X115182896Y-128129106D01*
X115314996Y-128261206D01*
X115487991Y-128386894D01*
X115581438Y-128434507D01*
X115678516Y-128483972D01*
X115678519Y-128483973D01*
X115780200Y-128517010D01*
X115881884Y-128550049D01*
X116093084Y-128583500D01*
X116093085Y-128583500D01*
X116306915Y-128583500D01*
X116306916Y-128583500D01*
X116518116Y-128550049D01*
X116721483Y-128483972D01*
X116912009Y-128386894D01*
X117085004Y-128261206D01*
X117236206Y-128110004D01*
X117331076Y-127979427D01*
X117349682Y-127953818D01*
X117405012Y-127911152D01*
X117474625Y-127905173D01*
X117536420Y-127937779D01*
X117550318Y-127953818D01*
X117651980Y-128093743D01*
X117663794Y-128110004D01*
X117814996Y-128261206D01*
X117987991Y-128386894D01*
X118081438Y-128434507D01*
X118178516Y-128483972D01*
X118178519Y-128483973D01*
X118280200Y-128517010D01*
X118381884Y-128550049D01*
X118593084Y-128583500D01*
X118593085Y-128583500D01*
X118806915Y-128583500D01*
X118806916Y-128583500D01*
X119018116Y-128550049D01*
X119221483Y-128483972D01*
X119412009Y-128386894D01*
X119585004Y-128261206D01*
X119736206Y-128110004D01*
X119831076Y-127979427D01*
X119849682Y-127953818D01*
X119905012Y-127911152D01*
X119974625Y-127905173D01*
X120036420Y-127937779D01*
X120050318Y-127953818D01*
X120151980Y-128093743D01*
X120163794Y-128110004D01*
X120314996Y-128261206D01*
X120487991Y-128386894D01*
X120581438Y-128434507D01*
X120678516Y-128483972D01*
X120678519Y-128483973D01*
X120780200Y-128517010D01*
X120881884Y-128550049D01*
X121093084Y-128583500D01*
X121093085Y-128583500D01*
X121306915Y-128583500D01*
X121306916Y-128583500D01*
X121518116Y-128550049D01*
X121721483Y-128483972D01*
X121912009Y-128386894D01*
X122085004Y-128261206D01*
X122236206Y-128110004D01*
X122331076Y-127979427D01*
X122349682Y-127953818D01*
X122405012Y-127911152D01*
X122474625Y-127905173D01*
X122536420Y-127937779D01*
X122550318Y-127953818D01*
X122651980Y-128093743D01*
X122663794Y-128110004D01*
X122814996Y-128261206D01*
X122987991Y-128386894D01*
X123081438Y-128434507D01*
X123178516Y-128483972D01*
X123178519Y-128483973D01*
X123280200Y-128517010D01*
X123381884Y-128550049D01*
X123593084Y-128583500D01*
X123593085Y-128583500D01*
X123806915Y-128583500D01*
X123806916Y-128583500D01*
X124018116Y-128550049D01*
X124221483Y-128483972D01*
X124412009Y-128386894D01*
X124585004Y-128261206D01*
X124736206Y-128110004D01*
X124861894Y-127937009D01*
X124958972Y-127746483D01*
X125025049Y-127543116D01*
X125058500Y-127331916D01*
X125058500Y-126868084D01*
X125025049Y-126656884D01*
X124958972Y-126453517D01*
X124958972Y-126453516D01*
X124909507Y-126356438D01*
X124861894Y-126262991D01*
X124736206Y-126089996D01*
X124585004Y-125938794D01*
X124412009Y-125813106D01*
X124221483Y-125716027D01*
X124221480Y-125716026D01*
X124018117Y-125649951D01*
X123873923Y-125627113D01*
X123806916Y-125616500D01*
X123593084Y-125616500D01*
X123526077Y-125627113D01*
X123381882Y-125649951D01*
X123178519Y-125716026D01*
X123178516Y-125716027D01*
X122987990Y-125813106D01*
X122814993Y-125938796D01*
X122663796Y-126089993D01*
X122663796Y-126089994D01*
X122663794Y-126089996D01*
X122656966Y-126099394D01*
X122550318Y-126246182D01*
X122494988Y-126288847D01*
X122425374Y-126294826D01*
X122363579Y-126262220D01*
X122349682Y-126246182D01*
X122324930Y-126212115D01*
X122236206Y-126089996D01*
X122085004Y-125938794D01*
X121912009Y-125813106D01*
X121721483Y-125716027D01*
X121721480Y-125716026D01*
X121518117Y-125649951D01*
X121373923Y-125627113D01*
X121306916Y-125616500D01*
X121093084Y-125616500D01*
X121026077Y-125627113D01*
X120881882Y-125649951D01*
X120678519Y-125716026D01*
X120678516Y-125716027D01*
X120487990Y-125813106D01*
X120314993Y-125938796D01*
X120163796Y-126089993D01*
X120163796Y-126089994D01*
X120163794Y-126089996D01*
X120156966Y-126099394D01*
X120050318Y-126246182D01*
X119994988Y-126288847D01*
X119925374Y-126294826D01*
X119863579Y-126262220D01*
X119849682Y-126246182D01*
X119824930Y-126212115D01*
X119736206Y-126089996D01*
X119585004Y-125938794D01*
X119412009Y-125813106D01*
X119221483Y-125716027D01*
X119221480Y-125716026D01*
X119018117Y-125649951D01*
X118873923Y-125627113D01*
X118806916Y-125616500D01*
X118593084Y-125616500D01*
X118526077Y-125627113D01*
X118381882Y-125649951D01*
X118178519Y-125716026D01*
X118178516Y-125716027D01*
X117987990Y-125813106D01*
X117814993Y-125938796D01*
X117663796Y-126089993D01*
X117663796Y-126089994D01*
X117663794Y-126089996D01*
X117656966Y-126099394D01*
X117550318Y-126246182D01*
X117494988Y-126288847D01*
X117425374Y-126294826D01*
X117363579Y-126262220D01*
X117349682Y-126246182D01*
X117324930Y-126212115D01*
X117236206Y-126089996D01*
X117085004Y-125938794D01*
X116912009Y-125813106D01*
X116721483Y-125716027D01*
X116721480Y-125716026D01*
X116518117Y-125649951D01*
X116373923Y-125627113D01*
X116306916Y-125616500D01*
X116093084Y-125616500D01*
X116026077Y-125627113D01*
X115881882Y-125649951D01*
X115678519Y-125716026D01*
X115678516Y-125716027D01*
X115487990Y-125813106D01*
X115314997Y-125938793D01*
X115182896Y-126070894D01*
X115121573Y-126104378D01*
X115051881Y-126099394D01*
X114995948Y-126057522D01*
X114989684Y-126048320D01*
X114899030Y-125901348D01*
X114773652Y-125775970D01*
X114622738Y-125682885D01*
X114523348Y-125649951D01*
X114454427Y-125627113D01*
X114350545Y-125616500D01*
X113049462Y-125616500D01*
X113049446Y-125616501D01*
X112945572Y-125627113D01*
X112777264Y-125682884D01*
X112777259Y-125682886D01*
X112626346Y-125775971D01*
X112500971Y-125901346D01*
X112407886Y-126052259D01*
X112407884Y-126052264D01*
X112352113Y-126220572D01*
X112341500Y-126324447D01*
X99809542Y-126324447D01*
X99791601Y-126301950D01*
X98543678Y-127549873D01*
X98453446Y-127425680D01*
X98314320Y-127286554D01*
X98190124Y-127196320D01*
X99438048Y-125948397D01*
X99238747Y-125789461D01*
X98953440Y-125610191D01*
X98649862Y-125463995D01*
X98331826Y-125352709D01*
X98331814Y-125352705D01*
X98003313Y-125277727D01*
X98003297Y-125277725D01*
X97668480Y-125240000D01*
X97331519Y-125240000D01*
X96996702Y-125277725D01*
X96996686Y-125277727D01*
X96668185Y-125352705D01*
X96668173Y-125352709D01*
X96350137Y-125463995D01*
X96046559Y-125610191D01*
X95761252Y-125789461D01*
X95561950Y-125948397D01*
X96809873Y-127196320D01*
X96685680Y-127286554D01*
X96546554Y-127425680D01*
X96456320Y-127549873D01*
X95208397Y-126301950D01*
X95049461Y-126501252D01*
X94870191Y-126786559D01*
X94723995Y-127090137D01*
X94616541Y-127397222D01*
X94575820Y-127453998D01*
X94510867Y-127479745D01*
X94442305Y-127466289D01*
X94391903Y-127417901D01*
X94375500Y-127356267D01*
X94375500Y-112099447D01*
X97691500Y-112099447D01*
X97691500Y-113400537D01*
X97691501Y-113400553D01*
X97702113Y-113504427D01*
X97757884Y-113672735D01*
X97757886Y-113672740D01*
X97765208Y-113684611D01*
X97850970Y-113823652D01*
X97976348Y-113949030D01*
X98127262Y-114042115D01*
X98127266Y-114042116D01*
X98130745Y-114044262D01*
X98177469Y-114096210D01*
X98188692Y-114165173D01*
X98160848Y-114229255D01*
X98153330Y-114237482D01*
X98020271Y-114370541D01*
X97895379Y-114542442D01*
X97798904Y-114731782D01*
X97733242Y-114933870D01*
X97733242Y-114933873D01*
X97722769Y-115000000D01*
X98766988Y-115000000D01*
X98734075Y-115057007D01*
X98700000Y-115184174D01*
X98700000Y-115315826D01*
X98734075Y-115442993D01*
X98766988Y-115500000D01*
X97722769Y-115500000D01*
X97733242Y-115566126D01*
X97733242Y-115566129D01*
X97798904Y-115768217D01*
X97895379Y-115957557D01*
X98020272Y-116129459D01*
X98020276Y-116129464D01*
X98170535Y-116279723D01*
X98170540Y-116279727D01*
X98342442Y-116404620D01*
X98531782Y-116501095D01*
X98733870Y-116566757D01*
X98943754Y-116600000D01*
X98950000Y-116600000D01*
X98950000Y-115683012D01*
X99007007Y-115715925D01*
X99134174Y-115750000D01*
X99265826Y-115750000D01*
X99392993Y-115715925D01*
X99450000Y-115683012D01*
X99450000Y-116600000D01*
X99456246Y-116600000D01*
X99666127Y-116566757D01*
X99666130Y-116566757D01*
X99868217Y-116501095D01*
X100057557Y-116404620D01*
X100229459Y-116279727D01*
X100229464Y-116279723D01*
X100379723Y-116129464D01*
X100379727Y-116129459D01*
X100504620Y-115957557D01*
X100601096Y-115768215D01*
X100616643Y-115720365D01*
X107791500Y-115720365D01*
X107791500Y-115879634D01*
X107822568Y-116035823D01*
X107822570Y-116035831D01*
X107883517Y-116182969D01*
X107971995Y-116315387D01*
X107972001Y-116315394D01*
X108084605Y-116427998D01*
X108084612Y-116428004D01*
X108217030Y-116516482D01*
X108217031Y-116516482D01*
X108217032Y-116516483D01*
X108364169Y-116577430D01*
X108520365Y-116608499D01*
X108520369Y-116608500D01*
X108520370Y-116608500D01*
X108679631Y-116608500D01*
X108679632Y-116608499D01*
X108835831Y-116577430D01*
X108982968Y-116516483D01*
X109115389Y-116428003D01*
X109228003Y-116315389D01*
X109316483Y-116182968D01*
X109377430Y-116035831D01*
X109408500Y-115879630D01*
X109408500Y-115720370D01*
X109377430Y-115564169D01*
X109316483Y-115417032D01*
X109272058Y-115350545D01*
X109228004Y-115284612D01*
X109227998Y-115284605D01*
X109115394Y-115172001D01*
X109115387Y-115171995D01*
X108982969Y-115083517D01*
X108835831Y-115022570D01*
X108835823Y-115022568D01*
X108679634Y-114991500D01*
X108679630Y-114991500D01*
X108520370Y-114991500D01*
X108520365Y-114991500D01*
X108364176Y-115022568D01*
X108364168Y-115022570D01*
X108217030Y-115083517D01*
X108084612Y-115171995D01*
X108084605Y-115172001D01*
X107972001Y-115284605D01*
X107971995Y-115284612D01*
X107883517Y-115417030D01*
X107822570Y-115564168D01*
X107822568Y-115564176D01*
X107791500Y-115720365D01*
X100616643Y-115720365D01*
X100631071Y-115675961D01*
X100631071Y-115675960D01*
X100666757Y-115566129D01*
X100666757Y-115566126D01*
X100677231Y-115500000D01*
X99633012Y-115500000D01*
X99665925Y-115442993D01*
X99700000Y-115315826D01*
X99700000Y-115184174D01*
X99665925Y-115057007D01*
X99633012Y-115000000D01*
X100677231Y-115000000D01*
X100666757Y-114933873D01*
X100666757Y-114933870D01*
X100601095Y-114731782D01*
X100504620Y-114542442D01*
X100379727Y-114370540D01*
X100379723Y-114370535D01*
X100246670Y-114237482D01*
X100213185Y-114176159D01*
X100218169Y-114106467D01*
X100260041Y-114050534D01*
X100269255Y-114044262D01*
X100272733Y-114042116D01*
X100272738Y-114042115D01*
X100423652Y-113949030D01*
X100549030Y-113823652D01*
X100642115Y-113672738D01*
X100697887Y-113504426D01*
X100708500Y-113400545D01*
X100708499Y-112099456D01*
X100697887Y-111995574D01*
X100642115Y-111827262D01*
X100549030Y-111676348D01*
X100423652Y-111550970D01*
X100272738Y-111457885D01*
X100272735Y-111457884D01*
X100104427Y-111402113D01*
X100000545Y-111391500D01*
X98399462Y-111391500D01*
X98399446Y-111391501D01*
X98295572Y-111402113D01*
X98127264Y-111457884D01*
X98127259Y-111457886D01*
X97976346Y-111550971D01*
X97850971Y-111676346D01*
X97757886Y-111827259D01*
X97757884Y-111827264D01*
X97702113Y-111995572D01*
X97691500Y-112099447D01*
X94375500Y-112099447D01*
X94375500Y-108870365D01*
X103541500Y-108870365D01*
X103541500Y-109029634D01*
X103572568Y-109185823D01*
X103572570Y-109185831D01*
X103633517Y-109332969D01*
X103721995Y-109465387D01*
X103722001Y-109465394D01*
X103834605Y-109577998D01*
X103834612Y-109578004D01*
X103967030Y-109666482D01*
X103967031Y-109666482D01*
X103967032Y-109666483D01*
X104114169Y-109727430D01*
X104270365Y-109758499D01*
X104270369Y-109758500D01*
X104270370Y-109758500D01*
X104429631Y-109758500D01*
X104429632Y-109758499D01*
X104585831Y-109727430D01*
X104732968Y-109666483D01*
X104865389Y-109578003D01*
X104978003Y-109465389D01*
X105066483Y-109332968D01*
X105127430Y-109185831D01*
X105158500Y-109029630D01*
X105158500Y-108870370D01*
X105127430Y-108714169D01*
X105066483Y-108567032D01*
X105064569Y-108564168D01*
X104978004Y-108434612D01*
X104977998Y-108434605D01*
X104865394Y-108322001D01*
X104865387Y-108321995D01*
X104732969Y-108233517D01*
X104585831Y-108172570D01*
X104585823Y-108172568D01*
X104429634Y-108141500D01*
X104429630Y-108141500D01*
X104270370Y-108141500D01*
X104270365Y-108141500D01*
X104114176Y-108172568D01*
X104114168Y-108172570D01*
X103967030Y-108233517D01*
X103834612Y-108321995D01*
X103834605Y-108322001D01*
X103722001Y-108434605D01*
X103721995Y-108434612D01*
X103633517Y-108567030D01*
X103572570Y-108714168D01*
X103572568Y-108714176D01*
X103541500Y-108870365D01*
X94375500Y-108870365D01*
X94375500Y-103499447D01*
X97691500Y-103499447D01*
X97691500Y-104800537D01*
X97691501Y-104800553D01*
X97702113Y-104904427D01*
X97742513Y-105026348D01*
X97757885Y-105072738D01*
X97850970Y-105223652D01*
X97976348Y-105349030D01*
X98127262Y-105442115D01*
X98127266Y-105442116D01*
X98130745Y-105444262D01*
X98177469Y-105496210D01*
X98188692Y-105565173D01*
X98160848Y-105629255D01*
X98153330Y-105637482D01*
X98020271Y-105770541D01*
X97895379Y-105942442D01*
X97798904Y-106131782D01*
X97733242Y-106333870D01*
X97733242Y-106333873D01*
X97722769Y-106400000D01*
X98766988Y-106400000D01*
X98734075Y-106457007D01*
X98700000Y-106584174D01*
X98700000Y-106715826D01*
X98734075Y-106842993D01*
X98766988Y-106900000D01*
X97722769Y-106900000D01*
X97733242Y-106966126D01*
X97733242Y-106966129D01*
X97798904Y-107168217D01*
X97895379Y-107357557D01*
X98020272Y-107529459D01*
X98020276Y-107529464D01*
X98170535Y-107679723D01*
X98170540Y-107679727D01*
X98342442Y-107804620D01*
X98531782Y-107901095D01*
X98733870Y-107966757D01*
X98943754Y-108000000D01*
X98950000Y-108000000D01*
X98950000Y-107083012D01*
X99007007Y-107115925D01*
X99134174Y-107150000D01*
X99265826Y-107150000D01*
X99392993Y-107115925D01*
X99450000Y-107083012D01*
X99450000Y-108000000D01*
X99456246Y-108000000D01*
X99666127Y-107966757D01*
X99666130Y-107966757D01*
X99868217Y-107901095D01*
X100057557Y-107804620D01*
X100229459Y-107679727D01*
X100229464Y-107679723D01*
X100379723Y-107529464D01*
X100379727Y-107529459D01*
X100504620Y-107357557D01*
X100601095Y-107168217D01*
X100666757Y-106966129D01*
X100666757Y-106966126D01*
X100677231Y-106900000D01*
X99633012Y-106900000D01*
X99665925Y-106842993D01*
X99700000Y-106715826D01*
X99700000Y-106584174D01*
X99665925Y-106457007D01*
X99633012Y-106400000D01*
X100677231Y-106400000D01*
X100666757Y-106333873D01*
X100666757Y-106333870D01*
X100607858Y-106152596D01*
X100607857Y-106152594D01*
X100601096Y-106131784D01*
X100595278Y-106120365D01*
X101574309Y-106120365D01*
X101574309Y-106279634D01*
X101605377Y-106435823D01*
X101605379Y-106435831D01*
X101666326Y-106582969D01*
X101754804Y-106715387D01*
X101754810Y-106715394D01*
X101867414Y-106827998D01*
X101867421Y-106828004D01*
X101999839Y-106916482D01*
X101999840Y-106916482D01*
X101999841Y-106916483D01*
X102146978Y-106977430D01*
X102272658Y-107002429D01*
X102303174Y-107008499D01*
X102303178Y-107008500D01*
X102303179Y-107008500D01*
X102462440Y-107008500D01*
X102462441Y-107008499D01*
X102618640Y-106977430D01*
X102765777Y-106916483D01*
X102898198Y-106828003D01*
X103010812Y-106715389D01*
X103099292Y-106582968D01*
X103160239Y-106435831D01*
X103191309Y-106279630D01*
X103191309Y-106120370D01*
X103160239Y-105964169D01*
X103099292Y-105817032D01*
X103068227Y-105770540D01*
X103010813Y-105684612D01*
X103010807Y-105684605D01*
X102898203Y-105572001D01*
X102898196Y-105571995D01*
X102765778Y-105483517D01*
X102618640Y-105422570D01*
X102618632Y-105422568D01*
X102462443Y-105391500D01*
X102462439Y-105391500D01*
X102303179Y-105391500D01*
X102303174Y-105391500D01*
X102146985Y-105422568D01*
X102146977Y-105422570D01*
X101999839Y-105483517D01*
X101867421Y-105571995D01*
X101867414Y-105572001D01*
X101754810Y-105684605D01*
X101754804Y-105684612D01*
X101666326Y-105817030D01*
X101605379Y-105964168D01*
X101605377Y-105964176D01*
X101574309Y-106120365D01*
X100595278Y-106120365D01*
X100504620Y-105942442D01*
X100379727Y-105770540D01*
X100379723Y-105770535D01*
X100246670Y-105637482D01*
X100213185Y-105576159D01*
X100218169Y-105506467D01*
X100260041Y-105450534D01*
X100269255Y-105444262D01*
X100272733Y-105442116D01*
X100272738Y-105442115D01*
X100423652Y-105349030D01*
X100549030Y-105223652D01*
X100642115Y-105072738D01*
X100697887Y-104904426D01*
X100708500Y-104800545D01*
X100708499Y-103499456D01*
X100697887Y-103395574D01*
X100642115Y-103227262D01*
X100549030Y-103076348D01*
X100423652Y-102950970D01*
X100272738Y-102857885D01*
X100272735Y-102857884D01*
X100104427Y-102802113D01*
X100000545Y-102791500D01*
X98399462Y-102791500D01*
X98399446Y-102791501D01*
X98295572Y-102802113D01*
X98127264Y-102857884D01*
X98127259Y-102857886D01*
X97976346Y-102950971D01*
X97850971Y-103076346D01*
X97757886Y-103227259D01*
X97757884Y-103227264D01*
X97702113Y-103395572D01*
X97691500Y-103499447D01*
X94375500Y-103499447D01*
X94375500Y-77749447D01*
X96316500Y-77749447D01*
X96316500Y-79050537D01*
X96316501Y-79050553D01*
X96327113Y-79154427D01*
X96333859Y-79174785D01*
X96382885Y-79322738D01*
X96475970Y-79473652D01*
X96601348Y-79599030D01*
X96752262Y-79692115D01*
X96752266Y-79692116D01*
X96755745Y-79694262D01*
X96802469Y-79746210D01*
X96813692Y-79815173D01*
X96785848Y-79879255D01*
X96778330Y-79887482D01*
X96645271Y-80020541D01*
X96520379Y-80192442D01*
X96423904Y-80381782D01*
X96358242Y-80583870D01*
X96358242Y-80583873D01*
X96347769Y-80650000D01*
X97395854Y-80650000D01*
X97357370Y-80716657D01*
X97325000Y-80837465D01*
X97325000Y-80962535D01*
X97357370Y-81083343D01*
X97395854Y-81150000D01*
X96347769Y-81150000D01*
X96358242Y-81216126D01*
X96358242Y-81216129D01*
X96423904Y-81418217D01*
X96520379Y-81607557D01*
X96645272Y-81779459D01*
X96645276Y-81779464D01*
X96795535Y-81929723D01*
X96795540Y-81929727D01*
X96953412Y-82044428D01*
X96996078Y-82099758D01*
X97002057Y-82169371D01*
X96969451Y-82231166D01*
X96953413Y-82245064D01*
X96921077Y-82268558D01*
X96789996Y-82363794D01*
X96789994Y-82363796D01*
X96789993Y-82363796D01*
X96638796Y-82514993D01*
X96513106Y-82687990D01*
X96416027Y-82878516D01*
X96416026Y-82878519D01*
X96349951Y-83081882D01*
X96347097Y-83099901D01*
X96316500Y-83293084D01*
X96316500Y-83506916D01*
X96326706Y-83571354D01*
X96349951Y-83718117D01*
X96416026Y-83921480D01*
X96416027Y-83921483D01*
X96513106Y-84112009D01*
X96638794Y-84285004D01*
X96789996Y-84436206D01*
X96892344Y-84510566D01*
X96946182Y-84549682D01*
X96988847Y-84605012D01*
X96994826Y-84674626D01*
X96962220Y-84736421D01*
X96946182Y-84750318D01*
X96894616Y-84787783D01*
X96789996Y-84863794D01*
X96789994Y-84863796D01*
X96789993Y-84863796D01*
X96638796Y-85014993D01*
X96513106Y-85187990D01*
X96416027Y-85378516D01*
X96416026Y-85378519D01*
X96349951Y-85581882D01*
X96349951Y-85581884D01*
X96316500Y-85793084D01*
X96316500Y-86006916D01*
X96321301Y-86037228D01*
X96349951Y-86218117D01*
X96416026Y-86421480D01*
X96416027Y-86421483D01*
X96496610Y-86579634D01*
X96513106Y-86612009D01*
X96638794Y-86785004D01*
X96789996Y-86936206D01*
X96866102Y-86991500D01*
X96946182Y-87049682D01*
X96988847Y-87105012D01*
X96994826Y-87174626D01*
X96962220Y-87236421D01*
X96946182Y-87250318D01*
X96898982Y-87284611D01*
X96789996Y-87363794D01*
X96789994Y-87363796D01*
X96789993Y-87363796D01*
X96638796Y-87514993D01*
X96513106Y-87687990D01*
X96416027Y-87878516D01*
X96416026Y-87878519D01*
X96349951Y-88081882D01*
X96316500Y-88293084D01*
X96316500Y-88506915D01*
X96349951Y-88718117D01*
X96416026Y-88921480D01*
X96416027Y-88921483D01*
X96483751Y-89054397D01*
X96513106Y-89112009D01*
X96638794Y-89285004D01*
X96789996Y-89436206D01*
X96892344Y-89510566D01*
X96946182Y-89549682D01*
X96988847Y-89605012D01*
X96994826Y-89674626D01*
X96962220Y-89736421D01*
X96946182Y-89750318D01*
X96877297Y-89800365D01*
X96789996Y-89863794D01*
X96789994Y-89863796D01*
X96789993Y-89863796D01*
X96638796Y-90014993D01*
X96513106Y-90187990D01*
X96416027Y-90378516D01*
X96416026Y-90378519D01*
X96349951Y-90581882D01*
X96316500Y-90793084D01*
X96316500Y-91006915D01*
X96349951Y-91218117D01*
X96416026Y-91421480D01*
X96416027Y-91421483D01*
X96513106Y-91612009D01*
X96638794Y-91785004D01*
X96789996Y-91936206D01*
X96892344Y-92010566D01*
X96946182Y-92049682D01*
X96988847Y-92105012D01*
X96994826Y-92174626D01*
X96962220Y-92236421D01*
X96946182Y-92250318D01*
X96877297Y-92300365D01*
X96789996Y-92363794D01*
X96789994Y-92363796D01*
X96789993Y-92363796D01*
X96638796Y-92514993D01*
X96513106Y-92687990D01*
X96416027Y-92878516D01*
X96416026Y-92878519D01*
X96349951Y-93081882D01*
X96316500Y-93293084D01*
X96316500Y-93506915D01*
X96349951Y-93718117D01*
X96416026Y-93921480D01*
X96416027Y-93921483D01*
X96474287Y-94035823D01*
X96513106Y-94112009D01*
X96638794Y-94285004D01*
X96789996Y-94436206D01*
X96892344Y-94510566D01*
X96946182Y-94549682D01*
X96988847Y-94605012D01*
X96994826Y-94674626D01*
X96962220Y-94736421D01*
X96946182Y-94750318D01*
X96899600Y-94784162D01*
X96789996Y-94863794D01*
X96789994Y-94863796D01*
X96789993Y-94863796D01*
X96638796Y-95014993D01*
X96513106Y-95187990D01*
X96416027Y-95378516D01*
X96416026Y-95378519D01*
X96349951Y-95581882D01*
X96316500Y-95793084D01*
X96316500Y-96006915D01*
X96349951Y-96218117D01*
X96416026Y-96421480D01*
X96416027Y-96421483D01*
X96513106Y-96612009D01*
X96638794Y-96785004D01*
X96789996Y-96936206D01*
X96962991Y-97061894D01*
X97025202Y-97093592D01*
X97153516Y-97158972D01*
X97153519Y-97158973D01*
X97255200Y-97192010D01*
X97356884Y-97225049D01*
X97568084Y-97258500D01*
X97568085Y-97258500D01*
X98031915Y-97258500D01*
X98031916Y-97258500D01*
X98243116Y-97225049D01*
X98446483Y-97158972D01*
X98637009Y-97061894D01*
X98810004Y-96936206D01*
X98961206Y-96785004D01*
X99086894Y-96612009D01*
X99183972Y-96421483D01*
X99250049Y-96218116D01*
X99283500Y-96006916D01*
X99283500Y-95793084D01*
X99250049Y-95581884D01*
X99210830Y-95461179D01*
X99183973Y-95378519D01*
X99183972Y-95378516D01*
X99086893Y-95187990D01*
X98961206Y-95014996D01*
X98810004Y-94863794D01*
X98810000Y-94863791D01*
X98653818Y-94750318D01*
X98611152Y-94694988D01*
X98605173Y-94625375D01*
X98637779Y-94563580D01*
X98653818Y-94549682D01*
X98704200Y-94513076D01*
X98810004Y-94436206D01*
X98961206Y-94285004D01*
X99086894Y-94112009D01*
X99183972Y-93921483D01*
X99250049Y-93718116D01*
X99283500Y-93506916D01*
X99283500Y-93293084D01*
X99250049Y-93081884D01*
X99183972Y-92878517D01*
X99183972Y-92878516D01*
X99086893Y-92687990D01*
X98961206Y-92514996D01*
X98810004Y-92363794D01*
X98810000Y-92363791D01*
X98653818Y-92250318D01*
X98611152Y-92194988D01*
X98605173Y-92125375D01*
X98637779Y-92063580D01*
X98653818Y-92049682D01*
X98704200Y-92013076D01*
X98810004Y-91936206D01*
X98961206Y-91785004D01*
X99086894Y-91612009D01*
X99183972Y-91421483D01*
X99250049Y-91218116D01*
X99283500Y-91006916D01*
X99283500Y-90793084D01*
X99250049Y-90581884D01*
X99183972Y-90378517D01*
X99183972Y-90378516D01*
X99086893Y-90187990D01*
X98961206Y-90014996D01*
X98810004Y-89863794D01*
X98810000Y-89863791D01*
X98653818Y-89750318D01*
X98611152Y-89694988D01*
X98605173Y-89625375D01*
X98637779Y-89563580D01*
X98653818Y-89549682D01*
X98704200Y-89513076D01*
X98810004Y-89436206D01*
X98961206Y-89285004D01*
X99086894Y-89112009D01*
X99183972Y-88921483D01*
X99250049Y-88718116D01*
X99276537Y-88550874D01*
X99306465Y-88487743D01*
X99365776Y-88450811D01*
X99435638Y-88451809D01*
X99486690Y-88482594D01*
X100330181Y-89326085D01*
X100363666Y-89387408D01*
X100366500Y-89413766D01*
X100366500Y-96097398D01*
X100390843Y-96219777D01*
X100390845Y-96219785D01*
X100438598Y-96335072D01*
X100438603Y-96335081D01*
X100507928Y-96438832D01*
X100507931Y-96438836D01*
X102275181Y-98206085D01*
X102308666Y-98267408D01*
X102311500Y-98293766D01*
X102311500Y-98473041D01*
X102291815Y-98540080D01*
X102239011Y-98585835D01*
X102169853Y-98595779D01*
X102106297Y-98566754D01*
X102068523Y-98507976D01*
X102065883Y-98497232D01*
X102064259Y-98489072D01*
X102064258Y-98489065D01*
X102001992Y-98338742D01*
X102001991Y-98338741D01*
X102001988Y-98338735D01*
X101911596Y-98203455D01*
X101911593Y-98203451D01*
X101796548Y-98088406D01*
X101796544Y-98088403D01*
X101661264Y-97998011D01*
X101661255Y-97998006D01*
X101510935Y-97935742D01*
X101510927Y-97935740D01*
X101351358Y-97904000D01*
X101351354Y-97904000D01*
X101188646Y-97904000D01*
X101188641Y-97904000D01*
X101029072Y-97935740D01*
X101029064Y-97935742D01*
X100878744Y-97998006D01*
X100878735Y-97998011D01*
X100743455Y-98088403D01*
X100743451Y-98088406D01*
X100628406Y-98203451D01*
X100628403Y-98203455D01*
X100538011Y-98338735D01*
X100538006Y-98338744D01*
X100475742Y-98489064D01*
X100475740Y-98489072D01*
X100444000Y-98648641D01*
X100444000Y-98811358D01*
X100475740Y-98970927D01*
X100475742Y-98970935D01*
X100538006Y-99121255D01*
X100538011Y-99121264D01*
X100628403Y-99256544D01*
X100628406Y-99256548D01*
X100743451Y-99371593D01*
X100743455Y-99371596D01*
X100878735Y-99461988D01*
X100878741Y-99461991D01*
X100878742Y-99461992D01*
X101029065Y-99524258D01*
X101188641Y-99555999D01*
X101188645Y-99556000D01*
X101188646Y-99556000D01*
X101351355Y-99556000D01*
X101351356Y-99555999D01*
X101510935Y-99524258D01*
X101661258Y-99461992D01*
X101796545Y-99371596D01*
X101911596Y-99256545D01*
X102001992Y-99121258D01*
X102064258Y-98970935D01*
X102065882Y-98962768D01*
X102098266Y-98900857D01*
X102158982Y-98866282D01*
X102228751Y-98870021D01*
X102285424Y-98910886D01*
X102311006Y-98975904D01*
X102311500Y-98986958D01*
X102311500Y-99603654D01*
X102318011Y-99664202D01*
X102318011Y-99664204D01*
X102369111Y-99801204D01*
X102456739Y-99918261D01*
X102573796Y-100005889D01*
X102688949Y-100048839D01*
X102709624Y-100056551D01*
X102710799Y-100056989D01*
X102738050Y-100059918D01*
X102771345Y-100063499D01*
X102771362Y-100063500D01*
X104568638Y-100063500D01*
X104568654Y-100063499D01*
X104595692Y-100060591D01*
X104629201Y-100056989D01*
X104630376Y-100056551D01*
X104643768Y-100051555D01*
X104766204Y-100005889D01*
X104883261Y-99918261D01*
X104970889Y-99801204D01*
X105015957Y-99680371D01*
X105057827Y-99624442D01*
X105123291Y-99600025D01*
X105191564Y-99614877D01*
X105219818Y-99636028D01*
X105324996Y-99741206D01*
X105497991Y-99866894D01*
X105547441Y-99892090D01*
X105688516Y-99963972D01*
X105688519Y-99963973D01*
X105790200Y-99997010D01*
X105891884Y-100030049D01*
X106103084Y-100063500D01*
X106103085Y-100063500D01*
X106316915Y-100063500D01*
X106316916Y-100063500D01*
X106528116Y-100030049D01*
X106731483Y-99963972D01*
X106922009Y-99866894D01*
X107095004Y-99741206D01*
X107246206Y-99590004D01*
X107371894Y-99417009D01*
X107371896Y-99417004D01*
X107374270Y-99413132D01*
X107426080Y-99366254D01*
X107495009Y-99354829D01*
X107559173Y-99382483D01*
X107585730Y-99413132D01*
X107588103Y-99417005D01*
X107588106Y-99417009D01*
X107713794Y-99590004D01*
X107864996Y-99741206D01*
X108037991Y-99866894D01*
X108087441Y-99892090D01*
X108228516Y-99963972D01*
X108228519Y-99963973D01*
X108330200Y-99997010D01*
X108431884Y-100030049D01*
X108643084Y-100063500D01*
X108643085Y-100063500D01*
X108856915Y-100063500D01*
X108856916Y-100063500D01*
X109068116Y-100030049D01*
X109271483Y-99963972D01*
X109462009Y-99866894D01*
X109635004Y-99741206D01*
X109786206Y-99590004D01*
X109911894Y-99417009D01*
X109911896Y-99417004D01*
X109914270Y-99413132D01*
X109966080Y-99366254D01*
X110035009Y-99354829D01*
X110099173Y-99382483D01*
X110125730Y-99413132D01*
X110128103Y-99417005D01*
X110128106Y-99417009D01*
X110253794Y-99590004D01*
X110404996Y-99741206D01*
X110577991Y-99866894D01*
X110588794Y-99872398D01*
X110639590Y-99920371D01*
X110656500Y-99982883D01*
X110656500Y-118996233D01*
X110636815Y-119063272D01*
X110620181Y-119083914D01*
X108737262Y-120966832D01*
X108675939Y-121000317D01*
X108673772Y-121000768D01*
X108564176Y-121022568D01*
X108564168Y-121022570D01*
X108417030Y-121083517D01*
X108284612Y-121171995D01*
X108284605Y-121172001D01*
X108172001Y-121284605D01*
X108171995Y-121284612D01*
X108083517Y-121417030D01*
X108022570Y-121564168D01*
X108022568Y-121564176D01*
X107991500Y-121720365D01*
X107991500Y-121879634D01*
X108022568Y-122035823D01*
X108022570Y-122035831D01*
X108083517Y-122182969D01*
X108171995Y-122315387D01*
X108172001Y-122315394D01*
X108284605Y-122427998D01*
X108284612Y-122428004D01*
X108417030Y-122516482D01*
X108417031Y-122516482D01*
X108417032Y-122516483D01*
X108564169Y-122577430D01*
X108720365Y-122608499D01*
X108720369Y-122608500D01*
X108720370Y-122608500D01*
X108879631Y-122608500D01*
X108879632Y-122608499D01*
X109035831Y-122577430D01*
X109182968Y-122516483D01*
X109315389Y-122428003D01*
X109428003Y-122315389D01*
X109516483Y-122182968D01*
X109577430Y-122035831D01*
X109599231Y-121926222D01*
X109631615Y-121864315D01*
X109633110Y-121862792D01*
X111782072Y-119713833D01*
X111851401Y-119610075D01*
X111899155Y-119494785D01*
X111923500Y-119372394D01*
X111923500Y-119247606D01*
X111923500Y-99982883D01*
X111943185Y-99915844D01*
X111991204Y-99872398D01*
X112002009Y-99866894D01*
X112175004Y-99741206D01*
X112326206Y-99590004D01*
X112451894Y-99417009D01*
X112451896Y-99417004D01*
X112454270Y-99413132D01*
X112506080Y-99366254D01*
X112575009Y-99354829D01*
X112639173Y-99382483D01*
X112665730Y-99413132D01*
X112668103Y-99417005D01*
X112668106Y-99417009D01*
X112793794Y-99590004D01*
X112944996Y-99741206D01*
X113117991Y-99866894D01*
X113128794Y-99872398D01*
X113179590Y-99920371D01*
X113196500Y-99982883D01*
X113196500Y-113892398D01*
X113220843Y-114014777D01*
X113220845Y-114014785D01*
X113268598Y-114130072D01*
X113268603Y-114130081D01*
X113337928Y-114233832D01*
X113337931Y-114233836D01*
X113707929Y-114603833D01*
X113766313Y-114662217D01*
X113796168Y-114692072D01*
X113899918Y-114761396D01*
X113899924Y-114761399D01*
X113899925Y-114761400D01*
X114015215Y-114809155D01*
X114109971Y-114828003D01*
X114137601Y-114833499D01*
X114137605Y-114833500D01*
X114137606Y-114833500D01*
X114255223Y-114833500D01*
X114322262Y-114853185D01*
X114324113Y-114854397D01*
X114417033Y-114916484D01*
X114481032Y-114942993D01*
X114564169Y-114977430D01*
X114720365Y-115008499D01*
X114720369Y-115008500D01*
X114720370Y-115008500D01*
X114879631Y-115008500D01*
X114879632Y-115008499D01*
X115035831Y-114977430D01*
X115182968Y-114916483D01*
X115315389Y-114828003D01*
X115428003Y-114715389D01*
X115516483Y-114582968D01*
X115577430Y-114435831D01*
X115608500Y-114279630D01*
X115608500Y-114120370D01*
X115577430Y-113964169D01*
X115516483Y-113817032D01*
X115512737Y-113811426D01*
X115428004Y-113684612D01*
X115427998Y-113684605D01*
X115315394Y-113572001D01*
X115315387Y-113571995D01*
X115182969Y-113483517D01*
X115035831Y-113422570D01*
X115035823Y-113422568D01*
X114879634Y-113391500D01*
X114879630Y-113391500D01*
X114720370Y-113391500D01*
X114692614Y-113397020D01*
X114611690Y-113413117D01*
X114542099Y-113406888D01*
X114486922Y-113364025D01*
X114463678Y-113298135D01*
X114463500Y-113291499D01*
X114463500Y-106120365D01*
X118191500Y-106120365D01*
X118191500Y-106279634D01*
X118222568Y-106435823D01*
X118222570Y-106435831D01*
X118283517Y-106582969D01*
X118371995Y-106715387D01*
X118372001Y-106715394D01*
X118484605Y-106827998D01*
X118484612Y-106828004D01*
X118617030Y-106916482D01*
X118617031Y-106916482D01*
X118617032Y-106916483D01*
X118764169Y-106977430D01*
X118889849Y-107002429D01*
X118920365Y-107008499D01*
X118920369Y-107008500D01*
X118920370Y-107008500D01*
X119079631Y-107008500D01*
X119079632Y-107008499D01*
X119235831Y-106977430D01*
X119382968Y-106916483D01*
X119515389Y-106828003D01*
X119628003Y-106715389D01*
X119716483Y-106582968D01*
X119777430Y-106435831D01*
X119808500Y-106279630D01*
X119808500Y-106120370D01*
X119777430Y-105964169D01*
X119716483Y-105817032D01*
X119685418Y-105770540D01*
X119628004Y-105684612D01*
X119627998Y-105684605D01*
X119515394Y-105572001D01*
X119515387Y-105571995D01*
X119382969Y-105483517D01*
X119235831Y-105422570D01*
X119235823Y-105422568D01*
X119079634Y-105391500D01*
X119079630Y-105391500D01*
X118920370Y-105391500D01*
X118920365Y-105391500D01*
X118764176Y-105422568D01*
X118764168Y-105422570D01*
X118617030Y-105483517D01*
X118484612Y-105571995D01*
X118484605Y-105572001D01*
X118372001Y-105684605D01*
X118371995Y-105684612D01*
X118283517Y-105817030D01*
X118222570Y-105964168D01*
X118222568Y-105964176D01*
X118191500Y-106120365D01*
X114463500Y-106120365D01*
X114463500Y-99982883D01*
X114483185Y-99915844D01*
X114531204Y-99872398D01*
X114542009Y-99866894D01*
X114715004Y-99741206D01*
X114866206Y-99590004D01*
X114991894Y-99417009D01*
X114991896Y-99417004D01*
X114994270Y-99413132D01*
X115046080Y-99366254D01*
X115115009Y-99354829D01*
X115179173Y-99382483D01*
X115205730Y-99413132D01*
X115208103Y-99417005D01*
X115208106Y-99417009D01*
X115333794Y-99590004D01*
X115484996Y-99741206D01*
X115657991Y-99866894D01*
X115707441Y-99892090D01*
X115848516Y-99963972D01*
X115848519Y-99963973D01*
X115950200Y-99997010D01*
X116051884Y-100030049D01*
X116263084Y-100063500D01*
X116263085Y-100063500D01*
X116476915Y-100063500D01*
X116476916Y-100063500D01*
X116688116Y-100030049D01*
X116699648Y-100026301D01*
X116769485Y-100024305D01*
X116825647Y-100056551D01*
X127330181Y-110561085D01*
X127363666Y-110622408D01*
X127366500Y-110648766D01*
X127366500Y-113723745D01*
X127346815Y-113790784D01*
X127294011Y-113836539D01*
X127224853Y-113846483D01*
X127161297Y-113817458D01*
X127154819Y-113811426D01*
X127115394Y-113772001D01*
X127115387Y-113771995D01*
X126982969Y-113683517D01*
X126835831Y-113622570D01*
X126835823Y-113622568D01*
X126679634Y-113591500D01*
X126679630Y-113591500D01*
X126520370Y-113591500D01*
X126520365Y-113591500D01*
X126364176Y-113622568D01*
X126364168Y-113622570D01*
X126217030Y-113683517D01*
X126084612Y-113771995D01*
X126084605Y-113772001D01*
X125972001Y-113884605D01*
X125971995Y-113884612D01*
X125883517Y-114017030D01*
X125822570Y-114164168D01*
X125822568Y-114164176D01*
X125791500Y-114320365D01*
X125791500Y-114479634D01*
X125822568Y-114635823D01*
X125822570Y-114635831D01*
X125883517Y-114782969D01*
X125971995Y-114915387D01*
X125972001Y-114915394D01*
X126084605Y-115027998D01*
X126084612Y-115028004D01*
X126217030Y-115116482D01*
X126217031Y-115116482D01*
X126217032Y-115116483D01*
X126364169Y-115177430D01*
X126520365Y-115208499D01*
X126520369Y-115208500D01*
X126520370Y-115208500D01*
X126679631Y-115208500D01*
X126679632Y-115208499D01*
X126835831Y-115177430D01*
X126982968Y-115116483D01*
X127115389Y-115028003D01*
X127134893Y-115008499D01*
X127154819Y-114988574D01*
X127216142Y-114955089D01*
X127285834Y-114960073D01*
X127341767Y-115001945D01*
X127366184Y-115067409D01*
X127366500Y-115076255D01*
X127366500Y-118255222D01*
X127346815Y-118322261D01*
X127345603Y-118324112D01*
X127283516Y-118417033D01*
X127222570Y-118564168D01*
X127222568Y-118564176D01*
X127191500Y-118720365D01*
X127191500Y-118879634D01*
X127222568Y-119035823D01*
X127222570Y-119035831D01*
X127283517Y-119182969D01*
X127371995Y-119315387D01*
X127372001Y-119315394D01*
X127484605Y-119427998D01*
X127484612Y-119428004D01*
X127617030Y-119516482D01*
X127617031Y-119516482D01*
X127617032Y-119516483D01*
X127764169Y-119577430D01*
X127920365Y-119608499D01*
X127920369Y-119608500D01*
X127920370Y-119608500D01*
X128079631Y-119608500D01*
X128079632Y-119608499D01*
X128235831Y-119577430D01*
X128382968Y-119516483D01*
X128515389Y-119428003D01*
X128628003Y-119315389D01*
X128716483Y-119182968D01*
X128777430Y-119035831D01*
X128808500Y-118879630D01*
X128808500Y-118720370D01*
X128777430Y-118564169D01*
X128716483Y-118417032D01*
X128654397Y-118324112D01*
X128633520Y-118257434D01*
X128633500Y-118255222D01*
X128633500Y-110272605D01*
X128633499Y-110272601D01*
X128609157Y-110150222D01*
X128609154Y-110150213D01*
X128595168Y-110116447D01*
X128561401Y-110034925D01*
X128561399Y-110034923D01*
X128561399Y-110034921D01*
X128492072Y-109931167D01*
X128492069Y-109931163D01*
X118836086Y-100275181D01*
X118802601Y-100213858D01*
X118807585Y-100144166D01*
X118849457Y-100088233D01*
X118914921Y-100063816D01*
X118923767Y-100063500D01*
X119016915Y-100063500D01*
X119016916Y-100063500D01*
X119228116Y-100030049D01*
X119431483Y-99963972D01*
X119622009Y-99866894D01*
X119795004Y-99741206D01*
X119946206Y-99590004D01*
X120071894Y-99417009D01*
X120071896Y-99417004D01*
X120074270Y-99413132D01*
X120126080Y-99366254D01*
X120195009Y-99354829D01*
X120259173Y-99382483D01*
X120285730Y-99413132D01*
X120288103Y-99417005D01*
X120288106Y-99417009D01*
X120413794Y-99590004D01*
X120564996Y-99741206D01*
X120737991Y-99866894D01*
X120787441Y-99892090D01*
X120928516Y-99963972D01*
X120928519Y-99963973D01*
X121030200Y-99997010D01*
X121131884Y-100030049D01*
X121343084Y-100063500D01*
X121343085Y-100063500D01*
X121556915Y-100063500D01*
X121556916Y-100063500D01*
X121768116Y-100030049D01*
X121971483Y-99963972D01*
X122162009Y-99866894D01*
X122335004Y-99741206D01*
X122486206Y-99590004D01*
X122611894Y-99417009D01*
X122611896Y-99417004D01*
X122614270Y-99413132D01*
X122666080Y-99366254D01*
X122735009Y-99354829D01*
X122799173Y-99382483D01*
X122825730Y-99413132D01*
X122828103Y-99417005D01*
X122828106Y-99417009D01*
X122953794Y-99590004D01*
X123104996Y-99741206D01*
X123277991Y-99866894D01*
X123327441Y-99892090D01*
X123468516Y-99963972D01*
X123468519Y-99963973D01*
X123570200Y-99997010D01*
X123671884Y-100030049D01*
X123883084Y-100063500D01*
X123883085Y-100063500D01*
X124096915Y-100063500D01*
X124096916Y-100063500D01*
X124308116Y-100030049D01*
X124511483Y-99963972D01*
X124702009Y-99866894D01*
X124875004Y-99741206D01*
X125026206Y-99590004D01*
X125151894Y-99417009D01*
X125151896Y-99417004D01*
X125154270Y-99413132D01*
X125206080Y-99366254D01*
X125275009Y-99354829D01*
X125339173Y-99382483D01*
X125365730Y-99413132D01*
X125368103Y-99417005D01*
X125368106Y-99417009D01*
X125493794Y-99590004D01*
X125644996Y-99741206D01*
X125817991Y-99866894D01*
X125867441Y-99892090D01*
X126008516Y-99963972D01*
X126008519Y-99963973D01*
X126110200Y-99997010D01*
X126211884Y-100030049D01*
X126423084Y-100063500D01*
X126423085Y-100063500D01*
X126636915Y-100063500D01*
X126636916Y-100063500D01*
X126848116Y-100030049D01*
X127051483Y-99963972D01*
X127242009Y-99866894D01*
X127415004Y-99741206D01*
X127566206Y-99590004D01*
X127691894Y-99417009D01*
X127691896Y-99417004D01*
X127694270Y-99413132D01*
X127746080Y-99366254D01*
X127815009Y-99354829D01*
X127879173Y-99382483D01*
X127905730Y-99413132D01*
X127908103Y-99417005D01*
X127908106Y-99417009D01*
X128033794Y-99590004D01*
X128184996Y-99741206D01*
X128357991Y-99866894D01*
X128407441Y-99892090D01*
X128548516Y-99963972D01*
X128548519Y-99963973D01*
X128650200Y-99997010D01*
X128751884Y-100030049D01*
X128963084Y-100063500D01*
X128963085Y-100063500D01*
X129176915Y-100063500D01*
X129176916Y-100063500D01*
X129388116Y-100030049D01*
X129591483Y-99963972D01*
X129782009Y-99866894D01*
X129955004Y-99741206D01*
X130106206Y-99590004D01*
X130231894Y-99417009D01*
X130231896Y-99417004D01*
X130234270Y-99413132D01*
X130286080Y-99366254D01*
X130355009Y-99354829D01*
X130419173Y-99382483D01*
X130445730Y-99413132D01*
X130448103Y-99417005D01*
X130448106Y-99417009D01*
X130573794Y-99590004D01*
X130724996Y-99741206D01*
X130897991Y-99866894D01*
X130947441Y-99892090D01*
X131088516Y-99963972D01*
X131088519Y-99963973D01*
X131190200Y-99997010D01*
X131291884Y-100030049D01*
X131503084Y-100063500D01*
X131503085Y-100063500D01*
X131716915Y-100063500D01*
X131716916Y-100063500D01*
X131928116Y-100030049D01*
X132131483Y-99963972D01*
X132322009Y-99866894D01*
X132495004Y-99741206D01*
X132646206Y-99590004D01*
X132771894Y-99417009D01*
X132771896Y-99417004D01*
X132774270Y-99413132D01*
X132826080Y-99366254D01*
X132895009Y-99354829D01*
X132959173Y-99382483D01*
X132985730Y-99413132D01*
X132988103Y-99417005D01*
X132988106Y-99417009D01*
X133113794Y-99590004D01*
X133264996Y-99741206D01*
X133437991Y-99866894D01*
X133487441Y-99892090D01*
X133628516Y-99963972D01*
X133628519Y-99963973D01*
X133730200Y-99997010D01*
X133831884Y-100030049D01*
X134043084Y-100063500D01*
X134043085Y-100063500D01*
X134256915Y-100063500D01*
X134256916Y-100063500D01*
X134468116Y-100030049D01*
X134671483Y-99963972D01*
X134862009Y-99866894D01*
X135035004Y-99741206D01*
X135186206Y-99590004D01*
X135311894Y-99417009D01*
X135314283Y-99412319D01*
X135362254Y-99361522D01*
X135430074Y-99344724D01*
X135496210Y-99367258D01*
X135532201Y-99408788D01*
X135532832Y-99408402D01*
X135535164Y-99412207D01*
X135535251Y-99412308D01*
X135535376Y-99412554D01*
X135660272Y-99584459D01*
X135660276Y-99584464D01*
X135810535Y-99734723D01*
X135810540Y-99734727D01*
X135982442Y-99859620D01*
X136171782Y-99956095D01*
X136373871Y-100021757D01*
X136440000Y-100032231D01*
X136440000Y-99138012D01*
X136497007Y-99170925D01*
X136624174Y-99205000D01*
X136755826Y-99205000D01*
X136882993Y-99170925D01*
X136940000Y-99138012D01*
X136940000Y-100032230D01*
X137006126Y-100021757D01*
X137006129Y-100021757D01*
X137208217Y-99956095D01*
X137397557Y-99859620D01*
X137569459Y-99734727D01*
X137569464Y-99734723D01*
X137719723Y-99584464D01*
X137719727Y-99584459D01*
X137844619Y-99412560D01*
X137844738Y-99412327D01*
X137844808Y-99412252D01*
X137847168Y-99408402D01*
X137847976Y-99408897D01*
X137892707Y-99361526D01*
X137960526Y-99344723D01*
X138026663Y-99367254D01*
X138065712Y-99412311D01*
X138068107Y-99417012D01*
X138147477Y-99526255D01*
X138170957Y-99592061D01*
X138155131Y-99660115D01*
X138134840Y-99686821D01*
X134007731Y-103813929D01*
X134007730Y-103813930D01*
X133924281Y-103938822D01*
X133866803Y-104077586D01*
X133866801Y-104077592D01*
X133837500Y-104224897D01*
X133837500Y-114612636D01*
X133817815Y-114679675D01*
X133765011Y-114725430D01*
X133695853Y-114735374D01*
X133632297Y-114706349D01*
X133594523Y-114647571D01*
X133591883Y-114636827D01*
X133583324Y-114593805D01*
X133577430Y-114564169D01*
X133516483Y-114417032D01*
X133485418Y-114370540D01*
X133428004Y-114284612D01*
X133427998Y-114284605D01*
X133315394Y-114172001D01*
X133315387Y-114171995D01*
X133182969Y-114083517D01*
X133035831Y-114022570D01*
X133035823Y-114022568D01*
X132879634Y-113991500D01*
X132879630Y-113991500D01*
X132720370Y-113991500D01*
X132720365Y-113991500D01*
X132564176Y-114022568D01*
X132564168Y-114022570D01*
X132417030Y-114083517D01*
X132284612Y-114171995D01*
X132284605Y-114172001D01*
X132172001Y-114284605D01*
X132171995Y-114284612D01*
X132083517Y-114417030D01*
X132022570Y-114564168D01*
X132022568Y-114564176D01*
X131991500Y-114720365D01*
X131991500Y-114879634D01*
X132022568Y-115035823D01*
X132022570Y-115035831D01*
X132083517Y-115182969D01*
X132171995Y-115315387D01*
X132172001Y-115315394D01*
X132284605Y-115427998D01*
X132284612Y-115428004D01*
X132417030Y-115516482D01*
X132417031Y-115516482D01*
X132417032Y-115516483D01*
X132564169Y-115577430D01*
X132720365Y-115608499D01*
X132720369Y-115608500D01*
X132720370Y-115608500D01*
X132879631Y-115608500D01*
X132879632Y-115608499D01*
X133035831Y-115577430D01*
X133182968Y-115516483D01*
X133315389Y-115428003D01*
X133428003Y-115315389D01*
X133516483Y-115182968D01*
X133577430Y-115035831D01*
X133587071Y-114987363D01*
X133591883Y-114963172D01*
X133624267Y-114901261D01*
X133684983Y-114866687D01*
X133754753Y-114870426D01*
X133811425Y-114911292D01*
X133837006Y-114976310D01*
X133837500Y-114987363D01*
X133837500Y-125503459D01*
X133828062Y-125550910D01*
X133822570Y-125564168D01*
X133822568Y-125564176D01*
X133791500Y-125720365D01*
X133791500Y-125879634D01*
X133822568Y-126035823D01*
X133822570Y-126035831D01*
X133883517Y-126182969D01*
X133971995Y-126315387D01*
X133972001Y-126315394D01*
X134084605Y-126427998D01*
X134084612Y-126428004D01*
X134217030Y-126516482D01*
X134217031Y-126516482D01*
X134217032Y-126516483D01*
X134364169Y-126577430D01*
X134520365Y-126608499D01*
X134520369Y-126608500D01*
X134520370Y-126608500D01*
X134679631Y-126608500D01*
X134679632Y-126608499D01*
X134835831Y-126577430D01*
X134982968Y-126516483D01*
X135115389Y-126428003D01*
X135228003Y-126315389D01*
X135316483Y-126182968D01*
X135377430Y-126035831D01*
X135408500Y-125879630D01*
X135408500Y-125720370D01*
X135377430Y-125564169D01*
X135371938Y-125550910D01*
X135362500Y-125503459D01*
X135362500Y-114049447D01*
X138991500Y-114049447D01*
X138991500Y-115350537D01*
X138991501Y-115350553D01*
X139002113Y-115454427D01*
X139038480Y-115564176D01*
X139057885Y-115622738D01*
X139150970Y-115773652D01*
X139276348Y-115899030D01*
X139427262Y-115992115D01*
X139595574Y-116047887D01*
X139699455Y-116058500D01*
X141300544Y-116058499D01*
X141404426Y-116047887D01*
X141572738Y-115992115D01*
X141723652Y-115899030D01*
X141849030Y-115773652D01*
X141942115Y-115622738D01*
X141997887Y-115454426D01*
X142008500Y-115350545D01*
X142008499Y-114049456D01*
X141997887Y-113945574D01*
X141942115Y-113777262D01*
X141849030Y-113626348D01*
X141723652Y-113500970D01*
X141572738Y-113407885D01*
X141572734Y-113407883D01*
X141569254Y-113405737D01*
X141522530Y-113353789D01*
X141511307Y-113284826D01*
X141539151Y-113220744D01*
X141546670Y-113212516D01*
X141679728Y-113079458D01*
X141804620Y-112907557D01*
X141901095Y-112718217D01*
X141966757Y-112516129D01*
X141966757Y-112516126D01*
X141977231Y-112450000D01*
X140933012Y-112450000D01*
X140965925Y-112392993D01*
X141000000Y-112265826D01*
X141000000Y-112134174D01*
X140965925Y-112007007D01*
X140933012Y-111950000D01*
X141977231Y-111950000D01*
X141966757Y-111883873D01*
X141966757Y-111883870D01*
X141901095Y-111681782D01*
X141804620Y-111492442D01*
X141679727Y-111320540D01*
X141679723Y-111320535D01*
X141529464Y-111170276D01*
X141529459Y-111170272D01*
X141357557Y-111045379D01*
X141168217Y-110948904D01*
X140966129Y-110883242D01*
X140756246Y-110850000D01*
X140750000Y-110850000D01*
X140750000Y-111766988D01*
X140692993Y-111734075D01*
X140565826Y-111700000D01*
X140434174Y-111700000D01*
X140307007Y-111734075D01*
X140250000Y-111766988D01*
X140250000Y-110850000D01*
X140243754Y-110850000D01*
X140033872Y-110883242D01*
X140033869Y-110883242D01*
X139831782Y-110948904D01*
X139642442Y-111045379D01*
X139470540Y-111170272D01*
X139470535Y-111170276D01*
X139320276Y-111320535D01*
X139320272Y-111320540D01*
X139195379Y-111492442D01*
X139098904Y-111681782D01*
X139033242Y-111883870D01*
X139033242Y-111883873D01*
X139022769Y-111950000D01*
X140066988Y-111950000D01*
X140034075Y-112007007D01*
X140000000Y-112134174D01*
X140000000Y-112265826D01*
X140034075Y-112392993D01*
X140066988Y-112450000D01*
X139022769Y-112450000D01*
X139033242Y-112516126D01*
X139033242Y-112516129D01*
X139098904Y-112718217D01*
X139195379Y-112907557D01*
X139320272Y-113079459D01*
X139320276Y-113079464D01*
X139453329Y-113212517D01*
X139486814Y-113273840D01*
X139481830Y-113343532D01*
X139439958Y-113399465D01*
X139430745Y-113405736D01*
X139276351Y-113500967D01*
X139276347Y-113500970D01*
X139150971Y-113626346D01*
X139057886Y-113777259D01*
X139057884Y-113777264D01*
X139002113Y-113945572D01*
X138991500Y-114049447D01*
X135362500Y-114049447D01*
X135362500Y-108720365D01*
X137191500Y-108720365D01*
X137191500Y-108879634D01*
X137222568Y-109035823D01*
X137222570Y-109035831D01*
X137283517Y-109182969D01*
X137371995Y-109315387D01*
X137372001Y-109315394D01*
X137484605Y-109427998D01*
X137484612Y-109428004D01*
X137617030Y-109516482D01*
X137617031Y-109516482D01*
X137617032Y-109516483D01*
X137764169Y-109577430D01*
X137920365Y-109608499D01*
X137920369Y-109608500D01*
X137920370Y-109608500D01*
X138079631Y-109608500D01*
X138079632Y-109608499D01*
X138235831Y-109577430D01*
X138382968Y-109516483D01*
X138515389Y-109428003D01*
X138628003Y-109315389D01*
X138716483Y-109182968D01*
X138777430Y-109035831D01*
X138808500Y-108879630D01*
X138808500Y-108720370D01*
X138777430Y-108564169D01*
X138716483Y-108417032D01*
X138652983Y-108321997D01*
X138628004Y-108284612D01*
X138627998Y-108284605D01*
X138515394Y-108172001D01*
X138515387Y-108171995D01*
X138382969Y-108083517D01*
X138235831Y-108022570D01*
X138235823Y-108022568D01*
X138079634Y-107991500D01*
X138079630Y-107991500D01*
X137920370Y-107991500D01*
X137920365Y-107991500D01*
X137764176Y-108022568D01*
X137764168Y-108022570D01*
X137617030Y-108083517D01*
X137484612Y-108171995D01*
X137484605Y-108172001D01*
X137372001Y-108284605D01*
X137371995Y-108284612D01*
X137283517Y-108417030D01*
X137222570Y-108564168D01*
X137222568Y-108564176D01*
X137191500Y-108720365D01*
X135362500Y-108720365D01*
X135362500Y-107104474D01*
X135382185Y-107037435D01*
X135434989Y-106991680D01*
X135504147Y-106981736D01*
X135533949Y-106989912D01*
X135564169Y-107002430D01*
X135720365Y-107033499D01*
X135720369Y-107033500D01*
X135720370Y-107033500D01*
X135879631Y-107033500D01*
X135879632Y-107033499D01*
X136035831Y-107002430D01*
X136182968Y-106941483D01*
X136315389Y-106853003D01*
X136428003Y-106740389D01*
X136516483Y-106607968D01*
X136577430Y-106460831D01*
X136608500Y-106304630D01*
X136608500Y-106145370D01*
X136577430Y-105989169D01*
X136516483Y-105842032D01*
X136499777Y-105817030D01*
X136428004Y-105709612D01*
X136427998Y-105709605D01*
X136315394Y-105597001D01*
X136315387Y-105596995D01*
X136244204Y-105549433D01*
X136244154Y-105549400D01*
X136182967Y-105508516D01*
X136040362Y-105449447D01*
X138991500Y-105449447D01*
X138991500Y-106750537D01*
X138991501Y-106750553D01*
X139002113Y-106854427D01*
X139047008Y-106989914D01*
X139057885Y-107022738D01*
X139150970Y-107173652D01*
X139276348Y-107299030D01*
X139427262Y-107392115D01*
X139595574Y-107447887D01*
X139699455Y-107458500D01*
X141300544Y-107458499D01*
X141404426Y-107447887D01*
X141572738Y-107392115D01*
X141723652Y-107299030D01*
X141849030Y-107173652D01*
X141942115Y-107022738D01*
X141997887Y-106854426D01*
X142008500Y-106750545D01*
X142008499Y-105449456D01*
X141997887Y-105345574D01*
X141942115Y-105177262D01*
X141849030Y-105026348D01*
X141723652Y-104900970D01*
X141572738Y-104807885D01*
X141572734Y-104807883D01*
X141569254Y-104805737D01*
X141522530Y-104753789D01*
X141511307Y-104684826D01*
X141539151Y-104620744D01*
X141546670Y-104612516D01*
X141679728Y-104479458D01*
X141804620Y-104307557D01*
X141901095Y-104118217D01*
X141966757Y-103916129D01*
X141966757Y-103916126D01*
X141977231Y-103850000D01*
X140933012Y-103850000D01*
X140965925Y-103792993D01*
X141000000Y-103665826D01*
X141000000Y-103534174D01*
X140965925Y-103407007D01*
X140933012Y-103350000D01*
X141977231Y-103350000D01*
X141966757Y-103283873D01*
X141966757Y-103283870D01*
X141901095Y-103081782D01*
X141804620Y-102892442D01*
X141679727Y-102720540D01*
X141679723Y-102720535D01*
X141529464Y-102570276D01*
X141529459Y-102570272D01*
X141357557Y-102445379D01*
X141168217Y-102348904D01*
X140966129Y-102283242D01*
X140756246Y-102250000D01*
X140750000Y-102250000D01*
X140750000Y-103166988D01*
X140692993Y-103134075D01*
X140565826Y-103100000D01*
X140434174Y-103100000D01*
X140307007Y-103134075D01*
X140250000Y-103166988D01*
X140250000Y-102250000D01*
X140243754Y-102250000D01*
X140033872Y-102283242D01*
X140033869Y-102283242D01*
X139831782Y-102348904D01*
X139642442Y-102445379D01*
X139470540Y-102570272D01*
X139470535Y-102570276D01*
X139320276Y-102720535D01*
X139320272Y-102720540D01*
X139195379Y-102892442D01*
X139098904Y-103081782D01*
X139033242Y-103283870D01*
X139033242Y-103283873D01*
X139022769Y-103350000D01*
X140066988Y-103350000D01*
X140034075Y-103407007D01*
X140000000Y-103534174D01*
X140000000Y-103665826D01*
X140034075Y-103792993D01*
X140066988Y-103850000D01*
X139022769Y-103850000D01*
X139033242Y-103916126D01*
X139033242Y-103916129D01*
X139098904Y-104118217D01*
X139195379Y-104307557D01*
X139320272Y-104479459D01*
X139320276Y-104479464D01*
X139453329Y-104612517D01*
X139486814Y-104673840D01*
X139481830Y-104743532D01*
X139439958Y-104799465D01*
X139430745Y-104805736D01*
X139276351Y-104900967D01*
X139276347Y-104900970D01*
X139150971Y-105026346D01*
X139057886Y-105177259D01*
X139057884Y-105177264D01*
X139002113Y-105345572D01*
X138991500Y-105449447D01*
X136040362Y-105449447D01*
X136035831Y-105447570D01*
X136035823Y-105447568D01*
X135879634Y-105416500D01*
X135879630Y-105416500D01*
X135720370Y-105416500D01*
X135720365Y-105416500D01*
X135564176Y-105447568D01*
X135564168Y-105447570D01*
X135533953Y-105460086D01*
X135464483Y-105467555D01*
X135402004Y-105436280D01*
X135366352Y-105376191D01*
X135362500Y-105345525D01*
X135362500Y-104667200D01*
X135382185Y-104600161D01*
X135398819Y-104579519D01*
X139822269Y-100156069D01*
X139822273Y-100156065D01*
X139905718Y-100031179D01*
X139963197Y-99892413D01*
X139963241Y-99892193D01*
X139963294Y-99892090D01*
X139964966Y-99886581D01*
X139966010Y-99886897D01*
X139995623Y-99830280D01*
X140011971Y-99816062D01*
X140115004Y-99741206D01*
X140266206Y-99590004D01*
X140391894Y-99417009D01*
X140488972Y-99226483D01*
X140555049Y-99023116D01*
X140567532Y-98944292D01*
X140597460Y-98881161D01*
X140602306Y-98876030D01*
X140872319Y-98606018D01*
X140933642Y-98572533D01*
X141003334Y-98577517D01*
X141059267Y-98619389D01*
X141083684Y-98684853D01*
X141084000Y-98693699D01*
X141084000Y-98811358D01*
X141115740Y-98970927D01*
X141115742Y-98970935D01*
X141178006Y-99121255D01*
X141178011Y-99121264D01*
X141268403Y-99256544D01*
X141268406Y-99256548D01*
X141383451Y-99371593D01*
X141383455Y-99371596D01*
X141518735Y-99461988D01*
X141518741Y-99461991D01*
X141518742Y-99461992D01*
X141669065Y-99524258D01*
X141828641Y-99555999D01*
X141828645Y-99556000D01*
X141828646Y-99556000D01*
X141991355Y-99556000D01*
X141991356Y-99555999D01*
X142150935Y-99524258D01*
X142301258Y-99461992D01*
X142436545Y-99371596D01*
X142551596Y-99256545D01*
X142641992Y-99121258D01*
X142704258Y-98970935D01*
X142736000Y-98811354D01*
X142736000Y-98648646D01*
X142704258Y-98489065D01*
X142641992Y-98338742D01*
X142641991Y-98338741D01*
X142641988Y-98338735D01*
X142551596Y-98203455D01*
X142551593Y-98203451D01*
X142436548Y-98088406D01*
X142436544Y-98088403D01*
X142301264Y-97998011D01*
X142301255Y-97998006D01*
X142150935Y-97935742D01*
X142150927Y-97935740D01*
X141991358Y-97904000D01*
X141991354Y-97904000D01*
X141873699Y-97904000D01*
X141806660Y-97884315D01*
X141760905Y-97831511D01*
X141750961Y-97762353D01*
X141779986Y-97698797D01*
X141786018Y-97692319D01*
X142693332Y-96785006D01*
X143892273Y-95586065D01*
X143975718Y-95461179D01*
X144033197Y-95322413D01*
X144043015Y-95273055D01*
X144062500Y-95175100D01*
X144062500Y-75024900D01*
X144062500Y-75024897D01*
X144033198Y-74877592D01*
X144033197Y-74877591D01*
X144033197Y-74877587D01*
X143975718Y-74738821D01*
X143937526Y-74681662D01*
X143937526Y-74681661D01*
X143892271Y-74613932D01*
X143892268Y-74613929D01*
X139348853Y-70070515D01*
X139321973Y-70030286D01*
X139316486Y-70017038D01*
X139316484Y-70017035D01*
X139316483Y-70017032D01*
X139316116Y-70016483D01*
X139228004Y-69884612D01*
X139227998Y-69884605D01*
X139115394Y-69772001D01*
X139115387Y-69771995D01*
X138982969Y-69683517D01*
X138835831Y-69622570D01*
X138835823Y-69622568D01*
X138679634Y-69591500D01*
X138679630Y-69591500D01*
X138520370Y-69591500D01*
X138520365Y-69591500D01*
X138364176Y-69622568D01*
X138364168Y-69622570D01*
X138217030Y-69683517D01*
X138084612Y-69771995D01*
X138084605Y-69772001D01*
X137972001Y-69884605D01*
X137971995Y-69884612D01*
X137883517Y-70017030D01*
X137822570Y-70164168D01*
X137822568Y-70164176D01*
X137791500Y-70320365D01*
X137791500Y-70479634D01*
X137822568Y-70635823D01*
X137822570Y-70635831D01*
X137883517Y-70782969D01*
X137971995Y-70915387D01*
X137972001Y-70915394D01*
X138084605Y-71027998D01*
X138084612Y-71028004D01*
X138217021Y-71116476D01*
X138217025Y-71116478D01*
X138217032Y-71116483D01*
X138217035Y-71116484D01*
X138217038Y-71116486D01*
X138230286Y-71121973D01*
X138270515Y-71148853D01*
X142501181Y-75379519D01*
X142534666Y-75440842D01*
X142537500Y-75467200D01*
X142537500Y-82683871D01*
X142517815Y-82750910D01*
X142465011Y-82796665D01*
X142395853Y-82806609D01*
X142344610Y-82786974D01*
X142301262Y-82758010D01*
X142301255Y-82758006D01*
X142150935Y-82695742D01*
X142150927Y-82695740D01*
X141991358Y-82664000D01*
X141991354Y-82664000D01*
X141828646Y-82664000D01*
X141828641Y-82664000D01*
X141669072Y-82695740D01*
X141669064Y-82695742D01*
X141518744Y-82758006D01*
X141518735Y-82758011D01*
X141383455Y-82848403D01*
X141383451Y-82848406D01*
X141268406Y-82963451D01*
X141268403Y-82963455D01*
X141178011Y-83098735D01*
X141178006Y-83098744D01*
X141115742Y-83249064D01*
X141115740Y-83249072D01*
X141084000Y-83408641D01*
X141084000Y-83571358D01*
X141115740Y-83730927D01*
X141115742Y-83730935D01*
X141178006Y-83881255D01*
X141178011Y-83881264D01*
X141268403Y-84016544D01*
X141268406Y-84016548D01*
X141383451Y-84131593D01*
X141383455Y-84131596D01*
X141518735Y-84221988D01*
X141518741Y-84221991D01*
X141518742Y-84221992D01*
X141669065Y-84284258D01*
X141828641Y-84315999D01*
X141828645Y-84316000D01*
X141828646Y-84316000D01*
X141991355Y-84316000D01*
X141991356Y-84315999D01*
X142150935Y-84284258D01*
X142301258Y-84221992D01*
X142344609Y-84193026D01*
X142411286Y-84172148D01*
X142478666Y-84190632D01*
X142525357Y-84242611D01*
X142537500Y-84296128D01*
X142537500Y-94732799D01*
X142517815Y-94799838D01*
X142501181Y-94820480D01*
X139897431Y-97424229D01*
X139836108Y-97457714D01*
X139766416Y-97452730D01*
X139753457Y-97447034D01*
X139751479Y-97446026D01*
X139548117Y-97379951D01*
X139380777Y-97353447D01*
X139336916Y-97346500D01*
X139123084Y-97346500D01*
X139079223Y-97353447D01*
X138911882Y-97379951D01*
X138708519Y-97446026D01*
X138708516Y-97446027D01*
X138517990Y-97543106D01*
X138344993Y-97668796D01*
X138193796Y-97819993D01*
X138068103Y-97992994D01*
X138065709Y-97997693D01*
X138017731Y-98048485D01*
X137949908Y-98065275D01*
X137883775Y-98042732D01*
X137847800Y-98001210D01*
X137847168Y-98001598D01*
X137844829Y-97997781D01*
X137844743Y-97997682D01*
X137844620Y-97997441D01*
X137719727Y-97825540D01*
X137719723Y-97825535D01*
X137569464Y-97675276D01*
X137569459Y-97675272D01*
X137397557Y-97550379D01*
X137208215Y-97453903D01*
X137006124Y-97388241D01*
X136940000Y-97377768D01*
X136940000Y-98271988D01*
X136882993Y-98239075D01*
X136755826Y-98205000D01*
X136624174Y-98205000D01*
X136497007Y-98239075D01*
X136440000Y-98271988D01*
X136440000Y-97377768D01*
X136439999Y-97377768D01*
X136373875Y-97388241D01*
X136171784Y-97453903D01*
X135982442Y-97550379D01*
X135810540Y-97675272D01*
X135810535Y-97675276D01*
X135660276Y-97825535D01*
X135660272Y-97825540D01*
X135535376Y-97997446D01*
X135535374Y-97997448D01*
X135535246Y-97997701D01*
X135535172Y-97997779D01*
X135532832Y-98001598D01*
X135532029Y-98001106D01*
X135487264Y-98048489D01*
X135419441Y-98065274D01*
X135353309Y-98042727D01*
X135314285Y-97997683D01*
X135311895Y-97992992D01*
X135232936Y-97884315D01*
X135186206Y-97819996D01*
X135035004Y-97668794D01*
X134862009Y-97543106D01*
X134862008Y-97543105D01*
X134862006Y-97543104D01*
X134851204Y-97537600D01*
X134800408Y-97489625D01*
X134783500Y-97427116D01*
X134783500Y-93720365D01*
X137791500Y-93720365D01*
X137791500Y-93879634D01*
X137822568Y-94035823D01*
X137822570Y-94035831D01*
X137883517Y-94182969D01*
X137971995Y-94315387D01*
X137972001Y-94315394D01*
X138084605Y-94427998D01*
X138084612Y-94428004D01*
X138217030Y-94516482D01*
X138217031Y-94516482D01*
X138217032Y-94516483D01*
X138364169Y-94577430D01*
X138520365Y-94608499D01*
X138520369Y-94608500D01*
X138520370Y-94608500D01*
X138679631Y-94608500D01*
X138679632Y-94608499D01*
X138835831Y-94577430D01*
X138982968Y-94516483D01*
X139115389Y-94428003D01*
X139228003Y-94315389D01*
X139316483Y-94182968D01*
X139377430Y-94035831D01*
X139408500Y-93879630D01*
X139408500Y-93720370D01*
X139377430Y-93564169D01*
X139316483Y-93417032D01*
X139233664Y-93293084D01*
X139228004Y-93284612D01*
X139227998Y-93284605D01*
X139115394Y-93172001D01*
X139115387Y-93171995D01*
X138982969Y-93083517D01*
X138835831Y-93022570D01*
X138835823Y-93022568D01*
X138679634Y-92991500D01*
X138679630Y-92991500D01*
X138520370Y-92991500D01*
X138520365Y-92991500D01*
X138364176Y-93022568D01*
X138364168Y-93022570D01*
X138217030Y-93083517D01*
X138084612Y-93171995D01*
X138084605Y-93172001D01*
X137972001Y-93284605D01*
X137971995Y-93284612D01*
X137883517Y-93417030D01*
X137822570Y-93564168D01*
X137822568Y-93564176D01*
X137791500Y-93720365D01*
X134783500Y-93720365D01*
X134783500Y-84798264D01*
X134803185Y-84731225D01*
X134851205Y-84687779D01*
X134902009Y-84661894D01*
X135075004Y-84536206D01*
X135226206Y-84385004D01*
X135351894Y-84212009D01*
X135351896Y-84212004D01*
X135354270Y-84208132D01*
X135406080Y-84161254D01*
X135475009Y-84149829D01*
X135539173Y-84177483D01*
X135565730Y-84208132D01*
X135568103Y-84212005D01*
X135568105Y-84212008D01*
X135568106Y-84212009D01*
X135693794Y-84385004D01*
X135844996Y-84536206D01*
X136017991Y-84661894D01*
X136082942Y-84694988D01*
X136208516Y-84758972D01*
X136208519Y-84758973D01*
X136297189Y-84787783D01*
X136411884Y-84825049D01*
X136623084Y-84858500D01*
X136623085Y-84858500D01*
X136836915Y-84858500D01*
X136836916Y-84858500D01*
X137048116Y-84825049D01*
X137251483Y-84758972D01*
X137442009Y-84661894D01*
X137615004Y-84536206D01*
X137766206Y-84385004D01*
X137891894Y-84212009D01*
X137891896Y-84212004D01*
X137894270Y-84208132D01*
X137946080Y-84161254D01*
X138015009Y-84149829D01*
X138079173Y-84177483D01*
X138105730Y-84208132D01*
X138108103Y-84212005D01*
X138108105Y-84212008D01*
X138108106Y-84212009D01*
X138233794Y-84385004D01*
X138384996Y-84536206D01*
X138557991Y-84661894D01*
X138622942Y-84694988D01*
X138748516Y-84758972D01*
X138748519Y-84758973D01*
X138837189Y-84787783D01*
X138951884Y-84825049D01*
X139163084Y-84858500D01*
X139163085Y-84858500D01*
X139376915Y-84858500D01*
X139376916Y-84858500D01*
X139588116Y-84825049D01*
X139791483Y-84758972D01*
X139982009Y-84661894D01*
X140155004Y-84536206D01*
X140306206Y-84385004D01*
X140431894Y-84212009D01*
X140528972Y-84021483D01*
X140595049Y-83818116D01*
X140628500Y-83606916D01*
X140628500Y-83393084D01*
X140595049Y-83181884D01*
X140528972Y-82978517D01*
X140528972Y-82978516D01*
X140478019Y-82878516D01*
X140431894Y-82787991D01*
X140306206Y-82614996D01*
X140155004Y-82463794D01*
X139982009Y-82338106D01*
X139982007Y-82338105D01*
X139791483Y-82241027D01*
X139791480Y-82241026D01*
X139588117Y-82174951D01*
X139420777Y-82148447D01*
X139376916Y-82141500D01*
X139163084Y-82141500D01*
X139119223Y-82148447D01*
X138951882Y-82174951D01*
X138748519Y-82241026D01*
X138748516Y-82241027D01*
X138557990Y-82338106D01*
X138384993Y-82463796D01*
X138233796Y-82614993D01*
X138108105Y-82787991D01*
X138105727Y-82791873D01*
X138053914Y-82838748D01*
X137984984Y-82850169D01*
X137920822Y-82822512D01*
X137894273Y-82791873D01*
X137891894Y-82787991D01*
X137870112Y-82758011D01*
X137766206Y-82614996D01*
X137615004Y-82463794D01*
X137442009Y-82338106D01*
X137442007Y-82338105D01*
X137251483Y-82241027D01*
X137251480Y-82241026D01*
X137048117Y-82174951D01*
X136880777Y-82148447D01*
X136836916Y-82141500D01*
X136623084Y-82141500D01*
X136579223Y-82148447D01*
X136411882Y-82174951D01*
X136208519Y-82241026D01*
X136208516Y-82241027D01*
X136017990Y-82338106D01*
X135844993Y-82463796D01*
X135693796Y-82614993D01*
X135568105Y-82787991D01*
X135565727Y-82791873D01*
X135513914Y-82838748D01*
X135444984Y-82850169D01*
X135380822Y-82822512D01*
X135354273Y-82791873D01*
X135351894Y-82787991D01*
X135330112Y-82758011D01*
X135226206Y-82614996D01*
X135075004Y-82463794D01*
X134902009Y-82338106D01*
X134902007Y-82338105D01*
X134711483Y-82241027D01*
X134711480Y-82241026D01*
X134508117Y-82174951D01*
X134340777Y-82148447D01*
X134296916Y-82141500D01*
X134083084Y-82141500D01*
X134039223Y-82148447D01*
X133871882Y-82174951D01*
X133668519Y-82241026D01*
X133668516Y-82241027D01*
X133477990Y-82338106D01*
X133304993Y-82463796D01*
X133153796Y-82614993D01*
X133028103Y-82787994D01*
X133025709Y-82792693D01*
X132977731Y-82843485D01*
X132909908Y-82860275D01*
X132843775Y-82837732D01*
X132807800Y-82796210D01*
X132807168Y-82796598D01*
X132804829Y-82792781D01*
X132804743Y-82792682D01*
X132804620Y-82792441D01*
X132679727Y-82620540D01*
X132679723Y-82620535D01*
X132529464Y-82470276D01*
X132529459Y-82470272D01*
X132357557Y-82345379D01*
X132168215Y-82248903D01*
X131966124Y-82183241D01*
X131900000Y-82172768D01*
X131900000Y-83066988D01*
X131842993Y-83034075D01*
X131715826Y-83000000D01*
X131584174Y-83000000D01*
X131457007Y-83034075D01*
X131400000Y-83066988D01*
X131400000Y-82172768D01*
X131399999Y-82172768D01*
X131333875Y-82183241D01*
X131131784Y-82248903D01*
X130942442Y-82345379D01*
X130770540Y-82470272D01*
X130770535Y-82470276D01*
X130620276Y-82620535D01*
X130620272Y-82620540D01*
X130495376Y-82792446D01*
X130495374Y-82792448D01*
X130495246Y-82792701D01*
X130495172Y-82792779D01*
X130492832Y-82796598D01*
X130492029Y-82796106D01*
X130447264Y-82843489D01*
X130379441Y-82860274D01*
X130313309Y-82837727D01*
X130274285Y-82792683D01*
X130271895Y-82787992D01*
X130199239Y-82687990D01*
X130146206Y-82614996D01*
X129995004Y-82463794D01*
X129822009Y-82338106D01*
X129822007Y-82338105D01*
X129631483Y-82241027D01*
X129631480Y-82241026D01*
X129428117Y-82174951D01*
X129260777Y-82148447D01*
X129216916Y-82141500D01*
X129003084Y-82141500D01*
X128977680Y-82145523D01*
X128791883Y-82174950D01*
X128780342Y-82178700D01*
X128710500Y-82180690D01*
X128654351Y-82148447D01*
X125269819Y-78763915D01*
X125236334Y-78702592D01*
X125233500Y-78676234D01*
X125233500Y-77724447D01*
X132741500Y-77724447D01*
X132741500Y-79275537D01*
X132741501Y-79275553D01*
X132752113Y-79379427D01*
X132807884Y-79547735D01*
X132807886Y-79547740D01*
X132839521Y-79599028D01*
X132900970Y-79698652D01*
X133026348Y-79824030D01*
X133177262Y-79917115D01*
X133345574Y-79972887D01*
X133449455Y-79983500D01*
X134750544Y-79983499D01*
X134854426Y-79972887D01*
X135022738Y-79917115D01*
X135173652Y-79824030D01*
X135299030Y-79698652D01*
X135389679Y-79551687D01*
X135441624Y-79504966D01*
X135510587Y-79493743D01*
X135574669Y-79521587D01*
X135582896Y-79529106D01*
X135714996Y-79661206D01*
X135887991Y-79786894D01*
X135981438Y-79834507D01*
X136078516Y-79883972D01*
X136078519Y-79883973D01*
X136180200Y-79917010D01*
X136281884Y-79950049D01*
X136493084Y-79983500D01*
X136493085Y-79983500D01*
X136706915Y-79983500D01*
X136706916Y-79983500D01*
X136918116Y-79950049D01*
X137121483Y-79883972D01*
X137312009Y-79786894D01*
X137485004Y-79661206D01*
X137636206Y-79510004D01*
X137754935Y-79346586D01*
X137810265Y-79303921D01*
X137879878Y-79297942D01*
X137941673Y-79330548D01*
X137955571Y-79346587D01*
X138070272Y-79504459D01*
X138070276Y-79504464D01*
X138220535Y-79654723D01*
X138220540Y-79654727D01*
X138392442Y-79779620D01*
X138581782Y-79876095D01*
X138783871Y-79941757D01*
X138850000Y-79952231D01*
X138850000Y-78904145D01*
X138916657Y-78942630D01*
X139037465Y-78975000D01*
X139162535Y-78975000D01*
X139283343Y-78942630D01*
X139350000Y-78904145D01*
X139350000Y-79952230D01*
X139416126Y-79941757D01*
X139416129Y-79941757D01*
X139618217Y-79876095D01*
X139807557Y-79779620D01*
X139979459Y-79654727D01*
X139979464Y-79654723D01*
X140129723Y-79504464D01*
X140129727Y-79504459D01*
X140254620Y-79332557D01*
X140351095Y-79143217D01*
X140416757Y-78941130D01*
X140416757Y-78941127D01*
X140447030Y-78750000D01*
X139504146Y-78750000D01*
X139542630Y-78683343D01*
X139575000Y-78562535D01*
X139575000Y-78437465D01*
X139542630Y-78316657D01*
X139504146Y-78250000D01*
X140447030Y-78250000D01*
X140416757Y-78058872D01*
X140416757Y-78058869D01*
X140351095Y-77856782D01*
X140254620Y-77667442D01*
X140129727Y-77495540D01*
X140129723Y-77495535D01*
X139979464Y-77345276D01*
X139979459Y-77345272D01*
X139807557Y-77220379D01*
X139618215Y-77123903D01*
X139416124Y-77058241D01*
X139350000Y-77047768D01*
X139350000Y-78095854D01*
X139283343Y-78057370D01*
X139162535Y-78025000D01*
X139037465Y-78025000D01*
X138916657Y-78057370D01*
X138850000Y-78095854D01*
X138850000Y-77047768D01*
X138849999Y-77047768D01*
X138783875Y-77058241D01*
X138581784Y-77123903D01*
X138392442Y-77220379D01*
X138220540Y-77345272D01*
X138220535Y-77345276D01*
X138070276Y-77495535D01*
X137955571Y-77653413D01*
X137900241Y-77696078D01*
X137830627Y-77702057D01*
X137768832Y-77669451D01*
X137754935Y-77653412D01*
X137636208Y-77489999D01*
X137636203Y-77489993D01*
X137485006Y-77338796D01*
X137485004Y-77338794D01*
X137312009Y-77213106D01*
X137239126Y-77175970D01*
X137121483Y-77116027D01*
X137121480Y-77116026D01*
X136918117Y-77049951D01*
X136773923Y-77027113D01*
X136706916Y-77016500D01*
X136493084Y-77016500D01*
X136426077Y-77027113D01*
X136281882Y-77049951D01*
X136078519Y-77116026D01*
X136078516Y-77116027D01*
X135887990Y-77213106D01*
X135714997Y-77338793D01*
X135582896Y-77470894D01*
X135521573Y-77504378D01*
X135451881Y-77499394D01*
X135395948Y-77457522D01*
X135389684Y-77448320D01*
X135299030Y-77301348D01*
X135173652Y-77175970D01*
X135022738Y-77082885D01*
X134948366Y-77058241D01*
X134854427Y-77027113D01*
X134750545Y-77016500D01*
X133449462Y-77016500D01*
X133449446Y-77016501D01*
X133345572Y-77027113D01*
X133177264Y-77082884D01*
X133177259Y-77082886D01*
X133026346Y-77175971D01*
X132900971Y-77301346D01*
X132807886Y-77452259D01*
X132807884Y-77452264D01*
X132752113Y-77620572D01*
X132741500Y-77724447D01*
X125233500Y-77724447D01*
X125233500Y-75126255D01*
X125253185Y-75059216D01*
X125305989Y-75013461D01*
X125375147Y-75003517D01*
X125438703Y-75032542D01*
X125445181Y-75038574D01*
X125509605Y-75102998D01*
X125509612Y-75103004D01*
X125642030Y-75191482D01*
X125642031Y-75191482D01*
X125642032Y-75191483D01*
X125789169Y-75252430D01*
X125945365Y-75283499D01*
X125945369Y-75283500D01*
X125945370Y-75283500D01*
X126104631Y-75283500D01*
X126104632Y-75283499D01*
X126260831Y-75252430D01*
X126407968Y-75191483D01*
X126540389Y-75103003D01*
X126653003Y-74990389D01*
X126741483Y-74857968D01*
X126802430Y-74710831D01*
X126833500Y-74554630D01*
X126833500Y-74395370D01*
X126802430Y-74239169D01*
X126741483Y-74092032D01*
X126653003Y-73959611D01*
X126652998Y-73959605D01*
X126540394Y-73847001D01*
X126540387Y-73846995D01*
X126407969Y-73758517D01*
X126260831Y-73697570D01*
X126260823Y-73697568D01*
X126104634Y-73666500D01*
X126104630Y-73666500D01*
X125945370Y-73666500D01*
X125945365Y-73666500D01*
X125789176Y-73697568D01*
X125789168Y-73697570D01*
X125642030Y-73758517D01*
X125509612Y-73846995D01*
X125509605Y-73847001D01*
X125445181Y-73911426D01*
X125383858Y-73944911D01*
X125314166Y-73939927D01*
X125258233Y-73898055D01*
X125233816Y-73832591D01*
X125233500Y-73823745D01*
X125233500Y-69220365D01*
X125916500Y-69220365D01*
X125916500Y-69379634D01*
X125947568Y-69535823D01*
X125947570Y-69535831D01*
X126008517Y-69682969D01*
X126096995Y-69815387D01*
X126097001Y-69815394D01*
X126209605Y-69927998D01*
X126209612Y-69928004D01*
X126342030Y-70016482D01*
X126342031Y-70016482D01*
X126342032Y-70016483D01*
X126489169Y-70077430D01*
X126645365Y-70108499D01*
X126645369Y-70108500D01*
X126645370Y-70108500D01*
X126804631Y-70108500D01*
X126804632Y-70108499D01*
X126960831Y-70077430D01*
X126974087Y-70071938D01*
X127021540Y-70062500D01*
X129803460Y-70062500D01*
X129850912Y-70071938D01*
X129864169Y-70077430D01*
X130020365Y-70108499D01*
X130020369Y-70108500D01*
X130020370Y-70108500D01*
X130179631Y-70108500D01*
X130179632Y-70108499D01*
X130335831Y-70077430D01*
X130482968Y-70016483D01*
X130615389Y-69928003D01*
X130728003Y-69815389D01*
X130816483Y-69682968D01*
X130877430Y-69535831D01*
X130908500Y-69379630D01*
X130908500Y-69220370D01*
X130877430Y-69064169D01*
X130816483Y-68917032D01*
X130765348Y-68840503D01*
X130728004Y-68784612D01*
X130727998Y-68784605D01*
X130615394Y-68672001D01*
X130615387Y-68671995D01*
X130482969Y-68583517D01*
X130335831Y-68522570D01*
X130335823Y-68522568D01*
X130179634Y-68491500D01*
X130179630Y-68491500D01*
X130020370Y-68491500D01*
X130020365Y-68491500D01*
X129864176Y-68522568D01*
X129864168Y-68522570D01*
X129850913Y-68528061D01*
X129803460Y-68537500D01*
X127021540Y-68537500D01*
X126974087Y-68528061D01*
X126960831Y-68522570D01*
X126960823Y-68522568D01*
X126804634Y-68491500D01*
X126804630Y-68491500D01*
X126645370Y-68491500D01*
X126645365Y-68491500D01*
X126489176Y-68522568D01*
X126489168Y-68522570D01*
X126342030Y-68583517D01*
X126209612Y-68671995D01*
X126209605Y-68672001D01*
X126097001Y-68784605D01*
X126096995Y-68784612D01*
X126008517Y-68917030D01*
X125947570Y-69064168D01*
X125947568Y-69064176D01*
X125916500Y-69220365D01*
X125233500Y-69220365D01*
X125233500Y-64559020D01*
X125253185Y-64491981D01*
X125305989Y-64446226D01*
X125375147Y-64436282D01*
X125426386Y-64455916D01*
X125517032Y-64516483D01*
X125664169Y-64577430D01*
X125820365Y-64608499D01*
X125820369Y-64608500D01*
X125820370Y-64608500D01*
X125979631Y-64608500D01*
X125979632Y-64608499D01*
X126135831Y-64577430D01*
X126282968Y-64516483D01*
X126415389Y-64428003D01*
X126528003Y-64315389D01*
X126616483Y-64182968D01*
X126677430Y-64035831D01*
X126708500Y-63879630D01*
X126708500Y-63720370D01*
X126677430Y-63564169D01*
X126616483Y-63417032D01*
X126554397Y-63324112D01*
X126533520Y-63257434D01*
X126533500Y-63255222D01*
X126533500Y-53337605D01*
X126533499Y-53337601D01*
X126525826Y-53299028D01*
X126509155Y-53215215D01*
X126472218Y-53126043D01*
X126461401Y-53099927D01*
X126461396Y-53099918D01*
X126392072Y-52996168D01*
X126367572Y-52971668D01*
X126303833Y-52907929D01*
X125633168Y-52237264D01*
X125624942Y-52222768D01*
X125614015Y-52212532D01*
X125603518Y-52185012D01*
X125600608Y-52179883D01*
X125599840Y-52176836D01*
X125577430Y-52064169D01*
X125547985Y-51993084D01*
X140166340Y-51993084D01*
X140166340Y-52206916D01*
X140168470Y-52220365D01*
X140199791Y-52418117D01*
X140265866Y-52621480D01*
X140265867Y-52621483D01*
X140353688Y-52793840D01*
X140362946Y-52812009D01*
X140488634Y-52985004D01*
X140639836Y-53136206D01*
X140742184Y-53210566D01*
X140796022Y-53249682D01*
X140838687Y-53305012D01*
X140844666Y-53374626D01*
X140812060Y-53436421D01*
X140796022Y-53450318D01*
X140727137Y-53500365D01*
X140639836Y-53563794D01*
X140639834Y-53563796D01*
X140639833Y-53563796D01*
X140488636Y-53714993D01*
X140362946Y-53887990D01*
X140265867Y-54078516D01*
X140265866Y-54078519D01*
X140199791Y-54281882D01*
X140178385Y-54417033D01*
X140166340Y-54493084D01*
X140166340Y-54706916D01*
X140175371Y-54763937D01*
X140199791Y-54918117D01*
X140265866Y-55121480D01*
X140265867Y-55121483D01*
X140299467Y-55187425D01*
X140362946Y-55312009D01*
X140488634Y-55485004D01*
X140639836Y-55636206D01*
X140729930Y-55701663D01*
X140796022Y-55749682D01*
X140838687Y-55805012D01*
X140844666Y-55874626D01*
X140812060Y-55936421D01*
X140796022Y-55950318D01*
X140727137Y-56000365D01*
X140639836Y-56063794D01*
X140639834Y-56063796D01*
X140639833Y-56063796D01*
X140488636Y-56214993D01*
X140362946Y-56387990D01*
X140265867Y-56578516D01*
X140265866Y-56578519D01*
X140199791Y-56781882D01*
X140166340Y-56993084D01*
X140166340Y-57206915D01*
X140199791Y-57418117D01*
X140265866Y-57621480D01*
X140265867Y-57621483D01*
X140317217Y-57722261D01*
X140362946Y-57812009D01*
X140488634Y-57985004D01*
X140639836Y-58136206D01*
X140742184Y-58210566D01*
X140796022Y-58249682D01*
X140838687Y-58305012D01*
X140844666Y-58374626D01*
X140812060Y-58436421D01*
X140796022Y-58450318D01*
X140727137Y-58500365D01*
X140639836Y-58563794D01*
X140639834Y-58563796D01*
X140639833Y-58563796D01*
X140488636Y-58714993D01*
X140362946Y-58887990D01*
X140265867Y-59078516D01*
X140265866Y-59078519D01*
X140199791Y-59281882D01*
X140195738Y-59307471D01*
X140166340Y-59493084D01*
X140166340Y-59706916D01*
X140173219Y-59750346D01*
X140199791Y-59918117D01*
X140265866Y-60121480D01*
X140265867Y-60121483D01*
X140320143Y-60228004D01*
X140362946Y-60312009D01*
X140488634Y-60485004D01*
X140639836Y-60636206D01*
X140742184Y-60710566D01*
X140796022Y-60749682D01*
X140838687Y-60805012D01*
X140844666Y-60874626D01*
X140812060Y-60936421D01*
X140796022Y-60950318D01*
X140727137Y-61000365D01*
X140639836Y-61063794D01*
X140639834Y-61063796D01*
X140639833Y-61063796D01*
X140488636Y-61214993D01*
X140362946Y-61387990D01*
X140265867Y-61578516D01*
X140265866Y-61578519D01*
X140199791Y-61781882D01*
X140166340Y-61993084D01*
X140166340Y-62206915D01*
X140199791Y-62418117D01*
X140265866Y-62621480D01*
X140265867Y-62621483D01*
X140349931Y-62786465D01*
X140362946Y-62812009D01*
X140488634Y-62985004D01*
X140639836Y-63136206D01*
X140742184Y-63210566D01*
X140796022Y-63249682D01*
X140838687Y-63305012D01*
X140844666Y-63374626D01*
X140812060Y-63436421D01*
X140796022Y-63450318D01*
X140727137Y-63500365D01*
X140639836Y-63563794D01*
X140639834Y-63563796D01*
X140639833Y-63563796D01*
X140488636Y-63714993D01*
X140362946Y-63887990D01*
X140265867Y-64078516D01*
X140265866Y-64078519D01*
X140199791Y-64281882D01*
X140166340Y-64493084D01*
X140166340Y-64706915D01*
X140199791Y-64918117D01*
X140265866Y-65121480D01*
X140265867Y-65121483D01*
X140338570Y-65264168D01*
X140362946Y-65312009D01*
X140488634Y-65485004D01*
X140488636Y-65485006D01*
X140620733Y-65617103D01*
X140654218Y-65678426D01*
X140649234Y-65748118D01*
X140607362Y-65804051D01*
X140598149Y-65810322D01*
X140451191Y-65900967D01*
X140451187Y-65900970D01*
X140325811Y-66026346D01*
X140232726Y-66177259D01*
X140232724Y-66177264D01*
X140176953Y-66345572D01*
X140166340Y-66449447D01*
X140166340Y-67750537D01*
X140166341Y-67750553D01*
X140176953Y-67854427D01*
X140217462Y-67976676D01*
X140232725Y-68022738D01*
X140325810Y-68173652D01*
X140451188Y-68299030D01*
X140602102Y-68392115D01*
X140770414Y-68447887D01*
X140874295Y-68458500D01*
X142425384Y-68458499D01*
X142529266Y-68447887D01*
X142697578Y-68392115D01*
X142848492Y-68299030D01*
X142973870Y-68173652D01*
X143066955Y-68022738D01*
X143122727Y-67854426D01*
X143133340Y-67750545D01*
X143133339Y-66449456D01*
X143122727Y-66345574D01*
X143066955Y-66177262D01*
X142973870Y-66026348D01*
X142848492Y-65900970D01*
X142848488Y-65900967D01*
X142701530Y-65810322D01*
X142654805Y-65758374D01*
X142643584Y-65689412D01*
X142671427Y-65625330D01*
X142678924Y-65617125D01*
X142811046Y-65485004D01*
X142936734Y-65312009D01*
X143033812Y-65121483D01*
X143099889Y-64918116D01*
X143133340Y-64706916D01*
X143133340Y-64493084D01*
X143099889Y-64281884D01*
X143033812Y-64078517D01*
X143033812Y-64078516D01*
X142936733Y-63887990D01*
X142814950Y-63720370D01*
X142811046Y-63714996D01*
X142659844Y-63563794D01*
X142659840Y-63563791D01*
X142503658Y-63450318D01*
X142460992Y-63394988D01*
X142455013Y-63325375D01*
X142487619Y-63263580D01*
X142503658Y-63249682D01*
X142554040Y-63213076D01*
X142659844Y-63136206D01*
X142811046Y-62985004D01*
X142936734Y-62812009D01*
X143033812Y-62621483D01*
X143099889Y-62418116D01*
X143133340Y-62206916D01*
X143133340Y-61993084D01*
X143099889Y-61781884D01*
X143033812Y-61578517D01*
X143033812Y-61578516D01*
X142978520Y-61470000D01*
X142936734Y-61387991D01*
X142811046Y-61214996D01*
X142659844Y-61063794D01*
X142659840Y-61063791D01*
X142503658Y-60950318D01*
X142460992Y-60894988D01*
X142455013Y-60825375D01*
X142487619Y-60763580D01*
X142503658Y-60749682D01*
X142554040Y-60713076D01*
X142659844Y-60636206D01*
X142811046Y-60485004D01*
X142936734Y-60312009D01*
X143033812Y-60121483D01*
X143099889Y-59918116D01*
X143133340Y-59706916D01*
X143133340Y-59493084D01*
X143099889Y-59281884D01*
X143066850Y-59180200D01*
X143033813Y-59078519D01*
X143033812Y-59078516D01*
X142982306Y-58977431D01*
X142936734Y-58887991D01*
X142811046Y-58714996D01*
X142659844Y-58563794D01*
X142659840Y-58563791D01*
X142503658Y-58450318D01*
X142460992Y-58394988D01*
X142455013Y-58325375D01*
X142487619Y-58263580D01*
X142503658Y-58249682D01*
X142554040Y-58213076D01*
X142659844Y-58136206D01*
X142811046Y-57985004D01*
X142936734Y-57812009D01*
X143033812Y-57621483D01*
X143099889Y-57418116D01*
X143133340Y-57206916D01*
X143133340Y-56993084D01*
X143099889Y-56781884D01*
X143033812Y-56578517D01*
X143033812Y-56578516D01*
X142936733Y-56387990D01*
X142911246Y-56352910D01*
X142811046Y-56214996D01*
X142659844Y-56063794D01*
X142628588Y-56041085D01*
X142503658Y-55950318D01*
X142460992Y-55894988D01*
X142455013Y-55825375D01*
X142487619Y-55763580D01*
X142503658Y-55749682D01*
X142561124Y-55707930D01*
X142659844Y-55636206D01*
X142811046Y-55485004D01*
X142936734Y-55312009D01*
X143033812Y-55121483D01*
X143099889Y-54918116D01*
X143133340Y-54706916D01*
X143133340Y-54493084D01*
X143099889Y-54281884D01*
X143033812Y-54078517D01*
X143033812Y-54078516D01*
X142983523Y-53979819D01*
X142936734Y-53887991D01*
X142811046Y-53714996D01*
X142659844Y-53563794D01*
X142586611Y-53510587D01*
X142503658Y-53450318D01*
X142460992Y-53394988D01*
X142455013Y-53325375D01*
X142487619Y-53263580D01*
X142503658Y-53249682D01*
X142554040Y-53213076D01*
X142659844Y-53136206D01*
X142811046Y-52985004D01*
X142936734Y-52812009D01*
X143033812Y-52621483D01*
X143099889Y-52418116D01*
X143133340Y-52206916D01*
X143133340Y-51993084D01*
X143099889Y-51781884D01*
X143033812Y-51578517D01*
X143033812Y-51578516D01*
X142968052Y-51449456D01*
X142936734Y-51387991D01*
X142811046Y-51214996D01*
X142659844Y-51063794D01*
X142486849Y-50938106D01*
X142413966Y-50900970D01*
X142296323Y-50841027D01*
X142296320Y-50841026D01*
X142092957Y-50774951D01*
X141948763Y-50752113D01*
X141881756Y-50741500D01*
X141417924Y-50741500D01*
X141350917Y-50752113D01*
X141206722Y-50774951D01*
X141003359Y-50841026D01*
X141003356Y-50841027D01*
X140812830Y-50938106D01*
X140639833Y-51063796D01*
X140488636Y-51214993D01*
X140362946Y-51387990D01*
X140265867Y-51578516D01*
X140265866Y-51578519D01*
X140199791Y-51781882D01*
X140166340Y-51993084D01*
X125547985Y-51993084D01*
X125516483Y-51917032D01*
X125428003Y-51784611D01*
X125427998Y-51784605D01*
X125315394Y-51672001D01*
X125315387Y-51671995D01*
X125182969Y-51583517D01*
X125035831Y-51522570D01*
X125035823Y-51522568D01*
X124879634Y-51491500D01*
X124879630Y-51491500D01*
X124720370Y-51491500D01*
X124720365Y-51491500D01*
X124564176Y-51522568D01*
X124564168Y-51522570D01*
X124417030Y-51583517D01*
X124284612Y-51671995D01*
X124284605Y-51672001D01*
X124172001Y-51784605D01*
X124171995Y-51784612D01*
X124083517Y-51917030D01*
X124022570Y-52064168D01*
X124022568Y-52064176D01*
X123991500Y-52220365D01*
X123991500Y-52379634D01*
X124022568Y-52535823D01*
X124022570Y-52535831D01*
X124083517Y-52682969D01*
X124171995Y-52815387D01*
X124172001Y-52815394D01*
X124284605Y-52927998D01*
X124284612Y-52928004D01*
X124417030Y-53016482D01*
X124417031Y-53016482D01*
X124417032Y-53016483D01*
X124564169Y-53077430D01*
X124598566Y-53084271D01*
X124673774Y-53099232D01*
X124735685Y-53131616D01*
X124737264Y-53133168D01*
X125230181Y-53626085D01*
X125263666Y-53687408D01*
X125266500Y-53713766D01*
X125266500Y-57871233D01*
X125260261Y-57892478D01*
X125258682Y-57914565D01*
X125250609Y-57925348D01*
X125246815Y-57938272D01*
X125230080Y-57952772D01*
X125216811Y-57970499D01*
X125204190Y-57975206D01*
X125194011Y-57984027D01*
X125172094Y-57987178D01*
X125151347Y-57994917D01*
X125138185Y-57992054D01*
X125124853Y-57993971D01*
X125104711Y-57984772D01*
X125083074Y-57980066D01*
X125065347Y-57966795D01*
X125061297Y-57964946D01*
X125054820Y-57958915D01*
X125003834Y-57907930D01*
X123448814Y-56352910D01*
X123415329Y-56291587D01*
X123420313Y-56221895D01*
X123462185Y-56165962D01*
X123489040Y-56150669D01*
X123591026Y-56108425D01*
X123723447Y-56019945D01*
X123836061Y-55907331D01*
X123924541Y-55774910D01*
X123985488Y-55627773D01*
X124016558Y-55471572D01*
X124016558Y-55312312D01*
X123985488Y-55156111D01*
X123924541Y-55008974D01*
X123924538Y-55008970D01*
X123836062Y-54876554D01*
X123836056Y-54876547D01*
X123723452Y-54763943D01*
X123723445Y-54763937D01*
X123591027Y-54675459D01*
X123443889Y-54614512D01*
X123443881Y-54614510D01*
X123287692Y-54583442D01*
X123287688Y-54583442D01*
X123128428Y-54583442D01*
X123128423Y-54583442D01*
X122972234Y-54614510D01*
X122972226Y-54614512D01*
X122825088Y-54675459D01*
X122692670Y-54763937D01*
X122692663Y-54763943D01*
X122580059Y-54876547D01*
X122580053Y-54876554D01*
X122491576Y-55008970D01*
X122449331Y-55110958D01*
X122405489Y-55165361D01*
X122339195Y-55187425D01*
X122271496Y-55170145D01*
X122247089Y-55151185D01*
X122033168Y-54937264D01*
X122024998Y-54922939D01*
X122014288Y-54912993D01*
X122003912Y-54885965D01*
X122000740Y-54880403D01*
X121999893Y-54877104D01*
X121977430Y-54764169D01*
X121960306Y-54722830D01*
X121958123Y-54714320D01*
X121959034Y-54687832D01*
X121956202Y-54661484D01*
X121960218Y-54653460D01*
X121960527Y-54644492D01*
X121975615Y-54622700D01*
X121987477Y-54599005D01*
X121995192Y-54594426D01*
X122000302Y-54587048D01*
X122024774Y-54576874D01*
X122047565Y-54563352D01*
X122061520Y-54561599D01*
X122064819Y-54560228D01*
X122067959Y-54560790D01*
X122078232Y-54559500D01*
X122136395Y-54559500D01*
X122136396Y-54559499D01*
X122258785Y-54535155D01*
X122374075Y-54487400D01*
X122477833Y-54418071D01*
X122855238Y-54040664D01*
X122916557Y-54007182D01*
X122918621Y-54006751D01*
X123028331Y-53984930D01*
X123175468Y-53923983D01*
X123307889Y-53835503D01*
X123420503Y-53722889D01*
X123508983Y-53590468D01*
X123569930Y-53443331D01*
X123601000Y-53287130D01*
X123601000Y-53127870D01*
X123569930Y-52971669D01*
X123508983Y-52824532D01*
X123502877Y-52815394D01*
X123420504Y-52692112D01*
X123420498Y-52692105D01*
X123307894Y-52579501D01*
X123307887Y-52579495D01*
X123175469Y-52491017D01*
X123028331Y-52430070D01*
X123028323Y-52430068D01*
X122872134Y-52399000D01*
X122872130Y-52399000D01*
X122712870Y-52399000D01*
X122712865Y-52399000D01*
X122556676Y-52430068D01*
X122556668Y-52430070D01*
X122409533Y-52491016D01*
X122336652Y-52539713D01*
X122269974Y-52560590D01*
X122220309Y-52551171D01*
X122183275Y-52535831D01*
X122081035Y-52493481D01*
X122081027Y-52493479D01*
X121924838Y-52462411D01*
X121924834Y-52462411D01*
X121765574Y-52462411D01*
X121765569Y-52462411D01*
X121609380Y-52493479D01*
X121609372Y-52493481D01*
X121462236Y-52554427D01*
X121376889Y-52611454D01*
X121329815Y-52642908D01*
X121329813Y-52642909D01*
X121325784Y-52645602D01*
X121259106Y-52666480D01*
X121256893Y-52666500D01*
X116952303Y-52666500D01*
X116829924Y-52690843D01*
X116829916Y-52690845D01*
X116714629Y-52738598D01*
X116714620Y-52738603D01*
X116610869Y-52807928D01*
X116610865Y-52807931D01*
X116345181Y-53073616D01*
X116283858Y-53107101D01*
X116214166Y-53102117D01*
X116158233Y-53060245D01*
X116133816Y-52994781D01*
X116133500Y-52985935D01*
X116133500Y-51302742D01*
X116153185Y-51235703D01*
X116205989Y-51189948D01*
X116275147Y-51180004D01*
X116326388Y-51199639D01*
X116389013Y-51241483D01*
X116536150Y-51302430D01*
X116692346Y-51333499D01*
X116692350Y-51333500D01*
X116692351Y-51333500D01*
X116851612Y-51333500D01*
X116851613Y-51333499D01*
X117007812Y-51302430D01*
X117154949Y-51241483D01*
X117247868Y-51179396D01*
X117314545Y-51158520D01*
X117316758Y-51158500D01*
X118137395Y-51158500D01*
X118137396Y-51158499D01*
X118259785Y-51134155D01*
X118375075Y-51086400D01*
X118478833Y-51017071D01*
X123262737Y-46233166D01*
X123324058Y-46199683D01*
X123326225Y-46199232D01*
X123383998Y-46187739D01*
X123435831Y-46177430D01*
X123582968Y-46116483D01*
X123715389Y-46028003D01*
X123828003Y-45915389D01*
X123916483Y-45782968D01*
X123977430Y-45635831D01*
X124008500Y-45479630D01*
X124008500Y-45320370D01*
X123977430Y-45164169D01*
X123916483Y-45017032D01*
X123894820Y-44984611D01*
X123828004Y-44884612D01*
X123827998Y-44884605D01*
X123715394Y-44772001D01*
X123715387Y-44771995D01*
X123582969Y-44683517D01*
X123435831Y-44622570D01*
X123435823Y-44622568D01*
X123279634Y-44591500D01*
X123279630Y-44591500D01*
X123120370Y-44591500D01*
X123120365Y-44591500D01*
X122964176Y-44622568D01*
X122964168Y-44622570D01*
X122817030Y-44683517D01*
X122684612Y-44771995D01*
X122684605Y-44772001D01*
X122572001Y-44884605D01*
X122571995Y-44884612D01*
X122483517Y-45017030D01*
X122422570Y-45164168D01*
X122422568Y-45164174D01*
X122400768Y-45273772D01*
X122368383Y-45335682D01*
X122366832Y-45337261D01*
X121194261Y-46509833D01*
X121132938Y-46543318D01*
X121063246Y-46538334D01*
X121007313Y-46496462D01*
X120982896Y-46430998D01*
X120984963Y-46397961D01*
X120997237Y-46336252D01*
X121008500Y-46279630D01*
X121008500Y-46120370D01*
X120977430Y-45964169D01*
X120916483Y-45817032D01*
X120905168Y-45800098D01*
X120828004Y-45684612D01*
X120827998Y-45684605D01*
X120715394Y-45572001D01*
X120715387Y-45571995D01*
X120582969Y-45483517D01*
X120435831Y-45422570D01*
X120435823Y-45422568D01*
X120279634Y-45391500D01*
X120279630Y-45391500D01*
X120120370Y-45391500D01*
X120120365Y-45391500D01*
X119964176Y-45422568D01*
X119964168Y-45422570D01*
X119817030Y-45483517D01*
X119684612Y-45571995D01*
X119684605Y-45572001D01*
X119572001Y-45684605D01*
X119571995Y-45684612D01*
X119483517Y-45817030D01*
X119422570Y-45964168D01*
X119422568Y-45964176D01*
X119391500Y-46120365D01*
X119391500Y-46279634D01*
X119422568Y-46435823D01*
X119422570Y-46435831D01*
X119483517Y-46582969D01*
X119571995Y-46715387D01*
X119572001Y-46715394D01*
X119684605Y-46827998D01*
X119684612Y-46828004D01*
X119817030Y-46916482D01*
X119817031Y-46916482D01*
X119817032Y-46916483D01*
X119964169Y-46977430D01*
X120120365Y-47008499D01*
X120120369Y-47008500D01*
X120120370Y-47008500D01*
X120279631Y-47008500D01*
X120279631Y-47008499D01*
X120351148Y-46994274D01*
X120397961Y-46984963D01*
X120467552Y-46991190D01*
X120522730Y-47034053D01*
X120545974Y-47099943D01*
X120529906Y-47167940D01*
X120509833Y-47194261D01*
X117848915Y-49855181D01*
X117787592Y-49888666D01*
X117761234Y-49891500D01*
X117316758Y-49891500D01*
X117249719Y-49871815D01*
X117247868Y-49870603D01*
X117154947Y-49808515D01*
X117007812Y-49747570D01*
X117007804Y-49747568D01*
X116933309Y-49732750D01*
X116905185Y-49718039D01*
X116876297Y-49704846D01*
X116874439Y-49701956D01*
X116871398Y-49700365D01*
X116855691Y-49672782D01*
X116838523Y-49646068D01*
X116837862Y-49641473D01*
X116836824Y-49639650D01*
X116833500Y-49611133D01*
X116833500Y-49382191D01*
X116853185Y-49315152D01*
X116854357Y-49313361D01*
X116941483Y-49182968D01*
X117002430Y-49035831D01*
X117033500Y-48879630D01*
X117033500Y-48720370D01*
X117002430Y-48564169D01*
X116941483Y-48417032D01*
X116932445Y-48403506D01*
X116853004Y-48284612D01*
X116852998Y-48284605D01*
X116740394Y-48172001D01*
X116740387Y-48171995D01*
X116607969Y-48083517D01*
X116460831Y-48022570D01*
X116460823Y-48022568D01*
X116304634Y-47991500D01*
X116304630Y-47991500D01*
X116145370Y-47991500D01*
X116145365Y-47991500D01*
X115989176Y-48022568D01*
X115989168Y-48022570D01*
X115842030Y-48083517D01*
X115709612Y-48171995D01*
X115709605Y-48172001D01*
X115597001Y-48284605D01*
X115596995Y-48284612D01*
X115508517Y-48417030D01*
X115447570Y-48564168D01*
X115447568Y-48564176D01*
X115416500Y-48720365D01*
X115416500Y-48879634D01*
X115447568Y-49035823D01*
X115447570Y-49035831D01*
X115508515Y-49182964D01*
X115508520Y-49182974D01*
X115545602Y-49238470D01*
X115566480Y-49305147D01*
X115566500Y-49307361D01*
X115566500Y-49586234D01*
X115546815Y-49653273D01*
X115530181Y-49673915D01*
X115096167Y-50107929D01*
X115052047Y-50152049D01*
X115007927Y-50196168D01*
X114938603Y-50299918D01*
X114938598Y-50299927D01*
X114890845Y-50415214D01*
X114890843Y-50415222D01*
X114879117Y-50474173D01*
X114846732Y-50536084D01*
X114786017Y-50570658D01*
X114716247Y-50566919D01*
X114659575Y-50526052D01*
X114633994Y-50461034D01*
X114633500Y-50449982D01*
X114633500Y-47964616D01*
X114635883Y-47940425D01*
X114659499Y-47821695D01*
X114659500Y-47821692D01*
X114659500Y-47294000D01*
X114679185Y-47226961D01*
X114731989Y-47181206D01*
X114773719Y-47172127D01*
X114773569Y-47170597D01*
X114779624Y-47170000D01*
X114779630Y-47170000D01*
X114935831Y-47138930D01*
X115082968Y-47077983D01*
X115215389Y-46989503D01*
X115328003Y-46876889D01*
X115416483Y-46744468D01*
X115477430Y-46597331D01*
X115508500Y-46441130D01*
X115508500Y-46432500D01*
X115528185Y-46365461D01*
X115580989Y-46319706D01*
X115632500Y-46308500D01*
X115679631Y-46308500D01*
X115679632Y-46308499D01*
X115835831Y-46277430D01*
X115961419Y-46225408D01*
X115982966Y-46216484D01*
X115982966Y-46216483D01*
X115982968Y-46216483D01*
X116075887Y-46154396D01*
X116142564Y-46133520D01*
X116144777Y-46133500D01*
X117962395Y-46133500D01*
X117962396Y-46133499D01*
X118084785Y-46109155D01*
X118200075Y-46061400D01*
X118303833Y-45992071D01*
X119952085Y-44343819D01*
X120013408Y-44310334D01*
X120039766Y-44307500D01*
X124560234Y-44307500D01*
X124627273Y-44327185D01*
X124647915Y-44343819D01*
X125100486Y-44796392D01*
X125100508Y-44796412D01*
X125430181Y-45126085D01*
X125463666Y-45187408D01*
X125466500Y-45213766D01*
X125466500Y-49233448D01*
X125457061Y-49280901D01*
X125422570Y-49364168D01*
X125422568Y-49364176D01*
X125391500Y-49520365D01*
X125391500Y-49679634D01*
X125422568Y-49835823D01*
X125422570Y-49835831D01*
X125483517Y-49982969D01*
X125571995Y-50115387D01*
X125572001Y-50115394D01*
X125684605Y-50227998D01*
X125684612Y-50228004D01*
X125817030Y-50316482D01*
X125817031Y-50316482D01*
X125817032Y-50316483D01*
X125964169Y-50377430D01*
X126120365Y-50408499D01*
X126120369Y-50408500D01*
X126120370Y-50408500D01*
X126279631Y-50408500D01*
X126279632Y-50408499D01*
X126435831Y-50377430D01*
X126582968Y-50316483D01*
X126715389Y-50228003D01*
X126828003Y-50115389D01*
X126916483Y-49982968D01*
X126977430Y-49835831D01*
X127008500Y-49679630D01*
X127008500Y-49520370D01*
X126977430Y-49364169D01*
X126916483Y-49217032D01*
X126912922Y-49211703D01*
X126828004Y-49084612D01*
X126827998Y-49084605D01*
X126769819Y-49026426D01*
X126736334Y-48965103D01*
X126733500Y-48938745D01*
X126733500Y-44837605D01*
X126733499Y-44837601D01*
X126722741Y-44783517D01*
X126709155Y-44715215D01*
X126670779Y-44622568D01*
X126661401Y-44599927D01*
X126661396Y-44599918D01*
X126592072Y-44496168D01*
X126589808Y-44493904D01*
X126503833Y-44407929D01*
X125996412Y-43900508D01*
X125996392Y-43900486D01*
X125277836Y-43181931D01*
X125277832Y-43181928D01*
X125174081Y-43112603D01*
X125174072Y-43112598D01*
X125058785Y-43064845D01*
X125058777Y-43064843D01*
X124936398Y-43040500D01*
X124936394Y-43040500D01*
X119788394Y-43040500D01*
X119663606Y-43040500D01*
X119663601Y-43040500D01*
X119541222Y-43064843D01*
X119541214Y-43064845D01*
X119425927Y-43112598D01*
X119425918Y-43112603D01*
X119322167Y-43181928D01*
X119322163Y-43181931D01*
X117673915Y-44830181D01*
X117612592Y-44863666D01*
X117586234Y-44866500D01*
X116144777Y-44866500D01*
X116077738Y-44846815D01*
X116075887Y-44845603D01*
X115982966Y-44783515D01*
X115835831Y-44722570D01*
X115835823Y-44722568D01*
X115679634Y-44691500D01*
X115679630Y-44691500D01*
X115520370Y-44691500D01*
X115520365Y-44691500D01*
X115364176Y-44722568D01*
X115364168Y-44722570D01*
X115217030Y-44783517D01*
X115084612Y-44871995D01*
X115084605Y-44872001D01*
X114972001Y-44984605D01*
X114971995Y-44984612D01*
X114883517Y-45117030D01*
X114822570Y-45264168D01*
X114822568Y-45264176D01*
X114791500Y-45420365D01*
X114791500Y-45429000D01*
X114771815Y-45496039D01*
X114719011Y-45541794D01*
X114667500Y-45553000D01*
X114620365Y-45553000D01*
X114464176Y-45584068D01*
X114464168Y-45584070D01*
X114317033Y-45645015D01*
X114224113Y-45707103D01*
X114157436Y-45727980D01*
X114155223Y-45728000D01*
X114076101Y-45728000D01*
X113953722Y-45752343D01*
X113953714Y-45752345D01*
X113838427Y-45800098D01*
X113838418Y-45800103D01*
X113734668Y-45869427D01*
X113688709Y-45915387D01*
X113622167Y-45981929D01*
X113622166Y-45981930D01*
X113584547Y-46019548D01*
X113523223Y-46053033D01*
X113453532Y-46048047D01*
X113397599Y-46006175D01*
X113373183Y-45940710D01*
X113382305Y-45884415D01*
X113402430Y-45835831D01*
X113433500Y-45679630D01*
X113433500Y-45520370D01*
X113402430Y-45364169D01*
X113341483Y-45217032D01*
X113336414Y-45209446D01*
X113253004Y-45084612D01*
X113252998Y-45084605D01*
X113140394Y-44972001D01*
X113140387Y-44971995D01*
X113007969Y-44883517D01*
X112860831Y-44822570D01*
X112860823Y-44822568D01*
X112704634Y-44791500D01*
X112704630Y-44791500D01*
X112545370Y-44791500D01*
X112545365Y-44791500D01*
X112389176Y-44822568D01*
X112389168Y-44822570D01*
X112242030Y-44883517D01*
X112109612Y-44971995D01*
X112109605Y-44972001D01*
X111997001Y-45084605D01*
X111996995Y-45084612D01*
X111908517Y-45217030D01*
X111847570Y-45364168D01*
X111847568Y-45364176D01*
X111816500Y-45520365D01*
X111816500Y-45679634D01*
X111847568Y-45835823D01*
X111847570Y-45835831D01*
X111908515Y-45982966D01*
X111970603Y-46075887D01*
X111991480Y-46142564D01*
X111991500Y-46144777D01*
X111991500Y-47335336D01*
X111971815Y-47402375D01*
X111955181Y-47423017D01*
X110596167Y-48782031D01*
X110552047Y-48826151D01*
X110507927Y-48870270D01*
X110438603Y-48974020D01*
X110438598Y-48974029D01*
X110390846Y-49089315D01*
X110390843Y-49089324D01*
X110366500Y-49211703D01*
X110366500Y-64955222D01*
X110346815Y-65022261D01*
X110345603Y-65024112D01*
X110283516Y-65117033D01*
X110222570Y-65264168D01*
X110222568Y-65264176D01*
X110191500Y-65420365D01*
X110191500Y-65579634D01*
X110222568Y-65735823D01*
X110222570Y-65735831D01*
X110283517Y-65882969D01*
X110371995Y-66015387D01*
X110372001Y-66015394D01*
X110484605Y-66127998D01*
X110484612Y-66128004D01*
X110617030Y-66216482D01*
X110617031Y-66216482D01*
X110617032Y-66216483D01*
X110764169Y-66277430D01*
X110920365Y-66308499D01*
X110920369Y-66308500D01*
X110920370Y-66308500D01*
X111079631Y-66308500D01*
X111079632Y-66308499D01*
X111235831Y-66277430D01*
X111382968Y-66216483D01*
X111515389Y-66128003D01*
X111628003Y-66015389D01*
X111716483Y-65882968D01*
X111777430Y-65735831D01*
X111808500Y-65579630D01*
X111808500Y-65420370D01*
X111777430Y-65264169D01*
X111716483Y-65117032D01*
X111654397Y-65024112D01*
X111633520Y-64957434D01*
X111633500Y-64955222D01*
X111633500Y-49587868D01*
X111653185Y-49520829D01*
X111669819Y-49500187D01*
X112554819Y-48615187D01*
X112616142Y-48581702D01*
X112685834Y-48586686D01*
X112741767Y-48628558D01*
X112766184Y-48694022D01*
X112766500Y-48702868D01*
X112766500Y-54255222D01*
X112746815Y-54322261D01*
X112745603Y-54324112D01*
X112683516Y-54417033D01*
X112622570Y-54564168D01*
X112622568Y-54564176D01*
X112591500Y-54720365D01*
X112591500Y-54879634D01*
X112622568Y-55035823D01*
X112622570Y-55035831D01*
X112683517Y-55182969D01*
X112771995Y-55315387D01*
X112772001Y-55315394D01*
X112842670Y-55386063D01*
X112847007Y-55394007D01*
X112854256Y-55399433D01*
X112863491Y-55424194D01*
X112876155Y-55447386D01*
X112875509Y-55456415D01*
X112878673Y-55464898D01*
X112873056Y-55490718D01*
X112871171Y-55517078D01*
X112865352Y-55526132D01*
X112863821Y-55533171D01*
X112842672Y-55561422D01*
X112696167Y-55707929D01*
X112659618Y-55744478D01*
X112607927Y-55796168D01*
X112538603Y-55899918D01*
X112538598Y-55899927D01*
X112490845Y-56015214D01*
X112490843Y-56015222D01*
X112466500Y-56137601D01*
X112466500Y-61955222D01*
X112446815Y-62022261D01*
X112445603Y-62024112D01*
X112383516Y-62117033D01*
X112322570Y-62264168D01*
X112322568Y-62264176D01*
X112291500Y-62420365D01*
X112291500Y-62579634D01*
X112322568Y-62735823D01*
X112322570Y-62735831D01*
X112383517Y-62882969D01*
X112471995Y-63015387D01*
X112472001Y-63015394D01*
X112584605Y-63127998D01*
X112584612Y-63128004D01*
X112717030Y-63216482D01*
X112717031Y-63216482D01*
X112717032Y-63216483D01*
X112864169Y-63277430D01*
X113020365Y-63308499D01*
X113020369Y-63308500D01*
X113020370Y-63308500D01*
X113179631Y-63308500D01*
X113179632Y-63308499D01*
X113335831Y-63277430D01*
X113482968Y-63216483D01*
X113615389Y-63128003D01*
X113728003Y-63015389D01*
X113816483Y-62882968D01*
X113877430Y-62735831D01*
X113908500Y-62579630D01*
X113908500Y-62420370D01*
X113877430Y-62264169D01*
X113816483Y-62117032D01*
X113754397Y-62024112D01*
X113733520Y-61957434D01*
X113733500Y-61955222D01*
X113733500Y-56513765D01*
X113753185Y-56446726D01*
X113769815Y-56426088D01*
X114438574Y-55757328D01*
X114499897Y-55723844D01*
X114569589Y-55728828D01*
X114613936Y-55757329D01*
X114684605Y-55827998D01*
X114684612Y-55828004D01*
X114817030Y-55916482D01*
X114817031Y-55916482D01*
X114817032Y-55916483D01*
X114964169Y-55977430D01*
X115107942Y-56006028D01*
X115120365Y-56008499D01*
X115120369Y-56008500D01*
X115120370Y-56008500D01*
X115279631Y-56008500D01*
X115279632Y-56008499D01*
X115435831Y-55977430D01*
X115582968Y-55916483D01*
X115715389Y-55828003D01*
X115765428Y-55777964D01*
X115826751Y-55744478D01*
X115896442Y-55749462D01*
X115900556Y-55751079D01*
X115964169Y-55777430D01*
X116120365Y-55808499D01*
X116120369Y-55808500D01*
X116120370Y-55808500D01*
X116279631Y-55808500D01*
X116279632Y-55808499D01*
X116435831Y-55777430D01*
X116582968Y-55716483D01*
X116582980Y-55716474D01*
X116584035Y-55715912D01*
X116584662Y-55715781D01*
X116588596Y-55714152D01*
X116588904Y-55714897D01*
X116652437Y-55701663D01*
X116717683Y-55726656D01*
X116759059Y-55782957D01*
X116766500Y-55825264D01*
X116766500Y-58697467D01*
X116746815Y-58764506D01*
X116694011Y-58810261D01*
X116624853Y-58820205D01*
X116618309Y-58819084D01*
X116479634Y-58791500D01*
X116479630Y-58791500D01*
X116320370Y-58791500D01*
X116320365Y-58791500D01*
X116164176Y-58822568D01*
X116164168Y-58822570D01*
X116017030Y-58883517D01*
X115884612Y-58971995D01*
X115884605Y-58972001D01*
X115772001Y-59084605D01*
X115771995Y-59084612D01*
X115683517Y-59217030D01*
X115622570Y-59364168D01*
X115622568Y-59364176D01*
X115591500Y-59520365D01*
X115591500Y-59679634D01*
X115622568Y-59835823D01*
X115622570Y-59835831D01*
X115683517Y-59982969D01*
X115771995Y-60115387D01*
X115772001Y-60115394D01*
X115884605Y-60227998D01*
X115884612Y-60228004D01*
X116017030Y-60316482D01*
X116017031Y-60316482D01*
X116017032Y-60316483D01*
X116164169Y-60377430D01*
X116320365Y-60408499D01*
X116320369Y-60408500D01*
X116320370Y-60408500D01*
X116479631Y-60408500D01*
X116479631Y-60408499D01*
X116618309Y-60380915D01*
X116687900Y-60387142D01*
X116743077Y-60430005D01*
X116766322Y-60495895D01*
X116766500Y-60502532D01*
X116766500Y-76262398D01*
X116790843Y-76384777D01*
X116790845Y-76384785D01*
X116838598Y-76500072D01*
X116838603Y-76500081D01*
X116907928Y-76603832D01*
X116907931Y-76603836D01*
X122887471Y-82583375D01*
X122920956Y-82644698D01*
X122915972Y-82714390D01*
X122900110Y-82743938D01*
X122868107Y-82787988D01*
X122865723Y-82791879D01*
X122813908Y-82838751D01*
X122744977Y-82850169D01*
X122680817Y-82822507D01*
X122654273Y-82791873D01*
X122651894Y-82787991D01*
X122630112Y-82758011D01*
X122526206Y-82614996D01*
X122375004Y-82463794D01*
X122202009Y-82338106D01*
X122202007Y-82338105D01*
X122011483Y-82241027D01*
X122011480Y-82241026D01*
X121808117Y-82174951D01*
X121640777Y-82148447D01*
X121596916Y-82141500D01*
X121383084Y-82141500D01*
X121339223Y-82148447D01*
X121171882Y-82174951D01*
X120968519Y-82241026D01*
X120968516Y-82241027D01*
X120777990Y-82338106D01*
X120604993Y-82463796D01*
X120453796Y-82614993D01*
X120328105Y-82787991D01*
X120325727Y-82791873D01*
X120273914Y-82838748D01*
X120204984Y-82850169D01*
X120140822Y-82822512D01*
X120114273Y-82791873D01*
X120111894Y-82787991D01*
X120090112Y-82758011D01*
X119986206Y-82614996D01*
X119835004Y-82463794D01*
X119662009Y-82338106D01*
X119662007Y-82338105D01*
X119471483Y-82241027D01*
X119471480Y-82241026D01*
X119268117Y-82174951D01*
X119100777Y-82148447D01*
X119056916Y-82141500D01*
X118843084Y-82141500D01*
X118799223Y-82148447D01*
X118631882Y-82174951D01*
X118428519Y-82241026D01*
X118428516Y-82241027D01*
X118237990Y-82338106D01*
X118064993Y-82463796D01*
X117913796Y-82614993D01*
X117788105Y-82787991D01*
X117785727Y-82791873D01*
X117733914Y-82838748D01*
X117664984Y-82850169D01*
X117600822Y-82822512D01*
X117574273Y-82791873D01*
X117571894Y-82787991D01*
X117550112Y-82758011D01*
X117446206Y-82614996D01*
X117295004Y-82463794D01*
X117122009Y-82338106D01*
X117122007Y-82338105D01*
X116931483Y-82241027D01*
X116931480Y-82241026D01*
X116728117Y-82174951D01*
X116560777Y-82148447D01*
X116516916Y-82141500D01*
X116303084Y-82141500D01*
X116259223Y-82148447D01*
X116091882Y-82174951D01*
X115888519Y-82241026D01*
X115888516Y-82241027D01*
X115697990Y-82338106D01*
X115524993Y-82463796D01*
X115373796Y-82614993D01*
X115248105Y-82787991D01*
X115245727Y-82791873D01*
X115193914Y-82838748D01*
X115124984Y-82850169D01*
X115060822Y-82822512D01*
X115034273Y-82791873D01*
X115031894Y-82787991D01*
X115010112Y-82758011D01*
X114906206Y-82614996D01*
X114755004Y-82463794D01*
X114582009Y-82338106D01*
X114582007Y-82338105D01*
X114391483Y-82241027D01*
X114391480Y-82241026D01*
X114188117Y-82174951D01*
X114020777Y-82148447D01*
X113976916Y-82141500D01*
X113763084Y-82141500D01*
X113719223Y-82148447D01*
X113551882Y-82174951D01*
X113348519Y-82241026D01*
X113348516Y-82241027D01*
X113157990Y-82338106D01*
X112984993Y-82463796D01*
X112833796Y-82614993D01*
X112708105Y-82787991D01*
X112705727Y-82791873D01*
X112653914Y-82838748D01*
X112584984Y-82850169D01*
X112520822Y-82822512D01*
X112494273Y-82791873D01*
X112491894Y-82787991D01*
X112470112Y-82758011D01*
X112366206Y-82614996D01*
X112215004Y-82463794D01*
X112042009Y-82338106D01*
X112042007Y-82338105D01*
X111851483Y-82241027D01*
X111851480Y-82241026D01*
X111648117Y-82174951D01*
X111480777Y-82148447D01*
X111436916Y-82141500D01*
X111223084Y-82141500D01*
X111179223Y-82148447D01*
X111011882Y-82174951D01*
X110808519Y-82241026D01*
X110808516Y-82241027D01*
X110617990Y-82338106D01*
X110444993Y-82463796D01*
X110293796Y-82614993D01*
X110168105Y-82787991D01*
X110165727Y-82791873D01*
X110113914Y-82838748D01*
X110044984Y-82850169D01*
X109980822Y-82822512D01*
X109954273Y-82791873D01*
X109951894Y-82787991D01*
X109930112Y-82758011D01*
X109826206Y-82614996D01*
X109675004Y-82463794D01*
X109502009Y-82338106D01*
X109502007Y-82338105D01*
X109311483Y-82241027D01*
X109311480Y-82241026D01*
X109108117Y-82174951D01*
X108940777Y-82148447D01*
X108896916Y-82141500D01*
X108683084Y-82141500D01*
X108639223Y-82148447D01*
X108471882Y-82174951D01*
X108268519Y-82241026D01*
X108268516Y-82241027D01*
X108077990Y-82338106D01*
X107904993Y-82463796D01*
X107753796Y-82614993D01*
X107628105Y-82787991D01*
X107625727Y-82791873D01*
X107573914Y-82838748D01*
X107504984Y-82850169D01*
X107440822Y-82822512D01*
X107414273Y-82791873D01*
X107411894Y-82787991D01*
X107390112Y-82758011D01*
X107286206Y-82614996D01*
X107135004Y-82463794D01*
X106962009Y-82338106D01*
X106962007Y-82338105D01*
X106771483Y-82241027D01*
X106771480Y-82241026D01*
X106568117Y-82174951D01*
X106400777Y-82148447D01*
X106356916Y-82141500D01*
X106143084Y-82141500D01*
X106099223Y-82148447D01*
X105931882Y-82174951D01*
X105728519Y-82241026D01*
X105728510Y-82241030D01*
X105699794Y-82255662D01*
X105631124Y-82268558D01*
X105566384Y-82242281D01*
X105526128Y-82185174D01*
X105519500Y-82145177D01*
X105519500Y-81323605D01*
X105519499Y-81323601D01*
X105495157Y-81201222D01*
X105495154Y-81201213D01*
X105481168Y-81167447D01*
X105473941Y-81150000D01*
X105447401Y-81085925D01*
X105447399Y-81085923D01*
X105447399Y-81085921D01*
X105378072Y-80982167D01*
X105378069Y-80982163D01*
X104003836Y-79607931D01*
X104003832Y-79607928D01*
X103900081Y-79538603D01*
X103900072Y-79538598D01*
X103784785Y-79490845D01*
X103784777Y-79490843D01*
X103662398Y-79466500D01*
X103662394Y-79466500D01*
X100413766Y-79466500D01*
X100346727Y-79446815D01*
X100326085Y-79430181D01*
X99319818Y-78423914D01*
X99286333Y-78362591D01*
X99283499Y-78336233D01*
X99283499Y-77749462D01*
X99283498Y-77749446D01*
X99275326Y-77669451D01*
X99272887Y-77645574D01*
X99217115Y-77477262D01*
X99124030Y-77326348D01*
X98998652Y-77200970D01*
X98860940Y-77116028D01*
X98847740Y-77107886D01*
X98847735Y-77107884D01*
X98679427Y-77052113D01*
X98575545Y-77041500D01*
X97024462Y-77041500D01*
X97024446Y-77041501D01*
X96920572Y-77052113D01*
X96752264Y-77107884D01*
X96752259Y-77107886D01*
X96601346Y-77200971D01*
X96475971Y-77326346D01*
X96382886Y-77477259D01*
X96382884Y-77477264D01*
X96327113Y-77645572D01*
X96316500Y-77749447D01*
X94375500Y-77749447D01*
X94375500Y-51449447D01*
X96316500Y-51449447D01*
X96316500Y-52750537D01*
X96316501Y-52750553D01*
X96327113Y-52854427D01*
X96365962Y-52971668D01*
X96382885Y-53022738D01*
X96475970Y-53173652D01*
X96601348Y-53299030D01*
X96748310Y-53389677D01*
X96795033Y-53441624D01*
X96806256Y-53510587D01*
X96778412Y-53574669D01*
X96770894Y-53582896D01*
X96638793Y-53714997D01*
X96513106Y-53887990D01*
X96416027Y-54078516D01*
X96416026Y-54078519D01*
X96349951Y-54281882D01*
X96328545Y-54417033D01*
X96316500Y-54493084D01*
X96316500Y-54706916D01*
X96325531Y-54763937D01*
X96349951Y-54918117D01*
X96416026Y-55121480D01*
X96416027Y-55121483D01*
X96449627Y-55187425D01*
X96513106Y-55312009D01*
X96638794Y-55485004D01*
X96789996Y-55636206D01*
X96880090Y-55701663D01*
X96946182Y-55749682D01*
X96988847Y-55805012D01*
X96994826Y-55874626D01*
X96962220Y-55936421D01*
X96946182Y-55950318D01*
X96877297Y-56000365D01*
X96789996Y-56063794D01*
X96789994Y-56063796D01*
X96789993Y-56063796D01*
X96638796Y-56214993D01*
X96513106Y-56387990D01*
X96416027Y-56578516D01*
X96416026Y-56578519D01*
X96349951Y-56781882D01*
X96316500Y-56993084D01*
X96316500Y-57206915D01*
X96349951Y-57418117D01*
X96416026Y-57621480D01*
X96416027Y-57621483D01*
X96467377Y-57722261D01*
X96513106Y-57812009D01*
X96638794Y-57985004D01*
X96789996Y-58136206D01*
X96892344Y-58210566D01*
X96946182Y-58249682D01*
X96988847Y-58305012D01*
X96994826Y-58374626D01*
X96962220Y-58436421D01*
X96946182Y-58450318D01*
X96877297Y-58500365D01*
X96789996Y-58563794D01*
X96789994Y-58563796D01*
X96789993Y-58563796D01*
X96638796Y-58714993D01*
X96513106Y-58887990D01*
X96416027Y-59078516D01*
X96416026Y-59078519D01*
X96349951Y-59281882D01*
X96345898Y-59307471D01*
X96316500Y-59493084D01*
X96316500Y-59706916D01*
X96323379Y-59750346D01*
X96349951Y-59918117D01*
X96416026Y-60121480D01*
X96416027Y-60121483D01*
X96470303Y-60228004D01*
X96513106Y-60312009D01*
X96638794Y-60485004D01*
X96789996Y-60636206D01*
X96892344Y-60710566D01*
X96946182Y-60749682D01*
X96988847Y-60805012D01*
X96994826Y-60874626D01*
X96962220Y-60936421D01*
X96946182Y-60950318D01*
X96877297Y-61000365D01*
X96789996Y-61063794D01*
X96789994Y-61063796D01*
X96789993Y-61063796D01*
X96638796Y-61214993D01*
X96513106Y-61387990D01*
X96416027Y-61578516D01*
X96416026Y-61578519D01*
X96349951Y-61781882D01*
X96316500Y-61993084D01*
X96316500Y-62206915D01*
X96349951Y-62418117D01*
X96416026Y-62621480D01*
X96416027Y-62621483D01*
X96500091Y-62786465D01*
X96513106Y-62812009D01*
X96638794Y-62985004D01*
X96789996Y-63136206D01*
X96892344Y-63210566D01*
X96946182Y-63249682D01*
X96988847Y-63305012D01*
X96994826Y-63374626D01*
X96962220Y-63436421D01*
X96946182Y-63450318D01*
X96877297Y-63500365D01*
X96789996Y-63563794D01*
X96789994Y-63563796D01*
X96789993Y-63563796D01*
X96638796Y-63714993D01*
X96513106Y-63887990D01*
X96416027Y-64078516D01*
X96416026Y-64078519D01*
X96349951Y-64281882D01*
X96316500Y-64493084D01*
X96316500Y-64706915D01*
X96349951Y-64918117D01*
X96416026Y-65121480D01*
X96416027Y-65121483D01*
X96488730Y-65264168D01*
X96513106Y-65312009D01*
X96638794Y-65485004D01*
X96789996Y-65636206D01*
X96848107Y-65678426D01*
X96946182Y-65749682D01*
X96988847Y-65805012D01*
X96994826Y-65874626D01*
X96962220Y-65936421D01*
X96946182Y-65950318D01*
X96877297Y-66000365D01*
X96789996Y-66063794D01*
X96789994Y-66063796D01*
X96789993Y-66063796D01*
X96638796Y-66214993D01*
X96513106Y-66387990D01*
X96416027Y-66578516D01*
X96416026Y-66578519D01*
X96349951Y-66781882D01*
X96316500Y-66993084D01*
X96316500Y-67206915D01*
X96349951Y-67418117D01*
X96416026Y-67621480D01*
X96416027Y-67621483D01*
X96513106Y-67812009D01*
X96638794Y-67985004D01*
X96789996Y-68136206D01*
X96962991Y-68261894D01*
X97056438Y-68309507D01*
X97153516Y-68358972D01*
X97153519Y-68358973D01*
X97255200Y-68392010D01*
X97356884Y-68425049D01*
X97568084Y-68458500D01*
X97568085Y-68458500D01*
X98031915Y-68458500D01*
X98031916Y-68458500D01*
X98243116Y-68425049D01*
X98446483Y-68358972D01*
X98637009Y-68261894D01*
X98810004Y-68136206D01*
X98961206Y-67985004D01*
X99086894Y-67812009D01*
X99183972Y-67621483D01*
X99250049Y-67418116D01*
X99283500Y-67206916D01*
X99283500Y-66993084D01*
X99250049Y-66781884D01*
X99183972Y-66578517D01*
X99183972Y-66578516D01*
X99118212Y-66449456D01*
X99086894Y-66387991D01*
X98961206Y-66214996D01*
X98810004Y-66063794D01*
X98743380Y-66015389D01*
X98653818Y-65950318D01*
X98611152Y-65894988D01*
X98605173Y-65825375D01*
X98637779Y-65763580D01*
X98653818Y-65749682D01*
X98736772Y-65689412D01*
X98810004Y-65636206D01*
X98961206Y-65485004D01*
X99086894Y-65312009D01*
X99183972Y-65121483D01*
X99250049Y-64918116D01*
X99283500Y-64706916D01*
X99283500Y-64493084D01*
X99250049Y-64281884D01*
X99183972Y-64078517D01*
X99183972Y-64078516D01*
X99086893Y-63887990D01*
X98965110Y-63720370D01*
X98961206Y-63714996D01*
X98810004Y-63563794D01*
X98810000Y-63563791D01*
X98653818Y-63450318D01*
X98611152Y-63394988D01*
X98605173Y-63325375D01*
X98637779Y-63263580D01*
X98653818Y-63249682D01*
X98704200Y-63213076D01*
X98810004Y-63136206D01*
X98961206Y-62985004D01*
X99086894Y-62812009D01*
X99183972Y-62621483D01*
X99250049Y-62418116D01*
X99283500Y-62206916D01*
X99283500Y-61993084D01*
X99250049Y-61781884D01*
X99183972Y-61578517D01*
X99183972Y-61578516D01*
X99128680Y-61470000D01*
X99086894Y-61387991D01*
X98961206Y-61214996D01*
X98810004Y-61063794D01*
X98810000Y-61063791D01*
X98653818Y-60950318D01*
X98611152Y-60894988D01*
X98605173Y-60825375D01*
X98637779Y-60763580D01*
X98653818Y-60749682D01*
X98704200Y-60713076D01*
X98810004Y-60636206D01*
X98961206Y-60485004D01*
X99086894Y-60312009D01*
X99183972Y-60121483D01*
X99250049Y-59918116D01*
X99283500Y-59706916D01*
X99283500Y-59493084D01*
X99250049Y-59281884D01*
X99217010Y-59180200D01*
X99183973Y-59078519D01*
X99183972Y-59078516D01*
X99132466Y-58977431D01*
X99086894Y-58887991D01*
X98961206Y-58714996D01*
X98810004Y-58563794D01*
X98810000Y-58563791D01*
X98653818Y-58450318D01*
X98611152Y-58394988D01*
X98605173Y-58325375D01*
X98637779Y-58263580D01*
X98653818Y-58249682D01*
X98704200Y-58213076D01*
X98810004Y-58136206D01*
X98961206Y-57985004D01*
X99086894Y-57812009D01*
X99183972Y-57621483D01*
X99250049Y-57418116D01*
X99283500Y-57206916D01*
X99283500Y-56993084D01*
X99250049Y-56781884D01*
X99183972Y-56578517D01*
X99183972Y-56578516D01*
X99086893Y-56387990D01*
X99061406Y-56352910D01*
X98961206Y-56214996D01*
X98810004Y-56063794D01*
X98778748Y-56041085D01*
X98653818Y-55950318D01*
X98611152Y-55894988D01*
X98605173Y-55825375D01*
X98637779Y-55763580D01*
X98653818Y-55749682D01*
X98711284Y-55707930D01*
X98810004Y-55636206D01*
X98961206Y-55485004D01*
X99086894Y-55312009D01*
X99183972Y-55121483D01*
X99250049Y-54918116D01*
X99251593Y-54908369D01*
X99281522Y-54845234D01*
X99340833Y-54808302D01*
X99410696Y-54809300D01*
X99461747Y-54840085D01*
X102801181Y-58179519D01*
X102834666Y-58240842D01*
X102837500Y-58267200D01*
X102837500Y-65387600D01*
X102837500Y-65387602D01*
X102837499Y-65387602D01*
X102866801Y-65534907D01*
X102866803Y-65534913D01*
X102924282Y-65673679D01*
X102980873Y-65758374D01*
X103007730Y-65798569D01*
X103007731Y-65798570D01*
X105751145Y-68541982D01*
X105778023Y-68582206D01*
X105783515Y-68595464D01*
X105783520Y-68595474D01*
X105871998Y-68727891D01*
X105984605Y-68840498D01*
X105984612Y-68840504D01*
X106117030Y-68928982D01*
X106117031Y-68928982D01*
X106117032Y-68928983D01*
X106264169Y-68989930D01*
X106420365Y-69020999D01*
X106420369Y-69021000D01*
X106420370Y-69021000D01*
X106579631Y-69021000D01*
X106579632Y-69020999D01*
X106735831Y-68989930D01*
X106882968Y-68928983D01*
X107015389Y-68840503D01*
X107128003Y-68727889D01*
X107216483Y-68595468D01*
X107277430Y-68448331D01*
X107308500Y-68292130D01*
X107308500Y-68132870D01*
X107277430Y-67976669D01*
X107216483Y-67829532D01*
X107163711Y-67750553D01*
X107128004Y-67697112D01*
X107127998Y-67697105D01*
X107015391Y-67584498D01*
X106882974Y-67496020D01*
X106882964Y-67496015D01*
X106869706Y-67490523D01*
X106829482Y-67463645D01*
X104398819Y-65032981D01*
X104365334Y-64971658D01*
X104362500Y-64945300D01*
X104362500Y-57824897D01*
X104333198Y-57677592D01*
X104333197Y-57677591D01*
X104333197Y-57677587D01*
X104333195Y-57677582D01*
X104289518Y-57572135D01*
X104275722Y-57538828D01*
X104275721Y-57538827D01*
X104275719Y-57538821D01*
X104195067Y-57418117D01*
X104192276Y-57413939D01*
X104192270Y-57413931D01*
X99319818Y-52541479D01*
X99286333Y-52480156D01*
X99283499Y-52453798D01*
X99283499Y-51449462D01*
X99283498Y-51449446D01*
X99277220Y-51387990D01*
X99272887Y-51345574D01*
X99217115Y-51177262D01*
X99124030Y-51026348D01*
X98998652Y-50900970D01*
X98847738Y-50807885D01*
X98748348Y-50774951D01*
X98679427Y-50752113D01*
X98575545Y-50741500D01*
X97024462Y-50741500D01*
X97024446Y-50741501D01*
X96920572Y-50752113D01*
X96752264Y-50807884D01*
X96752259Y-50807886D01*
X96601346Y-50900971D01*
X96475971Y-51026346D01*
X96382886Y-51177259D01*
X96382884Y-51177264D01*
X96327113Y-51345572D01*
X96316500Y-51449447D01*
X94375500Y-51449447D01*
X94375500Y-46446732D01*
X94395185Y-46379693D01*
X94447989Y-46333938D01*
X94517147Y-46323994D01*
X94580703Y-46353019D01*
X94616541Y-46405777D01*
X94723995Y-46712862D01*
X94870191Y-47016440D01*
X95049461Y-47301747D01*
X95208397Y-47501048D01*
X96456320Y-46253125D01*
X96546554Y-46377320D01*
X96685680Y-46516446D01*
X96809873Y-46606678D01*
X95561950Y-47854601D01*
X95761252Y-48013538D01*
X96046559Y-48192808D01*
X96350137Y-48339004D01*
X96668173Y-48450290D01*
X96668185Y-48450294D01*
X96996686Y-48525272D01*
X96996702Y-48525274D01*
X97331519Y-48562999D01*
X97331521Y-48563000D01*
X97668479Y-48563000D01*
X97668480Y-48562999D01*
X98003297Y-48525274D01*
X98003313Y-48525272D01*
X98331814Y-48450294D01*
X98331826Y-48450290D01*
X98649862Y-48339004D01*
X98953440Y-48192808D01*
X99238747Y-48013538D01*
X99438048Y-47854600D01*
X98190126Y-46606678D01*
X98314320Y-46516446D01*
X98453446Y-46377320D01*
X98543678Y-46253126D01*
X99791600Y-47501048D01*
X99950538Y-47301747D01*
X100129808Y-47016440D01*
X100276004Y-46712862D01*
X100387290Y-46394826D01*
X100387294Y-46394814D01*
X100462272Y-46066313D01*
X100462274Y-46066297D01*
X100499999Y-45731480D01*
X100500000Y-45731478D01*
X100500000Y-45394521D01*
X100499999Y-45394519D01*
X100462274Y-45059702D01*
X100462272Y-45059686D01*
X100387294Y-44731185D01*
X100387290Y-44731173D01*
X100276004Y-44413137D01*
X100129808Y-44109559D01*
X99950538Y-43824252D01*
X99791601Y-43624950D01*
X98543678Y-44872873D01*
X98453446Y-44748680D01*
X98314320Y-44609554D01*
X98190124Y-44519320D01*
X99438048Y-43271397D01*
X99238747Y-43112461D01*
X98953440Y-42933191D01*
X98669017Y-42796220D01*
X98617158Y-42749398D01*
X98598845Y-42681970D01*
X98619893Y-42615346D01*
X98673619Y-42570678D01*
X98722819Y-42560500D01*
X140727021Y-42560500D01*
X140794060Y-42580185D01*
G37*
%TD.AperFunction*%
%TA.AperFunction,Conductor*%
G36*
X144241440Y-130178048D02*
G01*
X144400378Y-129978747D01*
X144579648Y-129693440D01*
X144725844Y-129389862D01*
X144833459Y-129082319D01*
X144874180Y-129025543D01*
X144939133Y-128999796D01*
X145007695Y-129013252D01*
X145058097Y-129061640D01*
X145074500Y-129123274D01*
X145074500Y-131235500D01*
X145054815Y-131302539D01*
X145002011Y-131348294D01*
X144950500Y-131359500D01*
X142847861Y-131359500D01*
X142780822Y-131339815D01*
X142735067Y-131287011D01*
X142725123Y-131217853D01*
X142754148Y-131154297D01*
X142806906Y-131118459D01*
X143099702Y-131016004D01*
X143403280Y-130869808D01*
X143688587Y-130690538D01*
X143887888Y-130531600D01*
X142639966Y-129283678D01*
X142764160Y-129193446D01*
X142903286Y-129054320D01*
X142993518Y-128930126D01*
X144241440Y-130178048D01*
G37*
%TD.AperFunction*%
%TA.AperFunction,Conductor*%
G36*
X96344220Y-42580185D02*
G01*
X96389975Y-42632989D01*
X96399919Y-42702147D01*
X96370894Y-42765703D01*
X96330983Y-42796220D01*
X96046559Y-42933191D01*
X95761252Y-43112461D01*
X95561950Y-43271397D01*
X96809873Y-44519320D01*
X96685680Y-44609554D01*
X96546554Y-44748680D01*
X96456320Y-44872873D01*
X95208397Y-43624950D01*
X95049461Y-43824252D01*
X94870191Y-44109559D01*
X94723995Y-44413137D01*
X94616541Y-44720222D01*
X94575820Y-44776998D01*
X94510867Y-44802745D01*
X94442305Y-44789289D01*
X94391903Y-44740901D01*
X94375500Y-44679267D01*
X94375500Y-42684500D01*
X94395185Y-42617461D01*
X94447989Y-42571706D01*
X94499500Y-42560500D01*
X96277181Y-42560500D01*
X96344220Y-42580185D01*
G37*
%TD.AperFunction*%
%TA.AperFunction,Conductor*%
G36*
X145017539Y-42580185D02*
G01*
X145063294Y-42632989D01*
X145074500Y-42684500D01*
X145074500Y-44679725D01*
X145054815Y-44746764D01*
X145002011Y-44792519D01*
X144932853Y-44802463D01*
X144869297Y-44773438D01*
X144833459Y-44720680D01*
X144725844Y-44413137D01*
X144579648Y-44109559D01*
X144400378Y-43824252D01*
X144241441Y-43624950D01*
X142993518Y-44872873D01*
X142903286Y-44748680D01*
X142764160Y-44609554D01*
X142639964Y-44519320D01*
X143887888Y-43271397D01*
X143688587Y-43112461D01*
X143403280Y-42933191D01*
X143118857Y-42796220D01*
X143066998Y-42749398D01*
X143048685Y-42681970D01*
X143069733Y-42615346D01*
X143123459Y-42570678D01*
X143172659Y-42560500D01*
X144950500Y-42560500D01*
X145017539Y-42580185D01*
G37*
%TD.AperFunction*%
%TD*%
M02*
