%TF.GenerationSoftware,KiCad,Pcbnew,9.0.0*%
%TF.CreationDate,2025-05-01T21:30:10-04:00*%
%TF.ProjectId,StarterController_Nano,53746172-7465-4724-936f-6e74726f6c6c,rev?*%
%TF.SameCoordinates,Original*%
%TF.FileFunction,Soldermask,Bot*%
%TF.FilePolarity,Negative*%
%FSLAX46Y46*%
G04 Gerber Fmt 4.6, Leading zero omitted, Abs format (unit mm)*
G04 Created by KiCad (PCBNEW 9.0.0) date 2025-05-01 21:30:10*
%MOMM*%
%LPD*%
G01*
G04 APERTURE LIST*
G04 Aperture macros list*
%AMRoundRect*
0 Rectangle with rounded corners*
0 $1 Rounding radius*
0 $2 $3 $4 $5 $6 $7 $8 $9 X,Y pos of 4 corners*
0 Add a 4 corners polygon primitive as box body*
4,1,4,$2,$3,$4,$5,$6,$7,$8,$9,$2,$3,0*
0 Add four circle primitives for the rounded corners*
1,1,$1+$1,$2,$3*
1,1,$1+$1,$4,$5*
1,1,$1+$1,$6,$7*
1,1,$1+$1,$8,$9*
0 Add four rect primitives between the rounded corners*
20,1,$1+$1,$2,$3,$4,$5,0*
20,1,$1+$1,$4,$5,$6,$7,0*
20,1,$1+$1,$6,$7,$8,$9,0*
20,1,$1+$1,$8,$9,$2,$3,0*%
%AMFreePoly0*
4,1,22,0.945671,0.830970,1.026777,0.776777,1.080970,0.695671,1.100000,0.600000,1.100000,-0.600000,1.080970,-0.695671,1.026777,-0.776777,0.945671,-0.830970,0.850000,-0.850000,-0.450000,-0.850000,-0.545671,-0.830970,-0.626777,-0.776777,-1.026777,-0.376777,-1.080970,-0.295671,-1.100000,-0.200000,-1.100000,0.600000,-1.080970,0.695671,-1.026777,0.776777,-0.945671,0.830970,-0.850000,0.850000,
0.850000,0.850000,0.945671,0.830970,0.945671,0.830970,$1*%
G04 Aperture macros list end*
%ADD10RoundRect,0.250000X-0.725000X0.600000X-0.725000X-0.600000X0.725000X-0.600000X0.725000X0.600000X0*%
%ADD11O,1.950000X1.700000*%
%ADD12RoundRect,0.250000X0.725000X-0.600000X0.725000X0.600000X-0.725000X0.600000X-0.725000X-0.600000X0*%
%ADD13C,1.651000*%
%ADD14R,1.700000X1.700000*%
%ADD15O,1.700000X1.700000*%
%ADD16RoundRect,0.250000X-0.600000X-0.725000X0.600000X-0.725000X0.600000X0.725000X-0.600000X0.725000X0*%
%ADD17O,1.700000X1.950000*%
%ADD18C,5.000000*%
%ADD19RoundRect,0.250000X0.750000X-0.600000X0.750000X0.600000X-0.750000X0.600000X-0.750000X-0.600000X0*%
%ADD20O,2.000000X1.700000*%
%ADD21C,1.300000*%
%ADD22FreePoly0,90.000000*%
%ADD23O,1.700000X2.200000*%
%ADD24RoundRect,0.250000X-0.750000X0.600000X-0.750000X-0.600000X0.750000X-0.600000X0.750000X0.600000X0*%
G04 APERTURE END LIST*
D10*
%TO.C,J1*%
X97800000Y-78400000D03*
D11*
X97800000Y-80900000D03*
X97800000Y-83400000D03*
X97800000Y-85900000D03*
X97800000Y-88400000D03*
X97800000Y-90900000D03*
X97800000Y-93400000D03*
X97800000Y-95900000D03*
%TD*%
D10*
%TO.C,J4*%
X97800000Y-52100000D03*
D11*
X97800000Y-54600000D03*
X97800000Y-57100000D03*
X97800000Y-59600000D03*
X97800000Y-62100000D03*
X97800000Y-64600000D03*
X97800000Y-67100000D03*
%TD*%
D12*
%TO.C,J3*%
X141649840Y-67100000D03*
D11*
X141649840Y-64600000D03*
X141649840Y-62100000D03*
X141649840Y-59600000D03*
X141649840Y-57100000D03*
X141649840Y-54600000D03*
X141649840Y-52100000D03*
%TD*%
D13*
%TO.C,MH2*%
X101270000Y-83490000D03*
%TD*%
D14*
%TO.C,J13*%
X103710000Y-83500000D03*
D15*
X106250000Y-83500000D03*
X108790000Y-83500000D03*
X111330000Y-83500000D03*
X113870000Y-83500000D03*
X116410000Y-83500000D03*
X118950000Y-83500000D03*
X121490000Y-83500000D03*
X124030000Y-83500000D03*
X126570000Y-83500000D03*
X129110000Y-83500000D03*
X131650000Y-83500000D03*
X134190000Y-83500000D03*
X136730000Y-83500000D03*
X139270000Y-83500000D03*
%TD*%
D16*
%TO.C,J2*%
X113700000Y-127100000D03*
D17*
X116200000Y-127100000D03*
X118700000Y-127100000D03*
X121200000Y-127100000D03*
X123700000Y-127100000D03*
%TD*%
D16*
%TO.C,J5*%
X134100000Y-78500000D03*
D17*
X136600000Y-78500000D03*
X139100000Y-78500000D03*
%TD*%
D13*
%TO.C,MH4*%
X141910000Y-98730000D03*
%TD*%
D18*
%TO.C,H2*%
X141949840Y-45563000D03*
%TD*%
D13*
%TO.C,MH1*%
X101270000Y-98730000D03*
%TD*%
D19*
%TO.C,J9*%
X140500000Y-106100000D03*
D20*
X140500000Y-103600000D03*
%TD*%
D21*
%TO.C,J6*%
X121100000Y-62210000D03*
D22*
X119850000Y-60870000D03*
D23*
X122350000Y-60870000D03*
%TD*%
D24*
%TO.C,J10*%
X99200000Y-112750000D03*
D20*
X99200000Y-115250000D03*
%TD*%
D13*
%TO.C,MH3*%
X141910000Y-83490000D03*
%TD*%
D24*
%TO.C,J7*%
X99200000Y-104150000D03*
D20*
X99200000Y-106650000D03*
%TD*%
D18*
%TO.C,H4*%
X141949840Y-128240000D03*
%TD*%
%TO.C,H3*%
X97500000Y-128240000D03*
%TD*%
D14*
%TO.C,J12*%
X103670000Y-98705000D03*
D15*
X106210000Y-98705000D03*
X108750000Y-98705000D03*
X111290000Y-98705000D03*
X113830000Y-98705000D03*
X116370000Y-98705000D03*
X118910000Y-98705000D03*
X121450000Y-98705000D03*
X123990000Y-98705000D03*
X126530000Y-98705000D03*
X129070000Y-98705000D03*
X131610000Y-98705000D03*
X134150000Y-98705000D03*
X136690000Y-98705000D03*
X139230000Y-98705000D03*
%TD*%
D19*
%TO.C,J8*%
X140500000Y-114700000D03*
D20*
X140500000Y-112200000D03*
%TD*%
D18*
%TO.C,H1*%
X97500000Y-45563000D03*
%TD*%
M02*
