M48
; DRILL file {KiCad 9.0.0} date 2025-05-01T21:33:04-0400
; FORMAT={-:-/ absolute / inch / decimal}
; #@! TF.CreationDate,2025-05-01T21:33:04-04:00
; #@! TF.GenerationSoftware,Kicad,Pcbnew,9.0.0
; #@! TF.FileFunction,Plated,1,4,PTH
FMAT,2
INCH
; #@! TA.AperFunction,Plated,PTH,ViaDrill
T1C0.0157
; #@! TA.AperFunction,Plated,PTH,ComponentDrill
T2C0.0374
; #@! TA.AperFunction,Plated,PTH,ComponentDrill
T3C0.0394
; #@! TA.AperFunction,Plated,PTH,ComponentDrill
T4C0.0472
; #@! TA.AperFunction,Plated,PTH,ComponentDrill
T5C0.0984
%
G90
G05
T1
X3.7323Y-1.9449
X3.7323Y-2.1732
X3.7323Y-2.4094
X3.7323Y-2.5984
X3.7323Y-2.811
X3.7323Y-3.0709
X3.7323Y-3.3071
X3.7323Y-4.6457
X3.7402Y-1.6929
X3.7402Y-3.815
X3.7402Y-5.1496
X3.7441Y-4.0709
X3.7441Y-4.3858
X3.7441Y-4.9291
X3.748Y-3.5315
X3.8976Y-2.9035
X3.9055Y-4.2598
X3.9291Y-3.5433
X3.9291Y-3.6378
X3.9291Y-3.7244
X3.9685Y-3.3819
X4.0Y-3.1811
X4.0039Y-3.4803
X4.0079Y-1.7008
X4.0308Y-4.1811
X4.0315Y-5.1496
X4.0354Y-4.5906
X4.0748Y-3.4567
X4.0827Y-3.3937
X4.0866Y-3.7126
X4.0945Y-4.3937
X4.0945Y-4.8346
X4.1024Y-4.7165
X4.1083Y-4.2894
X4.126Y-3.9921
X4.1575Y-1.9449
X4.1575Y-4.3031
X4.1575Y-4.5433
X4.1654Y-2.0827
X4.1732Y-2.2205
X4.1811Y-3.4016
X4.1811Y-3.6929
X4.189Y-1.6929
X4.1929Y-2.6855
X4.2047Y-5.1496
X4.2165Y-2.4961
X4.2205Y-2.3583
X4.2756Y-4.5591
X4.2815Y-3.0118
X4.2835Y-3.4055
X4.2835Y-4.7953
X4.2913Y-2.7953
X4.3307Y-4.1969
X4.3543Y-4.8228
X4.3661Y-4.9449
X4.3701Y-2.5787
X4.3937Y-1.7087
X4.4173Y-5.1496
X4.4252Y-4.1102
X4.4341Y-1.7953
X4.4409Y-4.685
X4.4528Y-2.4606
X4.4646Y-1.8701
X4.4646Y-2.1575
X4.4803Y-2.248
X4.4803Y-2.3858
X4.4803Y-2.5591
X4.4901Y-2.0936
X4.5157Y-1.8253
X4.5197Y-4.4961
X4.5354Y-2.1732
X4.5512Y-1.7913
X4.5571Y-3.1299
X4.5571Y-3.4252
X4.5571Y-3.6713
X4.563Y-1.689
X4.5748Y-2.1654
X4.5758Y-1.9213
X4.5827Y-2.3465
X4.5827Y-3.9764
X4.5827Y-4.1575
X4.5973Y-1.9892
X4.622Y-2.1654
X4.6417Y-1.878
X4.6457Y-4.5827
X4.6535Y-4.7559
X4.6693Y-2.1654
X4.6772Y-5.1496
X4.685Y-4.1811
X4.6929Y-2.8031
X4.7146Y-2.5394
X4.7195Y-2.1732
X4.7323Y-1.8189
X4.7441Y-2.2913
X4.7598Y-1.7835
X4.7638Y-1.9213
X4.7717Y-2.1654
X4.7971Y-2.0973
X4.8344Y-2.0948
X4.8346Y-2.8583
X4.8386Y-4.185
X4.8504Y-1.7441
X4.8504Y-1.7874
X4.8507Y-2.1808
X4.8524Y-3.1102
X4.8529Y-1.832
X4.8701Y-4.6693
X4.9134Y-2.0591
X4.9567Y-2.5118
X4.9616Y-2.9321
X4.9685Y-1.9528
X4.9685Y-5.1496
X4.9764Y-1.6929
X4.9803Y-3.4252
X4.9843Y-4.5039
X4.9892Y-2.7283
X5.0039Y-3.6535
X5.0039Y-3.7795
X5.0157Y-4.2047
X5.0236Y-2.8583
X5.0394Y-4.6772
X5.122Y-2.7283
X5.1397Y-4.8682
X5.1535Y-4.3465
X5.1654Y-4.1024
X5.1969Y-1.6929
X5.1969Y-5.1496
X5.2283Y-4.5197
X5.2598Y-3.9764
X5.2795Y-1.9252
X5.2795Y-2.0591
X5.2795Y-2.1969
X5.2795Y-2.4764
X5.2835Y-2.3386
X5.2913Y-2.6063
X5.2992Y-4.9528
X5.3248Y-2.8248
X5.3327Y-4.502
X5.3465Y-4.1821
X5.3661Y-4.3465
X5.3701Y-4.122
X5.3937Y-5.1496
X5.4035Y-3.4252
X5.4094Y-1.6929
X5.4331Y-4.2835
X5.4567Y-2.7717
X5.4567Y-3.6929
X5.5315Y-3.9961
X5.5433Y-4.2992
X5.685Y-5.1496
X5.6929Y-1.6929
X5.6929Y-1.8819
X5.6929Y-2.0
X5.6929Y-2.1417
X5.6929Y-2.3071
X5.6929Y-2.4803
X5.6929Y-2.622
X5.6929Y-2.7717
X5.6929Y-2.9291
X5.6929Y-3.063
X5.6929Y-3.2047
X5.6929Y-3.3937
X5.6929Y-3.5906
X5.6929Y-3.7717
X5.6929Y-3.9449
X5.6929Y-4.1339
X5.6929Y-4.2992
X5.6929Y-4.4488
X5.6929Y-4.6063
X5.6929Y-4.7244
X5.6929Y-4.9055
T2
X3.8504Y-2.0512
X3.8504Y-2.1496
X3.8504Y-2.248
X3.8504Y-2.3465
X3.8504Y-2.4449
X3.8504Y-2.5433
X3.8504Y-2.6417
X3.8504Y-3.0866
X3.8504Y-3.185
X3.8504Y-3.2835
X3.8504Y-3.3819
X3.8504Y-3.4803
X3.8504Y-3.5787
X3.8504Y-3.6772
X3.8504Y-3.7756
X4.4764Y-5.0039
X4.5748Y-5.0039
X4.6732Y-5.0039
X4.7717Y-5.0039
X4.8701Y-5.0039
X5.2795Y-3.0906
X5.378Y-3.0906
X5.4764Y-3.0906
X5.5768Y-2.0512
X5.5768Y-2.1496
X5.5768Y-2.248
X5.5768Y-2.3465
X5.5768Y-2.4449
X5.5768Y-2.5433
X5.5768Y-2.6417
T3
X3.9055Y-4.1004
X3.9055Y-4.1988
X3.9055Y-4.439
X3.9055Y-4.5374
X4.0815Y-3.886
X4.0831Y-3.2874
X4.1815Y-3.886
X4.1831Y-3.2874
X4.2815Y-3.886
X4.2831Y-3.2874
X4.3815Y-3.886
X4.3831Y-3.2874
X4.4815Y-3.886
X4.4831Y-3.2874
X4.5815Y-3.886
X4.5831Y-3.2874
X4.6815Y-3.886
X4.6831Y-3.2874
X4.7815Y-3.886
X4.7831Y-3.2874
X4.8815Y-3.886
X4.8831Y-3.2874
X4.9815Y-3.886
X4.9831Y-3.2874
X5.0815Y-3.886
X5.0831Y-3.2874
X5.1815Y-3.886
X5.1831Y-3.2874
X5.2815Y-3.886
X5.2831Y-3.2874
X5.3815Y-3.886
X5.3831Y-3.2874
X5.4815Y-3.886
X5.4831Y-3.2874
X5.5315Y-4.0787
X5.5315Y-4.1772
X5.5315Y-4.4173
X5.5315Y-4.5157
T4
X4.7185Y-2.3965
X4.8169Y-2.3965
T5
X3.8386Y-1.7938
X3.8386Y-5.0488
X5.5886Y-1.7938
X5.5886Y-5.0488
M30
